<svg xmlns="http://www.w3.org/2000/svg" width="86" height="72" viewBox="0 0 86 72"><g transform="translate(-1 -8)"><path d="M82,14H6a5,5,0,0,0-5,5V75a5,5,0,0,0,5,5H76L87,69V19A5,5,0,0,0,82,14Z" fill="#e6ecff"/><path d="M76,69,73,80h3Z" fill="#b7c6e2"/><path d="M76,14v1a1,1,0,0,1-2,0V14Z" fill="#376cfb"/><path d="M59,14v1a1,1,0,0,1-2,0V14Z" fill="#376cfb"/><path d="M41,14v1a1,1,0,0,1-2,0V14Z" fill="#376cfb"/><path d="M24,14v1a1,1,0,0,1-2,0V14Z" fill="#376cfb"/><path d="M82,14H6a5,5,0,0,0-5,5v9H87V19A5,5,0,0,0,82,14Z" fill="#bface9"/><path d="M24,14H22a4,4,0,0,0-8,0v3a4,4,0,0,0,4,4,1,1,0,0,1,0,2,6,6,0,0,1-6-6V14a6,6,0,0,1,12,0Z" fill="#8257e5"/><path d="M41,14H39a4,4,0,0,0-8,0v3a4,4,0,0,0,4,4,1,1,0,0,1,0,2,6,6,0,0,1-6-6V14a6,6,0,0,1,12,0Z" fill="#8257e5"/><path d="M59,14H57a4,4,0,0,0-8,0v3a4,4,0,0,0,4,4,1,1,0,0,1,0,2,6,6,0,0,1-6-6V14a6,6,0,0,1,12,0Z" fill="#8257e5"/><path d="M76,14H74a4,4,0,0,0-8,0v3a4,4,0,0,0,4,4,1,1,0,0,1,0,2,6,6,0,0,1-6-6V14a6,6,0,0,1,12,0Z" fill="#8257e5"/><path d="M58.534,49.015a1,1,0,0,0-.964-.058L43,55.893,28.43,48.957a1,1,0,0,0-1.43.9v12a1,1,0,0,0,.57.9l15,7.14a1,1,0,0,0,.859,0l15-7.14a1,1,0,0,0,.571-.9v-12A1,1,0,0,0,58.534,49.015Z" fill="#8257e5"/><path d="M64,60a1,1,0,0,1-1-1V47a1,1,0,0,1,2,0V59A1,1,0,0,1,64,60Z" fill="#8257e5"/><path d="M66.707,60.293l-2-2a1,1,0,0,0-1.414,0l-2,2a1,1,0,0,0-.222,1.078l2,5a1,1,0,0,0,1.857,0l2-5a1,1,0,0,0-.222-1.078Z" fill="#8257e5"/><path d="M59,49.86v2.85l-14.71,7a3.014,3.014,0,0,1-2.58,0L27,52.71V49.86a1.025,1.025,0,0,1,.47-.85.994.994,0,0,1,.96-.05L43,55.89l14.57-6.93a.994.994,0,0,1,.96.05A1.025,1.025,0,0,1,59,49.86Z" fill="#6848b1"/><path d="M65,47v2.85l-2,.95V47a1,1,0,0,1,2,0Z" fill="#2045ce"/><path d="M82.6,73.4C30.39,82.043,9.307,62.577,1,44.96V75a5,5,0,0,0,5,5H76Z" fill="#b7c6e2"/><path d="M64.43,46.1l-21-10a1,1,0,0,0-.859,0l-21,10a1,1,0,0,0,0,1.807l21,10a1,1,0,0,0,.859,0l21-10a1,1,0,0,0,0-1.807Z" fill="#bface9"/><path d="M76,80V69H87Z" fill="#bface9"/><path d="M76,74.378V80l6.6-6.6C80.346,73.774,78.138,74.107,76,74.378Z" fill="#8257e5"/><path d="M74.49,74.537,73,80h3V74.351C75.494,74.415,74.989,74.479,74.49,74.537Z" fill="#8ea6ce"/></g></svg>