<svg xmlns="http://www.w3.org/2000/svg" width="86" height="70" viewBox="0 0 86 70"><g transform="translate(-1 -9)"><rect width="74" height="50" rx="1" transform="translate(1 9)" fill="#e6ecff"/><path d="M41.833,57A33.833,33.833,0,0,1,8,23.167V9H2a1,1,0,0,0-1,1V58a1,1,0,0,0,1,1H74a1,1,0,0,0,1-1V57Z" fill="#b7c6e2"/><path d="M70,20a6.007,6.007,0,0,1-6-6,1,1,0,0,0-1-1H13a1,1,0,0,0-1,1,6.007,6.007,0,0,1-6,6,1,1,0,0,0-1,1V47a1,1,0,0,0,1,1,6.007,6.007,0,0,1,6,6,1,1,0,0,0,1,1H70a1,1,0,0,0,1-1V21A1,1,0,0,0,70,20Z" fill="#d0dbf7"/><path d="M56,30H20a1,1,0,0,1,0-2H56a1,1,0,0,1,0,2Z" fill="#8257e5"/><path d="M47,25H28.9a1,1,0,0,1,0-2H47a1,1,0,0,1,0,2Z" fill="#8257e5"/><path d="M56,35H20a1,1,0,0,1,0-2H56a1,1,0,0,1,0,2Z" fill="#8257e5"/><path d="M56,40H20a1,1,0,0,1,0-2H56a1,1,0,0,1,0,2Z" fill="#8257e5"/><path d="M47,45H28a1,1,0,0,1,0-2H47a1,1,0,0,1,0,2Z" fill="#8257e5"/><path d="M8,23.167V19.65A5.961,5.961,0,0,1,6,20a1,1,0,0,0-1,1V47a1,1,0,0,0,1,1,6.007,6.007,0,0,1,6,6,1,1,0,0,0,1,1H30.357A33.844,33.844,0,0,1,8,23.167Z" fill="#8ea6ce"/><path d="M86.707,69.293l-8.8-8.8a1,1,0,0,0-1.363-.048l-1.76,1.53a1.01,1.01,0,0,0-.27.379l-1.558,3.838-4.045.321a1,1,0,0,0-.452.15l-.91.57a1,1,0,0,0-.176,1.554l9.92,9.92A1,1,0,0,0,79,78V71h7a1,1,0,0,0,.707-1.707Z" fill="#6848b1"/><path d="M62.451,67.233l-.91-.57a1,1,0,0,0-.452-.15l-4.045-.321-1.558-3.838a1.01,1.01,0,0,0-.27-.379l-1.76-1.53a1,1,0,0,0-1.363.048l-8.8,8.8A1,1,0,0,0,44,71h7v7a1,1,0,0,0,1.707.707l9.92-9.92a1,1,0,0,0-.176-1.554Z" fill="#bface9"/><path d="M78.934,55l1.04-4.406a1,1,0,0,0-.317-.984l-3.378-2.938-1.7-4.184a1,1,0,0,0-.847-.62l-4.421-.354L65.53,39.152a1,1,0,0,0-1.061,0l-3.781,2.363-4.421.354a1,1,0,0,0-.847.62l-1.7,4.184L50.344,49.61a1,1,0,0,0-.317.984L51.066,55l-1.04,4.406a1,1,0,0,0,.317.984l3.378,2.938,1.7,4.184a1,1,0,0,0,.847.62l4.421.354,3.782,2.363a1,1,0,0,0,1.061,0l3.781-2.363,4.421-.354a1,1,0,0,0,.847-.62l1.7-4.184,3.378-2.938a1,1,0,0,0,.317-.984Z" fill="#bface9"/><path d="M50.026,59.406a1,1,0,0,0,.317.984l3.378,2.939,1.7,4.184a1,1,0,0,0,.847.62l4.421.354,3.782,2.363a1,1,0,0,0,1.061,0l3.781-2.363,4.421-.354a1,1,0,0,0,.847-.62l1.7-4.184,3.378-2.938a1,1,0,0,0,.317-.984L79.406,57H50.594Z" fill="#8257e5"/><circle cx="9" cy="9" r="9" transform="translate(56 46)" fill="#8257e5"/><path d="M56.232,57a8.991,8.991,0,0,0,17.536,0Z" fill="#6848b1"/></g></svg>