<svg xmlns="http://www.w3.org/2000/svg" width="80" height="86" viewBox="0 0 80 86"><g transform="translate(-4 -1)"><rect width="74" height="31" rx="1" transform="translate(4 27)" fill="#8257e5"/><path d="M77,27H41V58H77a1,1,0,0,0,1-1V28A1,1,0,0,0,77,27Z" fill="#6848b1"/><path d="M76,69a1,1,0,0,1-1-1V65a1,1,0,0,0-1-1H60a5.006,5.006,0,0,1-5-5V54a1,1,0,0,1,2,0v5a3,3,0,0,0,3,3H74a3,3,0,0,1,3,3v3A1,1,0,0,1,76,69Z" fill="#bface9"/><path d="M27,53H19a1,1,0,0,0-1,1V67a1,1,0,0,0,1.707.707L23,64.414l3.293,3.293A1,1,0,0,0,28,67V54A1,1,0,0,0,27,53Z" fill="#6848b1"/><path d="M10,24a1,1,0,0,0-1,1V53a1,1,0,0,0,1,1H37a4,4,0,0,1,4,4V24Z" fill="#bface9"/><path d="M72,24H41V58a4,4,0,0,1,4-4H72a1,1,0,0,0,1-1V25A1,1,0,0,0,72,24Z" fill="#8257e5"/><path d="M36,47H22a1,1,0,0,1,0-2H36a1,1,0,0,1,0,2Z" fill="#8257e5"/><path d="M28,43H14a1,1,0,0,1,0-2H28a1,1,0,0,1,0,2Z" fill="#8257e5"/><path d="M36,39H14a1,1,0,0,1,0-2H36a1,1,0,0,1,0,2Z" fill="#8257e5"/><path d="M29,51H14a1,1,0,0,1,0-2H29a1,1,0,0,1,0,2Z" fill="#8257e5"/><path d="M60,47H46a1,1,0,0,1,0-2H60a1,1,0,0,1,0,2Z" fill="#6848b1"/><path d="M68,43H46a1,1,0,0,1,0-2H68a1,1,0,0,1,0,2Z" fill="#6848b1"/><path d="M68,39H59a1,1,0,0,1,0-2h9a1,1,0,0,1,0,2Z" fill="#6848b1"/><path d="M68,51H54a1,1,0,0,1,0-2H68a1,1,0,0,1,0,2Z" fill="#6848b1"/><path d="M68,47H64a1,1,0,0,1,0-2h4a1,1,0,0,1,0,2Z" fill="#6848b1"/><path d="M50,51H46a1,1,0,0,1,0-2h4a1,1,0,0,1,0,2Z" fill="#6848b1"/><path d="M55,39H46a1,1,0,0,1,0-2h9a1,1,0,0,1,0,2Z" fill="#6848b1"/><path d="M36,51H33a1,1,0,0,1,0-2h3a1,1,0,0,1,0,2Z" fill="#8257e5"/><path d="M18,47H14a1,1,0,0,1,0-2h4a1,1,0,0,1,0,2Z" fill="#8257e5"/><path d="M36,43H32a1,1,0,0,1,0-2h4a1,1,0,0,1,0,2Z" fill="#8257e5"/><path d="M78,67H74a6.007,6.007,0,0,0-6,6v6a8,8,0,0,0,16,0V73a6.007,6.007,0,0,0-6-6Z" fill="#8257e5"/><path d="M76,75a1,1,0,0,1-1-1V72a1,1,0,0,1,2,0v2A1,1,0,0,1,76,75Z" fill="#6848b1"/><path d="M57.671,11.13A12.939,12.939,0,0,0,45,1,13.09,13.09,0,0,0,34.283,6.628,8.983,8.983,0,0,0,22,15c0,.072.006.132.007.2A10,10,0,0,0,24,35H56a11.993,11.993,0,0,0,1.671-23.87Z" fill="#e6ecff"/><path d="M40.65,12.18a1,1,0,0,1-1.3-.56,8.961,8.961,0,0,0-4.22-4.61c-.28-.14-.56-.27-.85-.39a12.755,12.755,0,0,1,1.32-1.6,4.538,4.538,0,0,1,.45.21,10.938,10.938,0,0,1,5.15,5.65,1,1,0,0,1-.55,1.3Z" fill="#bface9"/><path d="M57.67,11.12A11.518,11.518,0,0,0,56,11a11.932,11.932,0,0,0-6.27,1.77,1,1,0,1,1-1.05-1.71A13.981,13.981,0,0,1,56,9c.34,0,.68.01,1.01.04a14.01,14.01,0,0,1,.66,2.08Z" fill="#bface9"/><path d="M31.25,16.67a.995.995,0,0,1-1.4.22A9.891,9.891,0,0,0,24,15a10.017,10.017,0,0,0-1.988.2c0-.07-.012-.13-.012-.2a9.462,9.462,0,0,1,.19-1.86,11.972,11.972,0,0,1,8.84,2.13,1.014,1.014,0,0,1,.22,1.4Z" fill="#bface9"/><path d="M43,24.083V36H41V24.083a1,1,0,1,1,2,0Z" fill="#8257e5"/><circle cx="4" cy="4" r="4" transform="translate(38 17)" fill="#bface9"/></g></svg>