<svg xmlns="http://www.w3.org/2000/svg" width="86" height="82" viewBox="0 0 86 82"><g transform="translate(-1 -3)"><path d="M67,57a1,1,0,0,1-1-1V47H46a1,1,0,0,1,0-2H67a1,1,0,0,1,1,1V56A1,1,0,0,1,67,57Z" fill="#8257e5"/><path d="M21,57a1,1,0,0,1-1-1V46a1,1,0,0,1,1-1H42a1,1,0,0,1,0,2H22v9A1,1,0,0,1,21,57Z" fill="#8257e5"/><path d="M44,45a1,1,0,0,1-1-1V36a1,1,0,0,1,2,0v8A1,1,0,0,1,44,45Z" fill="#8257e5"/><rect width="34" height="27" rx="1" transform="translate(4 55)" fill="#e6ecff"/><circle cx="8" cy="8" r="8" transform="translate(13 60)" fill="#bface9"/><path d="M60.671,13.13A12.939,12.939,0,0,0,48,3,13.09,13.09,0,0,0,37.283,8.628,8.983,8.983,0,0,0,25,17c0,.072.006.132.007.2A10,10,0,0,0,27,37H59a11.993,11.993,0,0,0,1.671-23.87Z" fill="#bface9"/><path d="M43.65,14.18a1,1,0,0,1-1.3-.56,8.961,8.961,0,0,0-4.22-4.61c-.28-.14-.56-.27-.85-.39a12.755,12.755,0,0,1,1.32-1.6,4.538,4.538,0,0,1,.45.21,10.938,10.938,0,0,1,5.15,5.65,1,1,0,0,1-.55,1.3Z" fill="#8257e5"/><path d="M60.67,13.12A11.519,11.519,0,0,0,59,13a11.932,11.932,0,0,0-6.27,1.77,1,1,0,1,1-1.05-1.71A13.981,13.981,0,0,1,59,11c.34,0,.68.01,1.01.04a14.011,14.011,0,0,1,.66,2.08Z" fill="#8257e5"/><path d="M34.25,18.67a.995.995,0,0,1-1.4.22A9.891,9.891,0,0,0,27,17a10.018,10.018,0,0,0-1.988.2c0-.07-.012-.13-.012-.2a9.461,9.461,0,0,1,.19-1.86,11.972,11.972,0,0,1,8.84,2.13,1.014,1.014,0,0,1,.22,1.4Z" fill="#8257e5"/><path d="M40,77H30.382l-2,3H13.618l-2-3H2a1,1,0,0,0-1,1v3a4,4,0,0,0,4,4H37a4,4,0,0,0,4-4V78A1,1,0,0,0,40,77Z" fill="#bface9"/><path d="M24.515,67.143l-5-3A1,1,0,0,0,18,65v6a1,1,0,0,0,1.515.857l5-3a1,1,0,0,0,0-1.715Z" fill="#8257e5"/><rect width="34" height="27" rx="1" transform="translate(50 55)" fill="#e6ecff"/><circle cx="8" cy="8" r="8" transform="translate(59 60)" fill="#bface9"/><path d="M86,77H76.382l-2,3H59.618l-2-3H48a1,1,0,0,0-1,1v3a4,4,0,0,0,4,4H83a4,4,0,0,0,4-4V78A1,1,0,0,0,86,77Z" fill="#bface9"/><path d="M70.515,67.143l-5-3A1,1,0,0,0,64,65v6a1,1,0,0,0,1.515.857l5-3a1,1,0,0,0,0-1.715Z" fill="#8257e5"/><circle cx="3" cy="3" r="3" transform="translate(41 43)" fill="#bface9"/></g></svg>