<svg xmlns="http://www.w3.org/2000/svg" width="86" height="86" viewBox="0 0 86 86"><g transform="translate(-1 -1)"><rect width="42" height="34" rx="6" transform="translate(23 1)" fill="#e6ecff"/><path d="M64.65,31A5.981,5.981,0,0,1,59,35H29a6,6,0,0,1-6-6V7a5.99,5.99,0,0,1,5-5.91V12.53A18.471,18.471,0,0,0,46.469,31Z" fill="#b7c6e2"/><path d="M22,42H11L8,32H19Z" fill="#bface9"/><path d="M11,42H5L8,32Z" fill="#6848b1"/><path d="M15.01,42H11L8,32h2.24a32.826,32.826,0,0,0,4.77,10Z" fill="#8257e5"/><rect width="34" height="16" transform="translate(11 47)" fill="#bface9"/><path d="M45,56v7H11V47h8.35A32.865,32.865,0,0,0,42,56Z" fill="#8257e5"/><path d="M30.5,57h-4a1,1,0,0,1,0-2h4a1,1,0,0,1,0,2Z" fill="#6848b1"/><path d="M0,0H64V3H0Z" transform="translate(12 48)" fill="#8257e5"/><path d="M24.53,51H12V48h8.45a32.435,32.435,0,0,0,4.08,3Z" fill="#6848b1"/><rect width="33" height="16" transform="translate(44 47)" fill="#8257e5"/><rect width="33" height="7" transform="translate(44 56)" fill="#6848b1"/><path d="M61.5,57h-4a1,1,0,0,1,0-2h4a1,1,0,0,1,0,2Z" fill="#6848b1"/><rect width="31" height="3" transform="translate(44 48)" fill="#6848b1"/><rect width="8" height="40" rx="1" transform="translate(5 47)" fill="#8ea6ce"/><rect width="8" height="40" rx="1" transform="translate(75 47)" fill="#d0dbf7"/><rect width="8" height="4" transform="translate(5 47)" fill="#6c7c93"/><rect width="8" height="4" transform="translate(75 47)" fill="#becced"/><path d="M53.447,41.105A6.2,6.2,0,0,1,50,35.528V34a1,1,0,0,0-1-1H39a1,1,0,0,0-1,1v1.528a6.2,6.2,0,0,1-3.447,5.578A1,1,0,0,0,35,43H53a1,1,0,0,0,.447-1.895Z" fill="#6848b1"/><path d="M72,35a6.007,6.007,0,0,0-6,6v1a1,1,0,0,0,1,1H77a1,1,0,0,0,1-1V41A6.007,6.007,0,0,0,72,35Z" fill="#8257e5"/><path d="M50.508,11.808a1,1,0,0,0-.993-.013L44,14.856,38.485,11.8A1,1,0,0,0,37,12.67v6a1,1,0,0,0,.514.874l6,3.33a1,1,0,0,0,.971,0l6-3.33A1,1,0,0,0,51,18.67v-6a1,1,0,0,0-.492-.862Z" fill="#8257e5"/><path d="M53,18a1,1,0,0,1-1-1V11a1,1,0,0,1,2,0v6A1,1,0,0,1,53,18Z" fill="#376cfb"/><path d="M53.486,10.126l-9-5a1,1,0,0,0-.972,0l-9,5a1,1,0,0,0,0,1.748l9,5a1,1,0,0,0,.972,0l9-5a1,1,0,0,0,0-1.748Z" fill="#bface9"/><path d="M29,35H59a6.007,6.007,0,0,0,6-6V27H23v2A6.007,6.007,0,0,0,29,35Z" fill="#bface9"/><rect width="86" height="8" rx="1" transform="translate(1 41)" fill="#e6ecff"/><path d="M21.66,49H2a1,1,0,0,1-1-1V42a1,1,0,0,1,1-1H14.34a33.179,33.179,0,0,0,7.32,8Z" fill="#b7c6e2"/><path d="M62.5,56a1,1,0,0,1-1,1h-4a1,1,0,0,1-1-1Z" fill="#8257e5"/><path d="M83,56V86a1,1,0,0,1-1,1H76a1,1,0,0,1-1-1V56Z" fill="#8ea6ce"/><path d="M64.65,31A5.981,5.981,0,0,1,59,35H29a6,6,0,0,1-6-6V27H35a18.4,18.4,0,0,0,11.47,4Z" fill="#8257e5"/><path d="M46,32H42a1,1,0,0,1,0-2h4a1,1,0,0,1,0,2Z" fill="#8257e5"/><path d="M47,31a1,1,0,0,1-1,1H42a1,1,0,0,1-1-1,.974.974,0,0,1,.32-.73,18.21,18.21,0,0,0,5.15.73Z" fill="#6848b1"/></g></svg>