<svg xmlns="http://www.w3.org/2000/svg" width="50" height="86" viewBox="0 0 50 86"><g transform="translate(-19 -1)"><rect width="50" height="86" rx="4" transform="translate(19 1)" fill="#e6ecff"/><path d="M64,5H48a1,1,0,0,0-1,1,3,3,0,0,1-6,0,1,1,0,0,0-1-1H24a1,1,0,0,0-1,1V82a1,1,0,0,0,1,1H64a1,1,0,0,0,1-1V6A1,1,0,0,0,64,5Z" fill="#d0dbf7"/><rect width="46" height="24" transform="translate(21 34)" fill="#8257e5"/><rect width="23" height="24" transform="translate(44 34)" fill="#6848b1"/><circle cx="1" cy="1" r="1" transform="translate(43 5)" fill="#4294ff"/><path d="M40,30H24V54H40a4,4,0,0,1,4,4V34A4,4,0,0,0,40,30Z" fill="#bface9"/><path d="M48,30a4,4,0,0,0-4,4V58a4,4,0,0,1,4-4H64V30Z" fill="#8257e5"/><path d="M38.53,41.152l-8-5A1,1,0,0,0,29,37V47a1,1,0,0,0,1.53.848l8-5a1,1,0,0,0,0-1.7Z" fill="#8257e5"/><path d="M60,35H48a1,1,0,0,1,0-2H60a1,1,0,0,1,0,2Z" fill="#6848b1"/><path d="M60,39H48a1,1,0,0,1,0-2H60a1,1,0,0,1,0,2Z" fill="#6848b1"/><path d="M60,43H48a1,1,0,0,1,0-2H60a1,1,0,0,1,0,2Z" fill="#6848b1"/><path d="M60,47H48a1,1,0,0,1,0-2H60a1,1,0,0,1,0,2Z" fill="#6848b1"/><path d="M60,51H48a1,1,0,0,1,0-2H60a1,1,0,0,1,0,2Z" fill="#6848b1"/></g></svg>