<svg xmlns="http://www.w3.org/2000/svg" width="58" height="78" viewBox="0 0 58 78"><g transform="translate(-15 -5)"><path d="M58.469,39,50,37.191V33.48a1,1,0,0,0-1.558-.83,8.114,8.114,0,0,1-8.885,0A1,1,0,0,0,38,33.48v3.711L29.528,39A7.051,7.051,0,0,0,24,45.85V56a1,1,0,0,0,1,1H63a1,1,0,0,0,1-1V45.85A7.051,7.051,0,0,0,58.469,39Z" fill="#bface9"/><rect width="40" height="2" transform="translate(24 53)" fill="#8257e5"/><path d="M50,33.48v3.71l-6,3.6-6-3.6V33.48a1,1,0,0,1,1.56-.83,8.089,8.089,0,0,0,8.88,0,1,1,0,0,1,1.56.83Z" fill="#edb7b7"/><path d="M44,57a1,1,0,0,1-1-1V46a1,1,0,0,1,2,0V56A1,1,0,0,1,44,57Z" fill="#6848b1"/><path d="M55,57a1,1,0,0,1-1-1V50a1,1,0,0,1,2,0v6A1,1,0,0,1,55,57Z" fill="#8257e5"/><path d="M33,57a1,1,0,0,1-1-1V50a1,1,0,0,1,2,0v6A1,1,0,0,1,33,57Z" fill="#8257e5"/><path d="M53.561,18.572a1,1,0,0,0-.932-.1L44,21.923l-8.629-3.451A1,1,0,0,0,34,19.4V26a10,10,0,0,0,20,0V19.4A1,1,0,0,0,53.561,18.572Z" fill="#ffd2d2"/><path d="M59,25a1,1,0,0,1-1-1V12a1,1,0,0,1,2,0V24A1,1,0,0,1,59,25Z" fill="#8257e5"/><path d="M54,19.4V26c0,.34-.02.67-.05,1A5,5,0,0,1,49,22V19.92l3.63-1.45A1,1,0,0,1,54,19.4Z" fill="#393c47"/><path d="M39,19.92V22a5,5,0,0,1-4.95,5c-.03-.33-.05-.66-.05-1V19.4a1,1,0,0,1,1.37-.93Z" fill="#393c47"/><path d="M53.561,13.572a1,1,0,0,0-.932-.1L44,16.923l-8.629-3.451A1,1,0,0,0,34,14.4v5.677l9.629,3.851a1,1,0,0,0,.742,0L54,20.078V14.4A1,1,0,0,0,53.561,13.572Z" fill="#8257e5"/><path d="M59.371,11.071l-15-6a1,1,0,0,0-.742,0l-15,6a1,1,0,0,0,0,1.857l15,6a1,1,0,0,0,.742,0l15-6a1,1,0,0,0,0-1.857Z" fill="#bface9"/><path d="M43.485,46.857a1,1,0,0,0,1.029,0l13.318-7.99L50,37.191h0l-6,3.6-6-3.6h0l-7.833,1.675Z" fill="#8257e5"/><path d="M71.759,55.349A1,1,0,0,0,71,55H17a1,1,0,0,0-.988,1.152l4,26A1,1,0,0,0,21,83H67a1,1,0,0,0,.988-.848l4-26A1,1,0,0,0,71.759,55.349Z" fill="#e6ecff"/><circle cx="5" cy="5" r="5" transform="translate(39 64)" fill="#bface9"/><path d="M18.614,55H17a1,1,0,0,0-.988,1.152l4,26A1,1,0,0,0,21,83H67a1,1,0,0,0,.988-.848l.727-4.727C29.053,82.121,20.429,64.359,18.614,55Z" fill="#b7c6e2"/><path d="M72,83H16a1,1,0,0,1,0-2H72a1,1,0,0,1,0,2Z" fill="#8257e5"/><rect width="2" height="2" transform="translate(32 53)" fill="#2045ce"/><rect width="2" height="2" transform="translate(43 53)" fill="#1036af"/><rect width="2" height="2" transform="translate(54 53)" fill="#2045ce"/></g></svg>