<svg xmlns="http://www.w3.org/2000/svg" width="86.001" height="86" viewBox="0 0 86.001 86"><g transform="translate(-1 -1)"><path d="M86.676,40.263l-12-11A1,1,0,0,0,73,30V49.83a1,1,0,0,0,1.593.806l12-8.83a1,1,0,0,0,.083-1.543Z" fill="#8257e5"/><path d="M75,13,63,1H14a1,1,0,0,0-1,1V49.831a1,1,0,0,0,.407.8L28.447,61.7a1,1,0,0,0,1.273-.073L44,48.365,58.279,61.623a1,1,0,0,0,1.273.073l15.04-11.06A1,1,0,0,0,75,49.83Z" fill="#e6ecff"/><path d="M14.4,29.084a1,1,0,0,0-1.078.178l-12,11a1,1,0,0,0,.083,1.543l12,8.83A1,1,0,0,0,15,49.83V30a1,1,0,0,0-.6-.915Z" fill="#8257e5"/><path d="M5.427,44.764A39.3,39.3,0,0,1,5,39V36.893l-3.676,3.37a1,1,0,0,0,.083,1.543Z" fill="#6848b1"/><path d="M21,22.666V1H14a1,1,0,0,0-1,1V49.831a1,1,0,0,0,.407.8L28.447,61.7a1,1,0,0,0,1.273-.073L41.157,51A30.005,30.005,0,0,1,21,22.666Z" fill="#b7c6e2"/><path d="M71.834,52.665H51c-.838,0-1.666-.043-2.487-.111l9.768,9.069a1,1,0,0,0,1.273.073Z" fill="#b7c6e2"/><path d="M86.451,40.107a1.006,1.006,0,0,0-1.044.087l-26.373,19.4L44.681,46.267a1,1,0,0,0-1.361,0L28.966,59.594,2.593,40.194A1,1,0,0,0,1,41V86a1,1,0,0,0,1,1H86a1,1,0,0,0,1-1V41a1,1,0,0,0-.549-.893Z" fill="#bface9"/><circle cx="15" cy="15" r="15" transform="translate(29 10)" fill="#bface9"/><path d="M50.515,24.143l-10-6A1,1,0,0,0,39,19V31a1,1,0,0,0,1.515.857l10-6a1,1,0,0,0,0-1.715Z" fill="#8257e5"/><path d="M63,1V13H75Z" fill="#d0dbf7"/><path d="M44,78A38.993,38.993,0,0,1,5.131,42.067L2.593,40.194A1,1,0,0,0,1,41V86a1,1,0,0,0,1,1H86a1,1,0,0,0,1-1V78Z" fill="#8257e5"/><path d="M1,86a1,1,0,0,0,1,1H86a1,1,0,0,0,1-1v-.437l-42.319-39.3a1,1,0,0,0-1.361,0L1,85.564Z" fill="#8257e5"/><path d="M18.956,68.89,1,85.564V86a1,1,0,0,0,1,1H86a1,1,0,0,0,1-1v-.437L78.855,78H44a38.836,38.836,0,0,1-25.044-9.11Z" fill="#6848b1"/></g></svg>