<svg xmlns="http://www.w3.org/2000/svg" width="78" height="86" viewBox="0 0 78 86"><g transform="translate(-5 -1)"><path d="M57,68V64H5v8a4,4,0,0,0,4,4H57a4.035,4.035,0,0,1,0-8Z" fill="#d0dbf7"/><path d="M56,1H9A4,4,0,0,0,5,5V72a4,4,0,0,1,4-4H57V2A1,1,0,0,0,56,1Z" fill="#e6ecff"/><path d="M53.629,73a4.323,4.323,0,0,1,0-2H9a1,1,0,0,0,0,2Z" fill="#becced"/><path d="M9,1A4,4,0,0,0,5,5V72a4,4,0,0,1,4-4h3V1Z" fill="#bface9"/><path d="M58,21H50.5a1,1,0,0,0-.968,1.25,15.249,15.249,0,0,1,0,7.5A1,1,0,0,0,50.5,31H58a1,1,0,0,0,1-1V22A1,1,0,0,0,58,21Z" fill="#8257e5"/><path d="M49,49H19a1,1,0,0,1,0-2H49a1,1,0,0,1,0,2Z" fill="#bface9"/><path d="M41,55H19a1,1,0,0,1,0-2H41a1,1,0,0,1,0,2Z" fill="#bface9"/><path d="M41,61H19a1,1,0,0,1,0-2H41a1,1,0,0,1,0,2Z" fill="#bface9"/><path d="M49,55H45a1,1,0,0,1,0-2h4a1,1,0,0,1,0,2Z" fill="#bface9"/><path d="M49,61H45a1,1,0,0,1,0-2h4a1,1,0,0,1,0,2Z" fill="#bface9"/><path d="M76,19H58a1,1,0,0,0-1,1V32a1,1,0,0,0,1,1H76a7,7,0,0,0,0-14Z" fill="#bface9"/><path d="M41,71H27V86a1,1,0,0,0,1.64.769L34,82.3l5.36,4.467A1,1,0,0,0,41,86Z" fill="#bface9"/><circle cx="17" cy="17" r="17" transform="translate(18 9)" fill="#bface9"/><path d="M35,13A13,13,0,1,0,48,26,13,13,0,0,0,35,13Zm5.809,16.339a29.235,29.235,0,0,0,0-6.678C43.972,23.433,46,24.763,46,26S43.972,28.567,40.809,29.339ZM35,37c-1.237,0-2.567-2.028-3.339-5.191a29.233,29.233,0,0,0,6.678,0C37.567,34.972,36.237,37,35,37Zm0-7a26.326,26.326,0,0,1-3.736-.264,26.534,26.534,0,0,1,0-7.472,26.543,26.543,0,0,1,7.471,0,26.534,26.534,0,0,1,0,7.472A26.326,26.326,0,0,1,35,30ZM24,26c0-1.237,2.028-2.567,5.191-3.339a29.235,29.235,0,0,0,0,6.678C26.028,28.567,24,27.237,24,26ZM35,15c1.237,0,2.567,2.028,3.339,5.191a29.234,29.234,0,0,0-6.678,0C32.433,17.028,33.763,15,35,15Zm10.341,7.286a15.545,15.545,0,0,0-4.866-1.761,15.545,15.545,0,0,0-1.761-4.866A11.037,11.037,0,0,1,45.341,22.286ZM31.286,15.659a15.546,15.546,0,0,0-1.761,4.866,15.545,15.545,0,0,0-4.866,1.761,11.036,11.036,0,0,1,6.626-6.626ZM24.659,29.714a15.545,15.545,0,0,0,4.866,1.761,15.546,15.546,0,0,0,1.761,4.866,11.036,11.036,0,0,1-6.627-6.626Zm14.055,6.626a15.545,15.545,0,0,0,1.761-4.866,15.545,15.545,0,0,0,4.866-1.761,11.036,11.036,0,0,1-6.626,6.626Z" fill="#8257e5"/></g></svg>