<svg xmlns="http://www.w3.org/2000/svg" width="86" height="85" viewBox="0 0 86 85"><g transform="translate(-1 -1)"><circle cx="11" cy="11" r="11" transform="translate(33 56)" fill="#bface9"/><path d="M17.654,21.241a1,1,0,0,0-.482-.643l-4.34-2.45a1,1,0,0,0-1.324.316A38.673,38.673,0,0,0,5,40V53.44a1,1,0,0,0,1.217.976,1.659,1.659,0,0,1,.214-.036l4.71-.67A1,1,0,0,0,12,52.72V40a31.9,31.9,0,0,1,5.508-17.969,1,1,0,0,0,.146-.79Z" fill="#8257e5"/><path d="M76.492,18.465a1,1,0,0,0-1.323-.315l-4.34,2.45a1,1,0,0,0-.337,1.432A31.892,31.892,0,0,1,76,40V52.72a1,1,0,0,0,.859.99l4.753.675a1.449,1.449,0,0,1,.17.031A1,1,0,0,0,83,53.44V40a38.669,38.669,0,0,0-6.508-21.535Z" fill="#8257e5"/><path d="M81.849,52.4,72.142,51.01A1,1,0,0,0,71,52V82a1,1,0,0,0,1,1,.976.976,0,0,0,.142-.01L81.849,81.6A6.029,6.029,0,0,0,87,75.664V58.336A6.029,6.029,0,0,0,81.849,52.4Z" fill="#bface9"/><path d="M64.641,54.232a.992.992,0,0,0-.821-.215l-6,1.1A1,1,0,0,0,57,56.1V77.9a1,1,0,0,0,.819.983l6,1.1A1,1,0,0,0,65,79V55a1,1,0,0,0-.36-.768Z" fill="#bface9"/><rect width="10" height="38" rx="1" transform="translate(63 48)" fill="#8257e5"/><path d="M16.655,51.245a.99.99,0,0,0-.8-.234L6.151,52.4A6.029,6.029,0,0,0,1,58.336V75.664A6.029,6.029,0,0,0,6.151,81.6l9.707,1.387A.985.985,0,0,0,16,83a1,1,0,0,0,1-1V52a1,1,0,0,0-.345-.755Z" fill="#bface9"/><path d="M30.18,55.117l-6-1.1A1,1,0,0,0,23,55V79a1,1,0,0,0,1,1,.976.976,0,0,0,.18-.017l6-1.1A1,1,0,0,0,31,77.9V56.1a1,1,0,0,0-.82-.983Z" fill="#bface9"/><rect width="10" height="38" rx="1" transform="translate(15 48)" fill="#8257e5"/><path d="M48.5,66.132l-7-4A1,1,0,0,0,40,63v8a1,1,0,0,0,1.5.868l7-4a1,1,0,0,0,0-1.736Z" fill="#8257e5"/><path d="M76.493,18.467a38.957,38.957,0,0,0-64.986,0,1,1,0,0,0,.341,1.424l8.739,4.939a1,1,0,0,0,1.313-.3,26.942,26.942,0,0,1,44.2,0,1,1,0,0,0,1.312.3l8.739-4.94a1,1,0,0,0,.342-1.424Z" fill="#bface9"/></g></svg>