<svg xmlns="http://www.w3.org/2000/svg" width="84" height="86" viewBox="0 0 84 86"><g transform="translate(-2 -1)"><rect width="74" height="31" rx="1" transform="translate(7 6)" fill="#8257e5"/><path d="M80,6H44V37H80a1,1,0,0,0,1-1V7A1,1,0,0,0,80,6Z" fill="#6848b1"/><path d="M66,29H58a1,1,0,0,0-1,1V43a1,1,0,0,0,1.707.707L62,40.414l3.293,3.293A1,1,0,0,0,67,43V30A1,1,0,0,0,66,29Z" fill="#bface9"/><path d="M44,52a1,1,0,0,1-1-1V47a2,2,0,0,0-2-2H23a4,4,0,0,1-4-4V30a1,1,0,0,1,2,0V41a2,2,0,0,0,2,2H41a4,4,0,0,1,4,4v4A1,1,0,0,1,44,52Z" fill="#6848b1"/><path d="M38,1H13a1,1,0,0,0-1,1V30a1,1,0,0,0,1,1H38a6,6,0,0,1,6,6V7A6,6,0,0,0,38,1Z" fill="#bface9"/><path d="M75,1H50a6,6,0,0,0-6,6V37a6,6,0,0,1,6-6H75a1,1,0,0,0,1-1V2A1,1,0,0,0,75,1Z" fill="#8257e5"/><path d="M25,23H17a1,1,0,0,1,0-2h8a1,1,0,0,1,0,2Z" fill="#8257e5"/><path d="M31,19H17a1,1,0,0,1,0-2H31a1,1,0,0,1,0,2Z" fill="#8257e5"/><path d="M39,15H17a1,1,0,0,1,0-2H39a1,1,0,0,1,0,2Z" fill="#8257e5"/><path d="M28,11H17a1,1,0,0,1,0-2H28a1,1,0,0,1,0,2Z" fill="#8257e5"/><path d="M32,7H17a1,1,0,0,1,0-2H32a1,1,0,0,1,0,2Z" fill="#8257e5"/><path d="M32,27H17a1,1,0,0,1,0-2H32a1,1,0,0,1,0,2Z" fill="#8257e5"/><path d="M63,23H49a1,1,0,0,1,0-2H63a1,1,0,0,1,0,2Z" fill="#6848b1"/><path d="M63,19H49a1,1,0,0,1,0-2H63a1,1,0,0,1,0,2Z" fill="#6848b1"/><path d="M58,15H49a1,1,0,0,1,0-2h9a1,1,0,0,1,0,2Z" fill="#6848b1"/><path d="M67,11H49a1,1,0,0,1,0-2H67a1,1,0,0,1,0,2Z" fill="#6848b1"/><path d="M62,7H49a1,1,0,0,1,0-2H62a1,1,0,0,1,0,2Z" fill="#6848b1"/><path d="M66,27H49a1,1,0,0,1,0-2H66a1,1,0,0,1,0,2Z" fill="#6848b1"/><path d="M71,7H66a1,1,0,0,1,0-2h5a1,1,0,0,1,0,2Z" fill="#6848b1"/><path d="M71,23H67a1,1,0,0,1,0-2h4a1,1,0,0,1,0,2Z" fill="#6848b1"/><path d="M71,15H62a1,1,0,0,1,0-2h9a1,1,0,0,1,0,2Z" fill="#6848b1"/><rect width="84" height="37" rx="5" transform="translate(2 50)" fill="#e6ecff"/><rect width="18" height="6" rx="1" transform="translate(35 77)" fill="#bface9"/><rect width="6" height="6" rx="1" transform="translate(54 77)" fill="#bface9"/><rect width="6" height="6" rx="1" transform="translate(61 77)" fill="#bface9"/><rect width="6" height="6" rx="1" transform="translate(68 77)" fill="#bface9"/><rect width="7" height="6" rx="1" transform="translate(75 77)" fill="#bface9"/><rect width="6" height="6" rx="1" transform="translate(41 70)" fill="#bface9"/><rect width="6" height="6" rx="1" transform="translate(41 63)" fill="#bface9"/><rect width="6" height="6" rx="1" transform="translate(48 63)" fill="#bface9"/><rect width="6" height="6" rx="1" transform="translate(55 63)" fill="#bface9"/><rect width="6" height="6" rx="1" transform="translate(62 63)" fill="#bface9"/><rect width="6" height="6" rx="1" transform="translate(69 63)" fill="#bface9"/><rect width="6" height="6" rx="1" transform="translate(76 63)" fill="#bface9"/><rect width="6" height="6" rx="1" transform="translate(34 63)" fill="#bface9"/><rect width="6" height="6" rx="1" transform="translate(27 63)" fill="#bface9"/><rect width="6" height="6" rx="1" transform="translate(20 63)" fill="#bface9"/><rect width="6" height="6" rx="1" transform="translate(13 63)" fill="#bface9"/><rect width="6" height="6" rx="1" transform="translate(6 63)" fill="#bface9"/><rect width="6" height="6" rx="1" transform="translate(6 54)" fill="#bface9"/><rect width="6" height="6" rx="1" transform="translate(13 54)" fill="#bface9"/><rect width="6" height="6" rx="1" transform="translate(20 54)" fill="#bface9"/><rect width="6" height="6" rx="1" transform="translate(27 54)" fill="#bface9"/><rect width="6" height="6" rx="1" transform="translate(34 54)" fill="#bface9"/><rect width="6" height="6" rx="1" transform="translate(41 54)" fill="#bface9"/><rect width="6" height="6" rx="1" transform="translate(48 54)" fill="#bface9"/><rect width="6" height="6" rx="1" transform="translate(55 54)" fill="#bface9"/><rect width="6" height="6" rx="1" transform="translate(62 54)" fill="#bface9"/><rect width="6" height="6" rx="1" transform="translate(69 54)" fill="#bface9"/><rect width="6" height="6" rx="1" transform="translate(76 54)" fill="#bface9"/><rect width="6" height="6" rx="1" transform="translate(34 70)" fill="#bface9"/><rect width="6" height="6" rx="1" transform="translate(27 70)" fill="#bface9"/><rect width="6" height="6" rx="1" transform="translate(20 70)" fill="#bface9"/><rect width="13" height="6" rx="1" transform="translate(6 70)" fill="#bface9"/><rect width="6" height="6" rx="1" transform="translate(48 70)" fill="#bface9"/><rect width="6" height="6" rx="1" transform="translate(55 70)" fill="#bface9"/><rect width="6" height="6" rx="1" transform="translate(62 70)" fill="#bface9"/><rect width="13" height="6" rx="1" transform="translate(69 70)" fill="#bface9"/><rect width="6" height="6" rx="1" transform="translate(14 77)" fill="#bface9"/><rect width="7" height="6" rx="1" transform="translate(6 77)" fill="#bface9"/><rect width="6" height="6" rx="1" transform="translate(21 77)" fill="#bface9"/><rect width="6" height="6" rx="1" transform="translate(28 77)" fill="#bface9"/><path d="M39,7H36a1,1,0,0,1,0-2h3a1,1,0,0,1,0,2Z" fill="#8257e5"/><path d="M39,27H36a1,1,0,0,1,0-2h3a1,1,0,0,1,0,2Z" fill="#8257e5"/><path d="M36,11H32a1,1,0,0,1,0-2h4a1,1,0,0,1,0,2Z" fill="#8257e5"/><path d="M33,23H29a1,1,0,0,1,0-2h4a1,1,0,0,1,0,2Z" fill="#8257e5"/></g></svg>