<svg xmlns="http://www.w3.org/2000/svg" width="86" height="66" viewBox="0 0 86 66"><g transform="translate(-1 -11)"><path d="M76,23H12a4,4,0,0,0-4,4V71a1,1,0,0,0,1,1H79a1,1,0,0,0,1-1V27a4,4,0,0,0-4-4Z" fill="#e6ecff"/><path d="M60.43,72H9a1,1,0,0,1-1-1V27a4,4,0,0,1,4-4h3.32A56.011,56.011,0,0,0,60.43,72Z" fill="#b7c6e2"/><rect width="64" height="36" rx="1" transform="translate(12 27)" fill="#d0dbf7"/><path d="M39.07,63H13a1,1,0,0,1-1-1V28a1,1,0,0,1,1-1h2.89A55.951,55.951,0,0,0,39.07,63Z" fill="#8ea6ce"/><path d="M61,40V11H31a4,4,0,0,0-4,4V63H61V56l-4,3V50.46A5.992,5.992,0,0,1,61,40Z" fill="#bface9"/><path d="M39.07,63H27V51.65A56.549,56.549,0,0,0,39.07,63Z" fill="#8257e5"/><path d="M65,11H31a4,4,0,0,1,4,4v1a1,1,0,0,0,1,1H68a1,1,0,0,0,1-1V15A4,4,0,0,0,65,11Z" fill="#8257e5"/><path d="M49.545,27.941a1,1,0,0,0-.95-.076L44,29.906l-4.594-2.04A1,1,0,0,0,38,28.78v4a1,1,0,0,0,.594.914l5,2.22a1,1,0,0,0,.812,0l5-2.22A1,1,0,0,0,50,32.78v-4A1,1,0,0,0,49.545,27.941Z" fill="#6848b1"/><path d="M53,36a1,1,0,0,1-1-1V27a1,1,0,0,1,2,0v8A1,1,0,0,1,53,36Z" fill="#6848b1"/><path d="M51,40H32a1,1,0,0,1,0-2H51a1,1,0,0,1,0,2Z" fill="#8257e5"/><path d="M46,44H32a1,1,0,0,1,0-2H46a1,1,0,0,1,0,2Z" fill="#8257e5"/><path d="M40,48H32a1,1,0,0,1,0-2h8a1,1,0,0,1,0,2Z" fill="#8257e5"/><path d="M51,52H32a1,1,0,0,1,0-2H51a1,1,0,0,1,0,2Z" fill="#8257e5"/><path d="M44,56H32a1,1,0,0,1,0-2H44a1,1,0,0,1,0,2Z" fill="#8257e5"/><path d="M65.405,49.546a1,1,0,0,0-1.077.173,5.089,5.089,0,0,1-6.656,0A1,1,0,0,0,56,50.46V59a1,1,0,0,0,1.6.8L61,57.25l3.4,2.55A1,1,0,0,0,66,59V50.46a1,1,0,0,0-.595-.914Z" fill="#6848b1"/><circle cx="7" cy="7" r="7" transform="translate(54 39)" fill="#8257e5"/><circle cx="4" cy="4" r="4" transform="translate(57 42)" fill="#6848b1"/><path d="M53.406,26.086l-9-4a1,1,0,0,0-.812,0l-9,4a1,1,0,0,0,0,1.827l9,4a1,1,0,0,0,.813,0l9-4a1,1,0,0,0,0-1.827Z" fill="#8257e5"/><path d="M86,67H64a1,1,0,0,0-.832.445L61.465,70H26.535l-1.7-2.555A1,1,0,0,0,24,67H2a1,1,0,0,0-1,1v4a5.006,5.006,0,0,0,5,5H82a5.006,5.006,0,0,0,5-5V68A1,1,0,0,0,86,67Z" fill="#bface9"/><path d="M86.9,73A5,5,0,0,1,82,77H6a5,5,0,0,1-5-5V68a1,1,0,0,1,1-1H24a1,1,0,0,1,.83.45L26.54,70H52.87A56.093,56.093,0,0,0,71,73Z" fill="#8257e5"/><path d="M49,60H32a1,1,0,0,1,0-2H49a1,1,0,0,1,0,2Z" fill="#8257e5"/><path d="M35.13,60H32a1,1,0,0,1,0-2h.86C33.59,58.69,34.35,59.36,35.13,60Z" fill="#2045ce"/></g></svg>