<svg xmlns="http://www.w3.org/2000/svg" width="86" height="68" viewBox="0 0 86 68"><g transform="translate(-1 -10)"><path d="M76,22H12a4,4,0,0,0-4,4V74a1,1,0,0,0,1,1H79a1,1,0,0,0,1-1V26A4,4,0,0,0,76,22Z" fill="#e6ecff"/><rect width="64" height="38" rx="1" transform="translate(12 26)" fill="#d0dbf7"/><path d="M86,68H64a1,1,0,0,0-.832.445L61.465,71H26.535l-1.7-2.555A1,1,0,0,0,24,68H2a1,1,0,0,0-1,1v4a5.006,5.006,0,0,0,5,5H82a5.006,5.006,0,0,0,5-5V69A1,1,0,0,0,86,68Z" fill="#bface9"/><path d="M80,74a1,1,0,0,1-1,1H9a1,1,0,0,1-1-1V26a4,4,0,0,1,4-4h5v9.19A42.813,42.813,0,0,0,59.806,74Z" fill="#b7c6e2"/><path d="M32.32,64H13a1,1,0,0,1-1-1V27a1,1,0,0,1,1-1h4v5.19A42.694,42.694,0,0,0,32.32,64Z" fill="#8ea6ce"/><path d="M86.9,74A5,5,0,0,1,82,78H6a5,5,0,0,1-5-5V69a1,1,0,0,1,1-1H24a1,1,0,0,1,.83.45L26.54,71h17.5a42.587,42.587,0,0,0,15.77,3Z" fill="#8257e5"/><path d="M63,10H33l-9,9V64H64V11A1,1,0,0,0,63,10Z" fill="#bface9"/><path d="M33,10v9H24Z" fill="#8257e5"/><path d="M24,54.626V64h8.32A42.975,42.975,0,0,1,24,54.626Z" fill="#8257e5"/><path d="M58,44H30a1,1,0,0,1,0-2H58a1,1,0,0,1,0,2Z" fill="#8257e5"/><path d="M51,49H30a1,1,0,0,1,0-2H51a1,1,0,0,1,0,2Z" fill="#8257e5"/><path d="M51,54H30a1,1,0,0,1,0-2H51a1,1,0,0,1,0,2Z" fill="#8257e5"/><path d="M51,59H30a1,1,0,0,1,0-2H51a1,1,0,0,1,0,2Z" fill="#8257e5"/><circle cx="11" cy="11" r="11" transform="translate(33 17)" fill="#6848b1"/><path d="M49.53,27.152l-8-5A1,1,0,0,0,40,23V33a1,1,0,0,0,1.53.848l8-5a1,1,0,0,0,0-1.7Z" fill="#8257e5"/><path d="M58,49H55a1,1,0,0,1,0-2h3a1,1,0,0,1,0,2Z" fill="#8257e5"/><path d="M58,54H55a1,1,0,0,1,0-2h3a1,1,0,0,1,0,2Z" fill="#8257e5"/><path d="M58,59H55a1,1,0,0,1,0-2h3a1,1,0,0,1,0,2Z" fill="#8257e5"/></g></svg>