<svg xmlns="http://www.w3.org/2000/svg" width="86" height="62" viewBox="0 0 86 62"><g transform="translate(-1 -13)"><path d="M78,13H10a4,4,0,0,0-4,4V71a1,1,0,0,0,1,1H81a1,1,0,0,0,1-1V17A4,4,0,0,0,78,13Z" fill="#e6ecff"/><rect width="68" height="44" rx="1" transform="translate(10 17)" fill="#d0dbf7"/><path d="M82,71a1,1,0,0,1-1,1H7a1,1,0,0,1-1-1V17a4,4,0,0,1,4-4h7V28.19A42.813,42.813,0,0,0,59.806,71Z" fill="#b7c6e2"/><path d="M86,65H65a1,1,0,0,0-.832.445L62.465,68H25.535l-1.7-2.555A1,1,0,0,0,23,65H2a1,1,0,0,0-1,1v4a5.006,5.006,0,0,0,5,5H82a5.006,5.006,0,0,0,5-5V66A1,1,0,0,0,86,65Z" fill="#bface9"/><path d="M86.9,71A5,5,0,0,1,82,75H6a5,5,0,0,1-5-5V66a1,1,0,0,1,1-1H23a1,1,0,0,1,.83.45L25.54,68h18.5a42.587,42.587,0,0,0,15.77,3Z" fill="#8257e5"/><path d="M32.32,61H11a1,1,0,0,1-1-1V18a1,1,0,0,1,1-1h6V28.19A42.694,42.694,0,0,0,32.32,61Z" fill="#8ea6ce"/><path d="M55,33.875a1,1,0,0,1-1-1V26a1,1,0,0,1,2,0v6.875A1,1,0,0,1,55,33.875Z" fill="#8257e5"/><path d="M55.15,47.178,49,46.153V41.74a1,1,0,0,0-1.578-.816,6.072,6.072,0,0,1-6.844,0A1,1,0,0,0,39,41.74v4.413l-6.151,1.024A7,7,0,0,0,27,54.081V61H61V54.083a7,7,0,0,0-5.85-6.905Z" fill="#bface9"/><path d="M49,41.74v4.413l-5,3.6L39,46.2V41.74a1.008,1.008,0,0,1,.54-.89,1.023,1.023,0,0,1,1.04.07,6.059,6.059,0,0,0,6.84,0,1.023,1.023,0,0,1,1.04-.07A1.009,1.009,0,0,1,49,41.74Z" fill="#edb7b7"/><path d="M51.574,30.631a1,1,0,0,0-.916-.12L44,32.936l-6.659-2.425A1,1,0,0,0,36,31.45V36a8,8,0,0,0,16,0V31.45a1,1,0,0,0-.426-.819Z" fill="#ffd2d2"/><path d="M35,55h0a1,1,0,0,1,1,1v5H34V56A1,1,0,0,1,35,55Z" fill="#8257e5"/><path d="M53,55h0a1,1,0,0,1,1,1v5H52V56A1,1,0,0,1,53,55Z" fill="#8257e5"/><rect width="2" height="6" transform="translate(43 55)" fill="#6848b1"/><path d="M32.123,47.342,43.4,55.8a1,1,0,0,0,1.2,0l11.276-8.458a7.123,7.123,0,0,0-.726-.164L49,46.153h0l-5,3.6-5-3.6h0l-6.151,1.024a7.137,7.137,0,0,0-.726.164Z" fill="#8257e5"/><path d="M52,31.45V36a8.1,8.1,0,0,1-.25,1.99A3.918,3.918,0,0,1,48,34.08v-2.6l2.66-.97a.985.985,0,0,1,.91.12A1,1,0,0,1,52,31.45Z" fill="#393c47"/><path d="M40,31.48v2.6a3.918,3.918,0,0,1-3.75,3.91A8.1,8.1,0,0,1,36,36V31.45a1,1,0,0,1,.43-.82.985.985,0,0,1,.91-.12Z" fill="#393c47"/><path d="M51.573,26.631a1.009,1.009,0,0,0-.917-.12L44,28.936l-6.658-2.425A1,1,0,0,0,36,27.45v4.7h0l7.658,2.79a1,1,0,0,0,.685,0L52,32.15v-4.7a1,1,0,0,0-.427-.819Z" fill="#8257e5"/><path d="M55.342,25.06l-11-4a1,1,0,0,0-.684,0l-11,4a1,1,0,0,0,0,1.879l11,4a1,1,0,0,0,.684,0l11-4a1,1,0,0,0,0-1.879Z" fill="#bface9"/><path d="M27,55.677V61h5.323A43.066,43.066,0,0,1,27,55.677Z" fill="#8257e5"/></g></svg>