<svg xmlns="http://www.w3.org/2000/svg" width="64" height="85.863" viewBox="0 0 64 85.863"><g transform="translate(-12 -1)"><path d="M50,36V50.49l-.59-.05L44,47.14l-5.41,3.3-.59.05V36Z" fill="#8257e5"/><path d="M64,1,38,38H50L76,1Z" fill="#8257e5"/><path d="M24,1,50,38H38L12,1Z" fill="#bface9"/><path d="M62.545,66l1.427-5.9a1,1,0,0,0-.324-1L59,55.157l-2.337-5.612a1,1,0,0,0-.845-.612l-6.09-.475-5.209-3.175a1,1,0,0,0-1.041,0l-5.209,3.175-6.091.475a1,1,0,0,0-.845.612L29,55.157,24.353,59.1a1,1,0,0,0-.324,1L25.455,66l-1.427,5.9a1,1,0,0,0,.324,1L29,76.843l2.337,5.612a1,1,0,0,0,.845.612l6.091.475,5.209,3.175a1,1,0,0,0,1.041,0l5.209-3.175,6.091-.475a1,1,0,0,0,.845-.612L59,76.843,63.648,72.9a1,1,0,0,0,.324-1Z" fill="#e6ecff"/><path d="M24,1H64L58.38,9H29.62Z" fill="#6848b1"/><path d="M56.665,82.455,59,76.843l3-2.549C44.538,72.542,34.992,62.505,29.835,53.147L29,55.157,24.353,59.1a1,1,0,0,0-.324,1L25.455,66l-1.427,5.9a1,1,0,0,0,.324,1L29,76.843l2.337,5.612a1,1,0,0,0,.845.612l6.091.475,5.209,3.175a1,1,0,0,0,1.041,0l5.209-3.175,6.091-.475a1,1,0,0,0,.844-.612Z" fill="#b7c6e2"/><path d="M44,52A14,14,0,1,0,58,66,14,14,0,0,0,44,52Zm6.813,17.234a28,28,0,0,0,0-6.469C54.117,63.591,56,64.93,56,66S54.117,68.409,50.813,69.234ZM44,78c-1.656,0-3.44-2.42-4.364-6.3a32.391,32.391,0,0,0,8.728,0C47.44,75.58,45.656,78,44,78Zm0-8a30.907,30.907,0,0,1-4.751-.353,26.889,26.889,0,0,1,0-7.294,32.173,32.173,0,0,1,9.5,0,26.889,26.889,0,0,1,0,7.294A30.905,30.905,0,0,1,44,70ZM32,66c0-1.07,1.883-2.409,5.187-3.234a28,28,0,0,0,0,6.469C33.883,68.409,32,67.07,32,66ZM44,54c1.656,0,3.44,2.42,4.364,6.3a32.391,32.391,0,0,0-8.728,0C40.56,56.42,42.344,54,44,54Zm11.465,8.457a16.729,16.729,0,0,0-4.978-1.8,16.542,16.542,0,0,0-2.263-5.877A12.046,12.046,0,0,1,55.465,62.457ZM39.776,54.782a16.542,16.542,0,0,0-2.263,5.877,16.729,16.729,0,0,0-4.978,1.8,12.046,12.046,0,0,1,7.241-7.675ZM32.535,69.543a16.729,16.729,0,0,0,4.979,1.8,16.541,16.541,0,0,0,2.263,5.878A12.046,12.046,0,0,1,32.535,69.543Zm15.689,7.675a16.541,16.541,0,0,0,2.263-5.877,16.729,16.729,0,0,0,4.978-1.8A12.046,12.046,0,0,1,48.224,77.218Z" fill="#bface9"/><path d="M55.932,73.285c-.7-.163-1.381-.336-2.047-.527a12.068,12.068,0,0,1-5.661,4.46,16.356,16.356,0,0,0,2.2-5.622,38.894,38.894,0,0,1-3.8-1.7c-.828.067-1.7.105-2.622.105a30.907,30.907,0,0,1-4.751-.353A26.344,26.344,0,0,1,39,66c0-.432.024-.843.043-1.258q-.979-.855-1.875-1.751a27.546,27.546,0,0,0,.02,6.244C33.883,68.409,32,67.07,32,66c0-1.048,1.816-2.351,5-3.18q-.789-.8-1.514-1.619a14,14,0,0,0-2.946,1.256,11.864,11.864,0,0,1,1.458-3.032q-.663-.837-1.269-1.687A13.981,13.981,0,1,0,55.932,73.285Zm-23.4-3.743a16.729,16.729,0,0,0,4.979,1.8,16.541,16.541,0,0,0,2.263,5.878A12.046,12.046,0,0,1,32.535,69.543ZM44,78c-1.656,0-3.44-2.42-4.364-6.3a32.391,32.391,0,0,0,8.728,0C47.44,75.58,45.656,78,44,78Z" fill="#8257e5"/></g></svg>