<svg xmlns="http://www.w3.org/2000/svg" width="82" height="86" viewBox="0 0 82 86"><g transform="translate(-3 -1)"><rect width="78" height="39" rx="1" transform="translate(3 6)" fill="#8257e5"/><path d="M80,6H42V45H80a1,1,0,0,0,1-1V7A1,1,0,0,0,80,6Z" fill="#6848b1"/><path d="M49.5,75A7.508,7.508,0,0,1,42,67.5V38a1,1,0,0,1,2,0V67.5a5.5,5.5,0,0,0,11,0V55a4,4,0,0,1,4-4H72a4,4,0,0,1,4,4v3a1,1,0,0,1-2,0V55a2,2,0,0,0-2-2H59a2,2,0,0,0-2,2V67.5A7.508,7.508,0,0,1,49.5,75Z" fill="#bface9"/><path d="M29,35H19a1,1,0,0,0-1,1V54a1,1,0,0,0,1.625.781L24,51.281l4.375,3.5A1,1,0,0,0,30,54V36A1,1,0,0,0,29,35Z" fill="#6848b1"/><rect width="8" height="6" rx="1" transform="translate(71 57)" fill="#e6ecff"/><path d="M74,1H48a6,6,0,0,0-6,6V45a6,6,0,0,1,6-6H74a1,1,0,0,0,1-1V2A1,1,0,0,0,74,1Z" fill="#8257e5"/><path d="M36,1H10A1,1,0,0,0,9,2V38a1,1,0,0,0,1,1H36a6,6,0,0,1,6,6V7A6,6,0,0,0,36,1Z" fill="#bface9"/><circle cx="9" cy="9" r="9" transform="translate(17 5)" fill="#8257e5"/><path d="M29.515,13.143l-5-3A1,1,0,0,0,23,11v6a1,1,0,0,0,1.515.857l5-3a1,1,0,0,0,0-1.715Z" fill="#6848b1"/><path d="M37,27H15a1,1,0,0,1,0-2H37a1,1,0,0,1,0,2Z" fill="#8257e5"/><path d="M28,31H15a1,1,0,0,1,0-2H28a1,1,0,0,1,0,2Z" fill="#8257e5"/><path d="M28,35H15a1,1,0,0,1,0-2H28a1,1,0,0,1,0,2Z" fill="#8257e5"/><path d="M61,27H47a1,1,0,0,1,0-2H61a1,1,0,0,1,0,2Z" fill="#6848b1"/><path d="M61,23H47a1,1,0,0,1,0-2H61a1,1,0,0,1,0,2Z" fill="#6848b1"/><path d="M56,19H47a1,1,0,0,1,0-2h9a1,1,0,0,1,0,2Z" fill="#6848b1"/><path d="M65,15H47a1,1,0,0,1,0-2H65a1,1,0,0,1,0,2Z" fill="#6848b1"/><path d="M60,11H47a1,1,0,0,1,0-2H60a1,1,0,0,1,0,2Z" fill="#6848b1"/><path d="M69,7H47a1,1,0,0,1,0-2H69a1,1,0,0,1,0,2Z" fill="#6848b1"/><path d="M64,31H47a1,1,0,0,1,0-2H64a1,1,0,0,1,0,2Z" fill="#6848b1"/><path d="M57,35H47a1,1,0,0,1,0-2H57a1,1,0,0,1,0,2Z" fill="#6848b1"/><path d="M69,11H64a1,1,0,0,1,0-2h5a1,1,0,0,1,0,2Z" fill="#6848b1"/><path d="M69,27H65a1,1,0,0,1,0-2h4a1,1,0,0,1,0,2Z" fill="#6848b1"/><path d="M69,35H61a1,1,0,0,1,0-2h8a1,1,0,0,1,0,2Z" fill="#6848b1"/><path d="M69,19H60a1,1,0,0,1,0-2h9a1,1,0,0,1,0,2Z" fill="#6848b1"/><path d="M78,61H72a7.008,7.008,0,0,0-7,7v9a10,10,0,0,0,20,0V68A7.008,7.008,0,0,0,78,61Z" fill="#8257e5"/><path d="M75,71a1,1,0,0,1-1-1V67a1,1,0,0,1,2,0v3A1,1,0,0,1,75,71Z" fill="#6848b1"/></g></svg>