<svg xmlns="http://www.w3.org/2000/svg" width="86" height="78" viewBox="0 0 86 78"><g transform="translate(-1 -5)"><rect width="86" height="78" rx="6" transform="translate(1 5)" fill="#e6ecff"/><path d="M87,77a6,6,0,0,1-6,6H7a6,6,0,0,1-6-6V11A6,6,0,0,1,7,5h9V45.06A31.94,31.94,0,0,0,47.94,77Z" fill="#b7c6e2"/><path d="M81,5H7a6,6,0,0,0-6,6V21H25a7.011,7.011,0,0,0,6.929-6H87V11A6,6,0,0,0,81,5Z" fill="#8257e5"/><path d="M16,5V21H1V11A6,6,0,0,1,7,5Z" fill="#6848b1"/><rect width="68" height="43" rx="1" transform="translate(10 24)" fill="#d0dbf7"/><circle cx="3" cy="3" r="3" transform="translate(5 11)" fill="#8257e5"/><circle cx="3" cy="3" r="3" transform="translate(21 11)" fill="#6848b1"/><path d="M80,11H39a1,1,0,0,1,0-2H80a1,1,0,0,1,0,2Z" fill="#6848b1"/><path d="M77,72H11a1,1,0,0,1,0-2H77a1,1,0,0,1,0,2Z" fill="#8257e5"/><path d="M57,74a1,1,0,0,1-1-1V69a1,1,0,0,1,2,0v4A1,1,0,0,1,57,74Z" fill="#bface9"/><path d="M12,80a1,1,0,0,1-1-1V75a1,1,0,0,1,2,0v4A1,1,0,0,1,12,80Z" fill="#8257e5"/><path d="M16,80a1,1,0,0,1-1-1V75a1,1,0,0,1,2,0v4A1,1,0,0,1,16,80Z" fill="#8257e5"/><path d="M27,80a1,1,0,0,1-1-1V75a1,1,0,0,1,2,0v4A1,1,0,0,1,27,80Z" fill="#8257e5"/><path d="M22,80a1,1,0,0,1-.707-1.707L22.586,77l-1.293-1.293a1,1,0,1,1,1.414-1.414l2,2a1,1,0,0,1,0,1.414l-2,2A1,1,0,0,1,22,80Z" fill="#8257e5"/><path d="M54.981,55.376,49,54.18V49.74a1,1,0,0,0-1.578-.816,6.073,6.073,0,0,1-6.845,0A1,1,0,0,0,39,49.74v4.44l-5.981,1.2A5,5,0,0,0,29,60.279V67H59V60.279a5,5,0,0,0-4.019-4.9Z" fill="#bface9"/><path d="M49,49.741v4.44l-5,3.75-5-3.75v-4.44a1.008,1.008,0,0,1,.54-.89,1.023,1.023,0,0,1,1.04.07,6.059,6.059,0,0,0,6.84,0,1.023,1.023,0,0,1,1.04-.07,1.009,1.009,0,0,1,.54.89Z" fill="#edb7b7"/><path d="M45,62v5H43V62a1,1,0,0,1,2,0Z" fill="#6848b1"/><path d="M53,63v4H51V63a1,1,0,0,1,2,0Z" fill="#8257e5"/><path d="M37,63v4H35V63a1,1,0,0,1,2,0Z" fill="#8257e5"/><path d="M51.574,37.631a1,1,0,0,0-.915-.121L44,39.936,37.341,37.51A1,1,0,0,0,36,38.45V44a8,8,0,0,0,16,0V38.45A1,1,0,0,0,51.574,37.631Z" fill="#ffd2d2"/><path d="M52,38.45V44a8.262,8.262,0,0,1-.06,1A4,4,0,0,1,48,41V38.48l2.66-.97a.985.985,0,0,1,.91.12,1,1,0,0,1,.43.82Z" fill="#393c47"/><path d="M40,38.48V41a4,4,0,0,1-3.94,4A8.263,8.263,0,0,1,36,44V38.45a1,1,0,0,1,.43-.82.985.985,0,0,1,.91-.12Z" fill="#393c47"/><path d="M55,39.875a1,1,0,0,1-1-1V33a1,1,0,0,1,2,0v5.875A1,1,0,0,1,55,39.875Z" fill="#8257e5"/><path d="M51.573,33.63a1,1,0,0,0-.917-.119L44,35.936l-6.658-2.425A1,1,0,0,0,36,34.45v4.7l7.658,2.79a1,1,0,0,0,.685,0L52,39.15v-4.7a1,1,0,0,0-.427-.82Z" fill="#8257e5"/><path d="M55.342,32.06l-11-4a1,1,0,0,0-.684,0l-11,4a1,1,0,0,0,0,1.88l11,4a1,1,0,0,0,.684,0l11-4a1,1,0,0,0,0-1.88Z" fill="#bface9"/><path d="M32.408,55.556,43.4,63.8a1,1,0,0,0,1.2,0l10.992-8.244a4.983,4.983,0,0,0-.612-.179L49,54.18h0l-5,3.75-5-3.75h0l-5.981,1.2a4.984,4.984,0,0,0-.612.179Z" fill="#8257e5"/><path d="M24.74,67H11a1,1,0,0,1-1-1V25a1,1,0,0,1,1-1h5V45.06A31.832,31.832,0,0,0,24.74,67Z" fill="#8ea6ce"/><path d="M30.79,72H11a1,1,0,0,1,0-2H28.01a30.058,30.058,0,0,0,2.78,2Z" fill="#8257e5"/><circle cx="3" cy="3" r="3" transform="translate(13 11)" fill="#6848b1"/><path d="M16,11v6a3,3,0,1,1,0-6Z" fill="#8257e5"/></g></svg>