<svg xmlns="http://www.w3.org/2000/svg" width="86" height="68" viewBox="0 0 86 68"><g transform="translate(-1 -10)"><path d="M76,22H12a4,4,0,0,0-4,4V74a1,1,0,0,0,1,1H79a1,1,0,0,0,1-1V26A4,4,0,0,0,76,22Z" fill="#e6ecff"/><rect width="64" height="38" rx="1" transform="translate(12 26)" fill="#d0dbf7"/><path d="M86,68H64a1,1,0,0,0-.832.445L61.465,71H26.535l-1.7-2.555A1,1,0,0,0,24,68H2a1,1,0,0,0-1,1v4a5.006,5.006,0,0,0,5,5H82a5.006,5.006,0,0,0,5-5V69A1,1,0,0,0,86,68Z" fill="#bface9"/><path d="M80,74a1,1,0,0,1-1,1H9a1,1,0,0,1-1-1V26a4,4,0,0,1,4-4h5v9.19A42.813,42.813,0,0,0,59.806,74Z" fill="#b7c6e2"/><path d="M32.32,64H13a1,1,0,0,1-1-1V27a1,1,0,0,1,1-1h4v5.19A42.694,42.694,0,0,0,32.32,64Z" fill="#8ea6ce"/><path d="M86.9,74A5,5,0,0,1,82,78H6a5,5,0,0,1-5-5V69a1,1,0,0,1,1-1H24a1,1,0,0,1,.83.45L26.54,71h17.5a42.587,42.587,0,0,0,15.77,3Z" fill="#8257e5"/><path d="M28,35A11,11,0,1,0,39,46,11,11,0,0,0,28,35Zm4.871,13.467a23.654,23.654,0,0,0,0-4.934C35.475,44.153,37,45.2,37,46S35.475,47.847,32.871,48.467ZM28,55c-.8,0-1.847-1.525-2.467-4.129a23.654,23.654,0,0,0,4.934,0C29.847,53.475,28.8,55,28,55Zm0-6a23.293,23.293,0,0,1-2.832-.168,23.938,23.938,0,0,1,0-5.664,23.938,23.938,0,0,1,5.664,0,23.938,23.938,0,0,1,0,5.664A23.291,23.291,0,0,1,28,49Zm-9-3c0-.8,1.525-1.847,4.129-2.467a23.654,23.654,0,0,0,0,4.934C20.525,47.847,19,46.8,19,46Zm9-9c.8,0,1.847,1.525,2.467,4.129a23.654,23.654,0,0,0-4.934,0C26.153,38.525,27.2,37,28,37Zm8.356,5.677a14.683,14.683,0,0,0-3.795-1.239,14.684,14.684,0,0,0-1.239-3.795A9.039,9.039,0,0,1,36.356,42.677ZM24.677,37.644a14.683,14.683,0,0,0-1.239,3.795,14.684,14.684,0,0,0-3.795,1.239A9.039,9.039,0,0,1,24.677,37.644ZM19.643,49.323a14.684,14.684,0,0,0,3.795,1.239,14.684,14.684,0,0,0,1.239,3.795,9.039,9.039,0,0,1-5.034-5.034Zm11.679,5.034a14.684,14.684,0,0,0,1.239-3.795,14.683,14.683,0,0,0,3.795-1.239,9.039,9.039,0,0,1-5.034,5.034Z" fill="#bface9"/><path d="M25.439,56.687c-.716-.964-1.4-1.951-2.038-2.974a9.032,9.032,0,0,1-3.758-4.39,11.9,11.9,0,0,0,1.727.706c-.433-.881-.842-1.775-1.214-2.689C19.41,46.89,19,46.414,19,46a1.14,1.14,0,0,1,.371-.728,42.513,42.513,0,0,1-1.208-4.166,10.961,10.961,0,0,0,7.276,15.581Z" fill="#8257e5"/><path d="M55,10A13.014,13.014,0,0,0,42,23V40a1,1,0,0,0,1.707.707L48.414,36H55a13,13,0,0,0,0-26Z" fill="#bface9"/><path d="M60.707,27.293l-2.54-2.54a5.015,5.015,0,1,0-1.414,1.414l2.54,2.54a1,1,0,1,0,1.414-1.414ZM51,22a3,3,0,1,1,3,3A3,3,0,0,1,51,22Z" fill="#8257e5"/><path d="M69,46H43a1,1,0,0,1,0-2H69a1,1,0,0,1,0,2Z" fill="#bface9"/><path d="M62,51H43a1,1,0,0,1,0-2H62a1,1,0,0,1,0,2Z" fill="#bface9"/><path d="M62,56H43a1,1,0,0,1,0-2H62a1,1,0,0,1,0,2Z" fill="#bface9"/><path d="M69,51H66a1,1,0,0,1,0-2h3a1,1,0,0,1,0,2Z" fill="#bface9"/><path d="M69,56H66a1,1,0,0,1,0-2h3a1,1,0,0,1,0,2Z" fill="#bface9"/></g></svg>