<svg xmlns="http://www.w3.org/2000/svg" width="72" height="86" viewBox="0 0 72 86"><g transform="translate(-8 -1)"><rect width="50" height="86" rx="4" transform="translate(19 1)" fill="#e6ecff"/><path d="M64,5H48a1,1,0,0,0-1,1,3,3,0,0,1-6,0,1,1,0,0,0-1-1H24a1,1,0,0,0-1,1V82a1,1,0,0,0,1,1H64a1,1,0,0,0,1-1V6A1,1,0,0,0,64,5Z" fill="#d0dbf7"/><circle cx="1" cy="1" r="1" transform="translate(43 5)" fill="#bface9"/><path d="M46.28,83H27.72l.86-3.42a8.677,8.677,0,0,1,16.84,0Z" fill="#bface9"/><circle cx="5" cy="5" r="5" transform="translate(32 61)" fill="#bface9"/><path d="M77,61H50a3,3,0,0,0-3,3V77a1,1,0,0,0,1.515.857L53.277,75H77a3,3,0,0,0,3-3V64a3,3,0,0,0-3-3Z" fill="#8257e5"/><path d="M74,67H53a1,1,0,0,1,0-2H74a1,1,0,0,1,0,2Z" fill="#6848b1"/><path d="M69,71H53a1,1,0,0,1,0-2H69a1,1,0,0,1,0,2Z" fill="#6848b1"/><path d="M59.97,56.758l-.545-2.179a8.684,8.684,0,0,0-16.85,0l-.545,2.179A1,1,0,0,0,43,58H59a1,1,0,0,0,.97-1.242Z" fill="#bface9"/><circle cx="5" cy="5" r="5" transform="translate(46 36)" fill="#bface9"/><path d="M45.97,31.758l-.545-2.179a8.684,8.684,0,0,0-16.85,0l-.545,2.179A1,1,0,0,0,29,33H45a1,1,0,0,0,.97-1.242Z" fill="#bface9"/><circle cx="5" cy="5" r="5" transform="translate(32 11)" fill="#bface9"/><path d="M38,36H11a3,3,0,0,0-3,3v8a3,3,0,0,0,3,3H34.723l4.763,2.857A1,1,0,0,0,41,52V39a3,3,0,0,0-3-3Z" fill="#8257e5"/><path d="M35,42H14a1,1,0,0,1,0-2H35a1,1,0,0,1,0,2Z" fill="#6848b1"/><path d="M35,46H19a1,1,0,0,1,0-2H35a1,1,0,0,1,0,2Z" fill="#6848b1"/><path d="M77,11H50a3,3,0,0,0-3,3V27a1,1,0,0,0,1.515.857L53.277,25H77a3,3,0,0,0,3-3V14a3,3,0,0,0-3-3Z" fill="#8257e5"/><path d="M74,17H53a1,1,0,0,1,0-2H74a1,1,0,0,1,0,2Z" fill="#6848b1"/><path d="M69,21H53a1,1,0,0,1,0-2H69a1,1,0,0,1,0,2Z" fill="#6848b1"/></g></svg>