<svg xmlns="http://www.w3.org/2000/svg" width="68" height="86" viewBox="0 0 68 86"><g transform="translate(-10 -1)"><path d="M77.895,85.553l-8-16A1,1,0,0,0,69,69H19a1,1,0,0,0-.895.553l-8,16A1,1,0,0,0,11,87H77a1,1,0,0,0,.895-1.447Z" fill="#bface9"/><path d="M46.19,80.05c1.054-1.126,4.938-5.336,9.57-11.05H32.237c4.633,5.714,8.518,9.923,9.572,11.049a3,3,0,0,0,4.382,0Z" fill="#8257e5"/><path d="M44,1A30.034,30.034,0,0,0,14,31c0,16.225,28.075,46.406,29.27,47.683a1,1,0,0,0,1.46,0C45.925,77.406,74,47.225,74,31A30.034,30.034,0,0,0,44,1Z" fill="#e6ecff"/><rect width="40" height="19" transform="translate(24 21)" fill="#8257e5"/><rect width="20" height="19" transform="translate(44 21)" fill="#6848b1"/><path d="M40,18H28V36H40a4,4,0,0,1,4,4V22A4,4,0,0,0,40,18Z" fill="#bface9"/><path d="M48,18a4,4,0,0,0-4,4V40a4,4,0,0,1,4-4H60V18Z" fill="#8257e5"/><path d="M39.555,26.168l-6-4A1,1,0,0,0,32,23v8a1,1,0,0,0,1.555.832l6-4a1,1,0,0,0,0-1.664Z" fill="#8257e5"/><path d="M56,24H48a1,1,0,0,1,0-2h8a1,1,0,0,1,0,2Z" fill="#6848b1"/><path d="M56,28H48a1,1,0,0,1,0-2h8a1,1,0,0,1,0,2Z" fill="#6848b1"/><path d="M56,32H48a1,1,0,0,1,0-2h8a1,1,0,0,1,0,2Z" fill="#6848b1"/></g></svg>