<svg xmlns="http://www.w3.org/2000/svg" width="86" height="86" viewBox="0 0 86 86"><g transform="translate(-1 -1)"><rect width="74" height="58" rx="1" transform="translate(7 5)" fill="#e6ecff"/><path d="M65.21,63H8a1,1,0,0,1-1-1V6A1,1,0,0,1,8,5h8.02A60.173,60.173,0,0,0,65.21,63Z" fill="#b7c6e2"/><path d="M42.481,70.662a1,1,0,0,0-1.019.033L18.737,85.156A1,1,0,0,0,19.274,87h7.451a1,1,0,0,0,.537-.156l15.274-9.72A1,1,0,0,0,43,76.28V71.538a1,1,0,0,0-.519-.877Z" fill="#6848b1"/><path d="M69.263,85.156,46.537,70.694A1,1,0,0,0,45,71.538V76.28a1,1,0,0,0,.463.844l15.274,9.72a1,1,0,0,0,.537.156h7.451a1,1,0,0,0,.537-1.844Z" fill="#6848b1"/><rect width="6" height="22" rx="1" transform="translate(41 65)" fill="#8257e5"/><path d="M84,1H4A3,3,0,0,0,4,7H84a3,3,0,0,0,0-6Z" fill="#bface9"/><path d="M84,61H4a3,3,0,0,0,0,6H84a3,3,0,0,0,0-6Z" fill="#bface9"/><rect width="64" height="34" rx="1" transform="translate(12 10)" fill="#d0dbf7"/><circle cx="6" cy="6" r="6" transform="translate(23 14)" fill="#bface9"/><rect width="30" height="26" rx="1" transform="translate(42 14)" fill="#8257e5"/><path d="M67,28H57a1,1,0,0,1,0-2H67a1,1,0,0,1,0,2Z" fill="#6848b1"/><path d="M67,24H57a1,1,0,0,1,0-2H67a1,1,0,0,1,0,2Z" fill="#6848b1"/><path d="M67,20H47a1,1,0,0,1,0-2H67a1,1,0,0,1,0,2Z" fill="#6848b1"/><path d="M67,36H47a1,1,0,0,1,0-2H67a1,1,0,0,1,0,2Z" fill="#6848b1"/><path d="M67,32H54a1,1,0,0,1,0-2H67a1,1,0,0,1,0,2Z" fill="#6848b1"/><path d="M75,49H13a1,1,0,0,1,0-2H75a1,1,0,0,1,0,2Z" fill="#bface9"/><path d="M57,51a1,1,0,0,1-1-1V46a1,1,0,0,1,2,0v4A1,1,0,0,1,57,51Z" fill="#8257e5"/><path d="M14,58a1,1,0,0,1-1-1V53a1,1,0,0,1,2,0v4A1,1,0,0,1,14,58Z" fill="#8257e5"/><path d="M18,58a1,1,0,0,1-1-1V53a1,1,0,0,1,2,0v4A1,1,0,0,1,18,58Z" fill="#8257e5"/><path d="M29,58a1,1,0,0,1-1-1V53a1,1,0,0,1,2,0v4A1,1,0,0,1,29,58Z" fill="#8257e5"/><path d="M24,58a1,1,0,0,1-.707-1.707L24.586,55l-1.293-1.293a1,1,0,1,1,1.414-1.414l2,2a1,1,0,0,1,0,1.414l-2,2A1,1,0,0,1,24,58Z" fill="#8257e5"/><path d="M53.641,23.232a.992.992,0,0,0-.819-.216l-33,6A1,1,0,0,0,19,30V44H40V33.78l7.339-1.557A8.447,8.447,0,0,0,54,24,1,1,0,0,0,53.641,23.232Z" fill="#bface9"/><path d="M31.37,44H13a1,1,0,0,1-1-1V11a1,1,0,0,1,1-1h3.31A60.026,60.026,0,0,0,31.37,44Z" fill="#8ea6ce"/><path d="M16.08,7H4A3,3,0,1,1,4,1H16V3.83C16,4.89,16.03,5.95,16.08,7Z" fill="#8257e5"/><path d="M31.37,44H19V30a1,1,0,0,1,.82-.98l1.57-.28A60.094,60.094,0,0,0,31.37,44Z" fill="#8257e5"/><path d="M36.42,49H13a1,1,0,0,1,0-2H34.25C34.96,47.68,35.68,48.35,36.42,49Z" fill="#8257e5"/><path d="M87,64a3.009,3.009,0,0,1-3,3H4a3,3,0,0,1,0-6H57.37a59.987,59.987,0,0,0,18.8,3Z" fill="#8257e5"/></g></svg>