<svg xmlns="http://www.w3.org/2000/svg" width="86" height="54" viewBox="0 0 86 54"><g transform="translate(-1 -17)"><rect width="18" height="8" rx="1" transform="translate(9 63)" fill="#8257e5"/><rect width="18" height="8" rx="1" transform="translate(61 63)" fill="#8257e5"/><path d="M81,35H75.4A17.971,17.971,0,0,0,48.6,35H7a6.007,6.007,0,0,0-6,6V59a6.007,6.007,0,0,0,6,6H81a6.007,6.007,0,0,0,6-6V41A6.007,6.007,0,0,0,81,35Z" fill="#e6ecff"/><path d="M87,59V51H43A29.992,29.992,0,0,1,16.465,34.995L7,35a6.007,6.007,0,0,0-6,6V59a6.007,6.007,0,0,0,6,6H81a6.007,6.007,0,0,0,6-6Z" fill="#b7c6e2"/><rect width="86" height="8" transform="translate(1 47)" fill="#8257e5"/><path d="M87,51H43a29.85,29.85,0,0,1-14.959-4H1v8H87Z" fill="#6848b1"/><circle cx="13" cy="13" r="13" transform="translate(49 34)" fill="#bface9"/><path d="M49.636,51a12.993,12.993,0,0,0,24.728,0Z" fill="#8257e5"/><circle cx="9" cy="9" r="9" transform="translate(53 38)" fill="#8257e5"/><ellipse cx="3.01" cy="2.983" rx="3.01" ry="2.983" transform="translate(38.762 41.019) rotate(-45)" fill="#bface9"/><path d="M81,42H78a1,1,0,0,1,0-2h3a1,1,0,0,1,0,2Z" fill="#bface9"/><path d="M62,25a1,1,0,0,1-1-1V18a1,1,0,0,1,2,0v6A1,1,0,0,1,62,25Z" fill="#bface9"/><path d="M49.979,29.979a1,1,0,0,1-.707-.293l-4.243-4.243a1,1,0,1,1,1.414-1.414l4.243,4.243a1,1,0,0,1-.707,1.707Z" fill="#bface9"/><path d="M74.021,29.979a1,1,0,0,1-.707-1.707l4.243-4.243a1,1,0,1,1,1.414,1.414l-4.243,4.243a1,1,0,0,1-.707.293Z" fill="#bface9"/><path d="M70.05,51H53.95a8.981,8.981,0,0,0,16.1,0Z" fill="#2045ce"/><path d="M61,53a5.006,5.006,0,0,1-5-5,1,1,0,1,1,2,0,3,3,0,0,0,3,3,1,1,0,0,1,0,2Z" fill="#6848b1"/><path d="M61,53a1,1,0,0,0,0-2H57.026A4.979,4.979,0,0,0,61,53Z" fill="#1036af"/></g></svg>