<svg xmlns="http://www.w3.org/2000/svg" width="86" height="72" viewBox="0 0 86 72"><g transform="translate(-1 -8)"><path d="M65,35a1,1,0,0,1-1-1V18a1,1,0,0,1,2,0V34A1,1,0,0,1,65,35Z" fill="#8257e5"/><path d="M59.551,19.735a1,1,0,0,0-.944-.084L44,25.912,29.394,19.651a.99.99,0,0,0-.944.084A1,1,0,0,0,28,20.57V32.86a1,1,0,0,0,.621.926l15,6.14a1,1,0,0,0,.758,0l15-6.14A1,1,0,0,0,60,32.86V20.57a1,1,0,0,0-.449-.835Z" fill="#8257e5"/><path d="M74.5,22A4.505,4.505,0,0,0,70,26.5V37.02a1,1,0,0,0,1.657.754,3.336,3.336,0,0,1,4.392.17A3.253,3.253,0,0,1,77,40.24a1,1,0,1,0,2,0V26.5A4.505,4.505,0,0,0,74.5,22Z" fill="#edb7b7"/><path d="M79,40.24V35.254c-.042-.044-.079-.092-.122-.135A7.253,7.253,0,0,0,70,34.06v2.526l.051-.051a5.237,5.237,0,0,1,8.944,3.731C79,40.257,79,40.25,79,40.24Z" fill="#d19d9d"/><rect width="26" height="8" rx="1" transform="translate(50 72)" fill="#bface9"/><path d="M82,8a5.006,5.006,0,0,0-5,5V36.122a5.251,5.251,0,0,0-6.949.413L52.293,54.293A1,1,0,0,0,52,55V67a1,1,0,0,0,1,1H73a1,1,0,0,0,1-1V62.414L86.707,49.707A1,1,0,0,0,87,49V13a5.006,5.006,0,0,0-5-5Z" fill="#ffd2d2"/><path d="M78.88,45.36,66.62,57.62a1,1,0,1,1-1.41-1.41L77.46,43.95a5.245,5.245,0,0,0,0-7.42,5.868,5.868,0,0,0-.46-.41V33.77a7.4,7.4,0,0,1,1.88,1.35A7.255,7.255,0,0,1,78.88,45.36Z" fill="#edb7b7"/><rect width="30" height="8" rx="1" transform="translate(48 66)" fill="#8257e5"/><path d="M13.5,22A4.505,4.505,0,0,1,18,26.5V37.02a1,1,0,0,1-1.657.754,3.336,3.336,0,0,0-4.392.17A3.253,3.253,0,0,0,11,40.24a1,1,0,0,1-2,0V26.5A4.505,4.505,0,0,1,13.5,22Z" fill="#edb7b7"/><path d="M9,40.24V35.254c.042-.044.079-.092.122-.135A7.253,7.253,0,0,1,18,34.06v2.526l-.051-.051a5.237,5.237,0,0,0-8.944,3.731C9.005,40.257,9,40.25,9,40.24Z" fill="#d19d9d"/><rect width="26" height="8" rx="1" transform="translate(12 72)" fill="#bface9"/><path d="M6,8a5.006,5.006,0,0,1,5,5V36.122a5.251,5.251,0,0,1,6.949.413L35.707,54.293A1,1,0,0,1,36,55V67a1,1,0,0,1-1,1H15a1,1,0,0,1-1-1V62.414L1.293,49.707A1,1,0,0,1,1,49V13A5.006,5.006,0,0,1,6,8Z" fill="#ffd2d2"/><path d="M9.12,45.36,21.38,57.62a1,1,0,1,0,1.41-1.41L10.54,43.95a5.245,5.245,0,0,1,0-7.42,5.867,5.867,0,0,1,.46-.41V33.77a7.4,7.4,0,0,0-1.88,1.35,7.255,7.255,0,0,0,0,10.24Z" fill="#edb7b7"/><rect width="30" height="8" rx="1" transform="translate(10 66)" fill="#8257e5"/><path d="M60,20.57v2.84L45.18,29.76a3.021,3.021,0,0,1-2.36,0L28,23.41V20.57a1,1,0,0,1,1.39-.92L44,25.91l14.61-6.26a1,1,0,0,1,1.39.92Z" fill="#6848b1"/><path d="M66,18v2.84l-2,.85V18a1,1,0,0,1,2,0Z" fill="#2045ce"/><path d="M65.394,17.081l-21-9a1,1,0,0,0-.787,0l-21,9a1,1,0,0,0,0,1.838l21,9a1,1,0,0,0,.787,0l21-9a1,1,0,0,0,0-1.838Z" fill="#bface9"/></g></svg>