<svg xmlns="http://www.w3.org/2000/svg" width="86.071" height="86.071" viewBox="0 0 86.071 86.071"><g transform="translate(-1 -1)"><path d="M52.384,16.616a1,1,0,0,1-.707-1.707l8.5-8.5a1,1,0,1,1,1.414,1.414l-8.5,8.495A1,1,0,0,1,52.384,16.616Z" fill="#8257e5"/><path d="M15.616,16.616a1,1,0,0,1-.707-.293l-8.5-8.5A1,1,0,1,1,7.828,6.414l8.495,8.5a1,1,0,0,1-.707,1.707Z" fill="#8257e5"/><path d="M7.121,61.879a1,1,0,0,1-.707-1.707l8.5-8.5a1,1,0,1,1,1.414,1.414l-8.5,8.495a1,1,0,0,1-.707.293Z" fill="#8257e5"/><path d="M84.707,73.293l-16-16a1,1,0,0,0-1.414,0l-10,10a1,1,0,0,0,0,1.414l16,16A8.071,8.071,0,0,0,84.707,73.293Z" fill="#8257e5"/><path d="M61.707,54.293l-5.87-5.87a1,1,0,0,0-1.522.127,24.4,24.4,0,0,1-5.764,5.765,1,1,0,0,0-.128,1.522l5.87,5.87a1,1,0,0,0,1.414,0l6-6a1,1,0,0,0,0-1.414Z" fill="#8257e5"/><circle cx="27" cy="27" r="27" transform="translate(7 7)" fill="#e6ecff"/><path d="M34,12A22,22,0,1,0,56,34,22,22,0,0,0,34,12Zm0,42c-2.717,0-5.563-3.987-7.017-10.508A47.914,47.914,0,0,0,34,44a47.913,47.913,0,0,0,7.017-.508C39.563,50.013,36.717,54,34,54Zm0-12a45.864,45.864,0,0,1-7.414-.586,47.175,47.175,0,0,1,0-14.828,47.175,47.175,0,0,1,14.828,0A45.852,45.852,0,0,1,42,34a45.853,45.853,0,0,1-.586,7.414A45.864,45.864,0,0,1,34,42Zm-9.492-.983C17.987,39.563,14,36.717,14,34s3.987-5.563,10.508-7.017a48.666,48.666,0,0,0,0,14.033ZM34,14c2.717,0,5.563,3.987,7.017,10.508a48.666,48.666,0,0,0-14.033,0C28.437,17.987,31.283,14,34,14Zm9.492,12.983C50.013,28.437,54,31.283,54,34s-3.987,5.563-10.508,7.017A47.916,47.916,0,0,0,44,34,47.914,47.914,0,0,0,43.492,26.983Zm9.9,2.225c-2.259-1.92-5.866-3.439-10.273-4.331-.892-4.407-2.411-8.014-4.331-10.273a20.038,20.038,0,0,1,14.6,14.6ZM29.209,14.6c-1.92,2.259-3.439,5.866-4.331,10.273-4.407.892-8.014,2.411-10.273,4.331a20.038,20.038,0,0,1,14.6-14.6ZM14.6,38.791c2.259,1.92,5.866,3.439,10.273,4.331.892,4.407,2.411,8.014,4.331,10.273a20.038,20.038,0,0,1-14.6-14.6ZM38.791,53.4c1.92-2.259,3.439-5.866,4.331-10.273,4.407-.892,8.014-2.411,10.273-4.331a20.038,20.038,0,0,1-14.6,14.6Z" fill="#bface9"/><path d="M71.707,54.293l-5-5a1,1,0,0,0-1.414,0l-16,16a1,1,0,0,0,0,1.414l5,5a1,1,0,0,0,1.414,0l16-16a1,1,0,0,0,0-1.414Z" fill="#bface9"/><circle cx="4" cy="4" r="4" transform="translate(1 1)" fill="#bface9"/><circle cx="4" cy="4" r="4" transform="translate(59 1)" fill="#bface9"/><circle cx="4" cy="4" r="4" transform="translate(1 59)" fill="#bface9"/><path d="M75,82a1,1,0,0,1-.707-.293l-12-12a1,1,0,1,1,1.414-1.414l12,12A1,1,0,0,1,75,82Z" fill="#6848b1"/></g></svg>