<svg xmlns="http://www.w3.org/2000/svg" width="86" height="56" viewBox="0 0 86 56"><g transform="translate(-1 -16)"><path d="M76,16H12a4,4,0,0,0-4,4V68a1,1,0,0,0,1,1H79a1,1,0,0,0,1-1V20A4,4,0,0,0,76,16Z" fill="#e6ecff"/><path d="M80,68a1,1,0,0,1-1,1H9a1,1,0,0,1-1-1V20a4,4,0,0,1,4-4h5v9.19A42.813,42.813,0,0,0,59.806,68Z" fill="#b7c6e2"/><rect width="64" height="38" rx="1" transform="translate(12 20)" fill="#d0dbf7"/><path d="M32.32,58H13a1,1,0,0,1-1-1V21a1,1,0,0,1,1-1h4v5.19A42.694,42.694,0,0,0,32.32,58Z" fill="#8ea6ce"/><path d="M86,62H64a1,1,0,0,0-.832.445L61.465,65H26.535l-1.7-2.555A1,1,0,0,0,24,62H2a1,1,0,0,0-1,1v4a5.006,5.006,0,0,0,5,5H82a5.006,5.006,0,0,0,5-5V63A1,1,0,0,0,86,62Z" fill="#bface9"/><path d="M86.9,68A5,5,0,0,1,82,72H6a5,5,0,0,1-5-5V63a1,1,0,0,1,1-1H24a1,1,0,0,1,.83.45L26.54,65h17.5a42.587,42.587,0,0,0,15.77,3Z" fill="#8257e5"/><path d="M44,31.884a1,1,0,0,1-1-1C43,28.157,44.254,23,49,23a1,1,0,0,1,0,2c-3.954,0-4,5.825-4,5.884A1,1,0,0,1,44,31.884Z" fill="#6848b1"/><path d="M54.86,33.531A7.437,7.437,0,0,0,53.5,30.065a5.933,5.933,0,0,0-6.135-2.246,6.363,6.363,0,0,0-2.819,1.828.763.763,0,0,1-1.089,0,6.363,6.363,0,0,0-2.819-1.828A5.931,5.931,0,0,0,34.5,30.065,7.437,7.437,0,0,0,33.14,33.53a15.925,15.925,0,0,0,.992,7.942c1.14,2.978,2.705,4.781,4.651,5.356A4.041,4.041,0,0,0,39.935,47a4.75,4.75,0,0,0,2.662-.881,2.5,2.5,0,0,1,2.808,0,4.429,4.429,0,0,0,3.813.713c1.946-.575,3.511-2.378,4.651-5.356a15.922,15.922,0,0,0,.991-7.941Z" fill="#8257e5"/><path d="M38.992,42.846a1,1,0,0,1-.73-.317,7.62,7.62,0,0,1-1.4-2.486,11.88,11.88,0,0,1-.773-5.9,1,1,0,1,1,1.977.3,9.866,9.866,0,0,0,.664,4.884,5.782,5.782,0,0,0,.989,1.837,1,1,0,0,1-.73,1.683Z" fill="#6848b1"/><path d="M64,53a3,3,0,1,1,0-6,1,1,0,0,0,0-2H28a5,5,0,0,0,0,10H64a1,1,0,0,0,0-2Z" fill="#bface9"/><path d="M61.184,49H28a1,1,0,0,0,0,2H61.184A2.805,2.805,0,0,1,61.184,49Z" fill="#8257e5"/><path d="M28,55h1.1a43,43,0,0,1-5.6-7.141A4.942,4.942,0,0,0,23,50a5.006,5.006,0,0,0,5,5Z" fill="#2965ed"/></g></svg>