<svg xmlns="http://www.w3.org/2000/svg" width="86" height="56" viewBox="0 0 86 56"><g transform="translate(-1 -16)"><path d="M76,16H12a4,4,0,0,0-4,4V68a1,1,0,0,0,1,1H79a1,1,0,0,0,1-1V20A4,4,0,0,0,76,16Z" fill="#e6ecff"/><path d="M80,68a1,1,0,0,1-1,1H9a1,1,0,0,1-1-1V20a4,4,0,0,1,4-4h5v9.19A42.813,42.813,0,0,0,59.806,68Z" fill="#b7c6e2"/><path d="M80,68a1,1,0,0,1-1,1H9a1,1,0,0,1-1-1V20a4,4,0,0,1,4-4h5v9.19A42.813,42.813,0,0,0,59.806,68Z" fill="#b7c6e2"/><rect width="64" height="38" rx="1" transform="translate(12 20)" fill="#d0dbf7"/><path d="M32.32,58H13a1,1,0,0,1-1-1V21a1,1,0,0,1,1-1h4v5.19A42.694,42.694,0,0,0,32.32,58Z" fill="#8ea6ce"/><path d="M86,62H64a1,1,0,0,0-.832.445L61.465,65H26.535l-1.7-2.555A1,1,0,0,0,24,62H2a1,1,0,0,0-1,1v4a5.006,5.006,0,0,0,5,5H82a5.006,5.006,0,0,0,5-5V63A1,1,0,0,0,86,62Z" fill="#bface9"/><path d="M86.9,68A5,5,0,0,1,82,72H6a5,5,0,0,1-5-5V63a1,1,0,0,1,1-1H24a1,1,0,0,1,.83.45L26.54,65h17.5a42.587,42.587,0,0,0,15.77,3Z" fill="#8257e5"/><circle cx="6" cy="6" r="6" transform="translate(21 27)" fill="#bface9"/><rect width="31" height="26" rx="1" transform="translate(40 27)" fill="#8257e5"/><path d="M66,41H55a1,1,0,0,1,0-2H66a1,1,0,0,1,0,2Z" fill="#6848b1"/><path d="M66,37H55a1,1,0,0,1,0-2H66a1,1,0,0,1,0,2Z" fill="#6848b1"/><path d="M66,33H45a1,1,0,0,1,0-2H66a1,1,0,0,1,0,2Z" fill="#6848b1"/><path d="M66,49H45a1,1,0,0,1,0-2H66a1,1,0,0,1,0,2Z" fill="#6848b1"/><path d="M66,45H52a1,1,0,0,1,0-2H66a1,1,0,0,1,0,2Z" fill="#6848b1"/><path d="M51.641,36.232a.974.974,0,0,0-.819-.216l-33,6A1,1,0,0,0,17,43V58H38V46.78l7.338-1.557A8.446,8.446,0,0,0,52,37,1,1,0,0,0,51.641,36.232Z" fill="#bface9"/><path d="M20.252,41.575l-2.43.442A1,1,0,0,0,17,43V58H32.32A42.88,42.88,0,0,1,20.252,41.575Z" fill="#8257e5"/></g></svg>