<svg xmlns="http://www.w3.org/2000/svg" width="50" height="86" viewBox="0 0 50 86"><g transform="translate(-19 -1)"><rect width="50" height="86" rx="4" transform="translate(19 1)" fill="#bface9"/><path d="M64,5H48a1,1,0,0,0-1,1,3,3,0,0,1-6,0,1,1,0,0,0-1-1H24a1,1,0,0,0-1,1V82a1,1,0,0,0,1,1H64a1,1,0,0,0,1-1V6A1,1,0,0,0,64,5Z" fill="#e6ecff"/><circle cx="1" cy="1" r="1" transform="translate(43 5)" fill="#8257e5"/><path d="M54.98,47.376,49,46.18V41.74a1,1,0,0,0-1.578-.816,6.072,6.072,0,0,1-6.844,0A1,1,0,0,0,39,41.74v4.44l-5.98,1.2a5.013,5.013,0,0,0-4.02,4.9V61a1,1,0,0,0,1,1H58a1,1,0,0,0,1-1V52.279A5.014,5.014,0,0,0,54.98,47.376Z" fill="#bface9"/><path d="M49,41.74v4.44l-5,3.75-5-3.75V41.74a1.008,1.008,0,0,1,.54-.89,1.023,1.023,0,0,1,1.04.07,6.059,6.059,0,0,0,6.84,0,1.023,1.023,0,0,1,1.04-.07A1.009,1.009,0,0,1,49,41.74Z" fill="#edb7b7"/><path d="M53,56v6H51V56a1,1,0,0,1,2,0Z" fill="#8257e5"/><path d="M59,68H29a1,1,0,0,1,0-2H59a1,1,0,0,1,0,2Z" fill="#bface9"/><path d="M51.574,28.631a1,1,0,0,0-.916-.121L44,30.935,37.342,28.51A1,1,0,0,0,36,29.45V36a8,8,0,0,0,16,0V29.45A1,1,0,0,0,51.574,28.631Z" fill="#ffd2d2"/><path d="M52,29.45a1,1,0,0,0-1.342-.94L48,29.479V32a4,4,0,0,0,2.4,3.665,3.959,3.959,0,0,0,1.6.336H52Z" fill="#393c47"/><path d="M36,29.45a1,1,0,0,1,1.342-.94L40,29.479V32a4,4,0,0,1-2.4,3.665,3.959,3.959,0,0,1-1.6.336H36Z" fill="#393c47"/><path d="M51.573,23.63a1,1,0,0,0-.917-.119L44,25.936l-6.657-2.425A1,1,0,0,0,36,24.45v5.7h0l7.657,2.79a1,1,0,0,0,.684,0L52,30.15v-5.7A1,1,0,0,0,51.573,23.63Z" fill="#8257e5"/><path d="M55,30.875a1,1,0,0,1-1-1V23a1,1,0,0,1,2,0v6.875A1,1,0,0,1,55,30.875Z" fill="#376cfb"/><path d="M55.342,22.06l-11-4a1,1,0,0,0-.684,0l-11,4a1,1,0,0,0,0,1.88l11,4a1,1,0,0,0,.684,0l11-4a1,1,0,0,0,0-1.88Z" fill="#bface9"/><path d="M32,70a1,1,0,0,1-1-1V65a1,1,0,0,1,2,0v4A1,1,0,0,1,32,70Z" fill="#8257e5"/><path d="M37,56v6H35V56a1,1,0,0,1,2,0Z" fill="#8257e5"/><path d="M45,55v7H43V55a1,1,0,0,1,2,0Z" fill="#2946ed"/><path d="M32.408,47.556,43.4,55.8a1,1,0,0,0,1.2,0l10.992-8.244a4.934,4.934,0,0,0-.611-.179L49,46.18h0l-5,3.75-5-3.75h0l-5.98,1.2a4.913,4.913,0,0,0-.612.18Z" fill="#8257e5"/></g></svg>