<svg xmlns="http://www.w3.org/2000/svg" width="62" height="86" viewBox="0 0 62 86"><g transform="translate(-13 -1)"><rect width="50" height="86" rx="4" transform="translate(13 1)" fill="#e6ecff"/><path d="M58,5H42a1,1,0,0,0-1,1,3,3,0,0,1-6,0,1,1,0,0,0-1-1H18a1,1,0,0,0-1,1V82a1,1,0,0,0,1,1H58a1,1,0,0,0,1-1V6A1,1,0,0,0,58,5Z" fill="#d0dbf7"/><circle cx="1" cy="1" r="1" transform="translate(37 5)" fill="#8257e5"/><path d="M58,31A17.019,17.019,0,0,0,41,48v8.586l-6.707,6.707A1,1,0,0,0,35,65H58a17,17,0,0,0,0-34Z" fill="#bface9"/><path d="M65.5,47.136l-12-7A1,1,0,0,0,52,41V55a1,1,0,0,0,1.5.864l12-7a1,1,0,0,0,0-1.728Z" fill="#8257e5"/></g></svg>