<svg xmlns="http://www.w3.org/2000/svg" width="86" height="86" viewBox="0 0 86 86"><g transform="translate(-1 -1)"><rect width="74" height="52" rx="5" transform="translate(7 1)" fill="#e6ecff"/><path d="M81,47v1a5,5,0,0,1-5,5H12a5,5,0,0,1-5-5V6a5,5,0,0,1,5-5h2V15.56A31.444,31.444,0,0,0,45.435,47Z" fill="#b7c6e2"/><rect width="66" height="34" rx="1" transform="translate(11 15)" fill="#d0dbf7"/><path d="M49.641,28.232a.994.994,0,0,0-.819-.216l-33,6A1,1,0,0,0,15,35V49H36V38.78l7.339-1.557A8.447,8.447,0,0,0,50,29,1,1,0,0,0,49.641,28.232Z" fill="#4294ff"/><path d="M36,45.56V49H15V35a1,1,0,0,1,.82-.98l3.69-.67A31.569,31.569,0,0,0,36,45.56Z" fill="#376cfb"/><path d="M77,47v1a1,1,0,0,1-1,1H12a1,1,0,0,1-1-1V16a1,1,0,0,1,1-1h2v.56A31.444,31.444,0,0,0,45.435,47Z" fill="#8ea6ce"/><path d="M73.6,69.073a1,1,0,0,0-.875-.166A2.663,2.663,0,0,1,72,69H68a2.663,2.663,0,0,1-.73-.093A1,1,0,0,0,66,69.87V75a1,1,0,0,0,1,1h6a1,1,0,0,0,1-1V69.87a1,1,0,0,0-.4-.8Z" fill="#6848b1"/><path d="M47.6,69.073a1,1,0,0,0-.875-.166A2.663,2.663,0,0,1,46,69H42a2.663,2.663,0,0,1-.73-.093A1,1,0,0,0,40,69.87V75a1,1,0,0,0,1,1h6a1,1,0,0,0,1-1V69.87a1,1,0,0,0-.4-.8Z" fill="#6848b1"/><path d="M21.6,69.073a1,1,0,0,0-.875-.166A2.663,2.663,0,0,1,20,69H16a2.663,2.663,0,0,1-.73-.093A1,1,0,0,0,14,69.87V75a1,1,0,0,0,1,1h6a1,1,0,0,0,1-1V69.87a1,1,0,0,0-.4-.8Z" fill="#6848b1"/><rect width="34" height="26" rx="1" transform="translate(39 19)" fill="#8257e5"/><path d="M68,33H53a1,1,0,0,1,0-2H68a1,1,0,0,1,0,2Z" fill="#6848b1"/><path d="M68,29H53a1,1,0,0,1,0-2H68a1,1,0,0,1,0,2Z" fill="#6848b1"/><path d="M68,25H44a1,1,0,0,1,0-2H68a1,1,0,0,1,0,2Z" fill="#6848b1"/><path d="M68,41H44a1,1,0,0,1,0-2H68a1,1,0,0,1,0,2Z" fill="#6848b1"/><path d="M68,37H50a1,1,0,0,1,0-2H68a1,1,0,0,1,0,2Z" fill="#6848b1"/><path d="M76,1H12A5,5,0,0,0,7,6v7H30a5.009,5.009,0,0,0,4.9-4H81V6a5,5,0,0,0-5-5Z" fill="#8257e5"/><circle cx="3" cy="3" r="3" transform="translate(18 4)" fill="#6848b1"/><circle cx="3" cy="3" r="3" transform="translate(25 4)" fill="#6848b1"/><path d="M75,6H46a1,1,0,0,1,0-2H75a1,1,0,0,1,0,2Z" fill="#6848b1"/><path d="M75,74H65a6.007,6.007,0,0,0-6,6v6a1,1,0,0,0,1,1H80a1,1,0,0,0,1-1V80a6.007,6.007,0,0,0-6-6Z" fill="#bface9"/><path d="M49,74H39a6.007,6.007,0,0,0-6,6v6a1,1,0,0,0,1,1H54a1,1,0,0,0,1-1V80a6.007,6.007,0,0,0-6-6Z" fill="#bface9"/><path d="M23,74H13a6.007,6.007,0,0,0-6,6v6a1,1,0,0,0,1,1H28a1,1,0,0,0,1-1V80a6.007,6.007,0,0,0-6-6Z" fill="#bface9"/><path d="M86,87H2a1,1,0,0,1,0-2H86a1,1,0,0,1,0,2Z" fill="#6848b1"/><circle cx="6" cy="6" r="6" transform="translate(19 19)" fill="#4294ff"/><rect width="14" height="16" rx="5" transform="translate(63 55)" fill="#bface9"/><rect width="14" height="16" rx="5" transform="translate(37 55)" fill="#bface9"/><rect width="14" height="16" rx="5" transform="translate(11 55)" fill="#bface9"/><circle cx="6" cy="6" r="6" transform="translate(19 19)" fill="#bface9"/><path d="M14,1V13H7V6a5,5,0,0,1,5-5Z" fill="#6848b1"/><circle cx="3" cy="3" r="3" transform="translate(11 4)" fill="#6848b1"/><path d="M14,4v6a3,3,0,0,1,0-6Z" fill="#8257e5"/><path d="M49.641,28.232a.994.994,0,0,0-.819-.216l-33,6A1,1,0,0,0,15,35V49H36V38.78l7.339-1.557A8.447,8.447,0,0,0,50,29,1,1,0,0,0,49.641,28.232Z" fill="#bface9"/><path d="M36,45.56V49H15V35a1,1,0,0,1,.82-.98l3.69-.67A31.569,31.569,0,0,0,36,45.56Z" fill="#8257e5"/></g></svg>