<svg xmlns="http://www.w3.org/2000/svg" width="60" height="86" viewBox="0 0 60 86"><g transform="translate(-14 -1)"><path d="M74,68V65H14v7a4,4,0,0,0,4,4H74a4.035,4.035,0,0,1,0-8Z" fill="#d0dbf7"/><path d="M73,1H18a4,4,0,0,0-4,4V72a4,4,0,0,1,4-4H74V2A1,1,0,0,0,73,1Z" fill="#e6ecff"/><path d="M18,1a4,4,0,0,0-4,4V72a4,4,0,0,1,4-4h3V1Z" fill="#bface9"/><circle cx="14" cy="14" r="14" transform="translate(33 9)" fill="#bface9"/><path d="M53.515,22.143l-10-6A1,1,0,0,0,42,17V29a1,1,0,0,0,1.515.857l10-6a1,1,0,0,0,0-1.715Z" fill="#8257e5"/><path d="M66,43H28a1,1,0,0,1,0-2H66a1,1,0,0,1,0,2Z" fill="#8257e5"/><path d="M58,49H28a1,1,0,0,1,0-2H58a1,1,0,0,1,0,2Z" fill="#8257e5"/><path d="M58,55H28a1,1,0,0,1,0-2H58a1,1,0,0,1,0,2Z" fill="#8257e5"/><path d="M58,61H28a1,1,0,0,1,0-2H58a1,1,0,0,1,0,2Z" fill="#8257e5"/><path d="M66,49H62a1,1,0,0,1,0-2h4a1,1,0,0,1,0,2Z" fill="#8257e5"/><path d="M66,55H62a1,1,0,0,1,0-2h4a1,1,0,0,1,0,2Z" fill="#8257e5"/><path d="M66,61H62a1,1,0,0,1,0-2h4a1,1,0,0,1,0,2Z" fill="#8257e5"/><path d="M70.629,73a4.323,4.323,0,0,1,0-2H18a1,1,0,0,0,0,2Z" fill="#becced"/><path d="M58,71H44V86a1,1,0,0,0,1.64.768L51,82.3l5.36,4.466A1,1,0,0,0,58,86Z" fill="#8257e5"/></g></svg>