<svg xmlns="http://www.w3.org/2000/svg" width="86" height="86" viewBox="0 0 86 86"><g transform="translate(-1 -1)"><path d="M78,27H10a4,4,0,0,0-4,4V83a1,1,0,0,0,1,1H81a1,1,0,0,0,1-1V31a4,4,0,0,0-4-4Z" fill="#e6ecff"/><rect width="68" height="42" rx="1" transform="translate(10 31)" fill="#d0dbf7"/><rect width="18" height="16" transform="translate(26 36)" fill="#bface9"/><rect width="18" height="16" transform="translate(44 36)" fill="#bface9"/><rect width="18" height="16" transform="translate(26 52)" fill="#bface9"/><rect width="18" height="16" transform="translate(44 52)" fill="#bface9"/><path d="M82,83a1,1,0,0,1-1,1H7a1,1,0,0,1-1-1V31a4,4,0,0,1,4-4h7V40.19A42.813,42.813,0,0,0,59.806,83Z" fill="#b7c6e2"/><path d="M86,77H65a1,1,0,0,0-.832.445L62.465,80H25.535l-1.7-2.555A1,1,0,0,0,23,77H2a1,1,0,0,0-1,1v4a5.006,5.006,0,0,0,5,5H82a5.006,5.006,0,0,0,5-5V78A1,1,0,0,0,86,77Z" fill="#bface9"/><path d="M86.9,83A5,5,0,0,1,82,87H6a5,5,0,0,1-5-5V78a1,1,0,0,1,1-1H23a1,1,0,0,1,.83.45L25.54,80h18.5a42.587,42.587,0,0,0,15.77,3Z" fill="#8257e5"/><path d="M32.32,73H11a1,1,0,0,1-1-1V32a1,1,0,0,1,1-1h6v9.19A42.694,42.694,0,0,0,32.32,73Z" fill="#8ea6ce"/><path d="M35,45a7.008,7.008,0,0,0-7,7,1,1,0,0,0,1,1H41a1,1,0,0,0,1-1A7.008,7.008,0,0,0,35,45Z" fill="#8257e5"/><circle cx="4" cy="4" r="4" transform="translate(31 39)" fill="#8257e5"/><path d="M53,45a7.008,7.008,0,0,0-7,7,1,1,0,0,0,1,1H59a1,1,0,0,0,1-1,7.008,7.008,0,0,0-7-7Z" fill="#8257e5"/><circle cx="4" cy="4" r="4" transform="translate(49 39)" fill="#8257e5"/><path d="M53,61a7.008,7.008,0,0,0-7,7,1,1,0,0,0,1,1H59a1,1,0,0,0,1-1,7.008,7.008,0,0,0-7-7Z" fill="#8257e5"/><circle cx="4" cy="4" r="4" transform="translate(49 55)" fill="#8257e5"/><path d="M35,61a7.008,7.008,0,0,0-7,7,1,1,0,0,0,1,1H41a1,1,0,0,0,1-1A7.008,7.008,0,0,0,35,61Z" fill="#8257e5"/><circle cx="4" cy="4" r="4" transform="translate(31 55)" fill="#8257e5"/><path d="M62,35H26a1,1,0,0,0-1,1V68a1,1,0,0,0,1,1H62a1,1,0,0,0,1-1V36A1,1,0,0,0,62,35ZM61,51H45V37H61ZM27,37H43V51H27Zm0,16H43V67H27ZM61,67H45V53H61Z" fill="#8257e5"/><path d="M25,68a1,1,0,0,0,1,1h2.171A42.936,42.936,0,0,1,25,65.089Z" fill="#2045ce"/><path d="M63,1H25a1,1,0,0,0-1,1V28a1,1,0,0,0,1,1H38.649l4.726,3.781a1,1,0,0,0,1.249,0L49.351,29H63a1,1,0,0,0,1-1V2A1,1,0,0,0,63,1Z" fill="#9b74f3"/><path d="M55,10H30V24H58V10Z" fill="#8257e5"/><rect width="14" height="14" transform="translate(44 10)" fill="#6848b1"/><path d="M48,6a4,4,0,0,0-4,4V24a4,4,0,0,1,4-4h7V6Z" fill="#8257e5"/><path d="M40,6H33V20h7a4,4,0,0,1,4,4V10A4,4,0,0,0,40,6Z" fill="#bface9"/><path d="M41,11H36a1,1,0,0,1,0-2h5a1,1,0,0,1,0,2Z" fill="#8257e5"/><path d="M41,14H36a1,1,0,0,1,0-2h5a1,1,0,0,1,0,2Z" fill="#8257e5"/><path d="M41,17H36a1,1,0,0,1,0-2h5a1,1,0,0,1,0,2Z" fill="#8257e5"/><path d="M52,17H47a1,1,0,0,1,0-2h5a1,1,0,0,1,0,2Z" fill="#6848b1"/><path d="M52,11H47a1,1,0,0,1,0-2h5a1,1,0,0,1,0,2Z" fill="#6848b1"/><path d="M52,14H47a1,1,0,0,1,0-2h5a1,1,0,0,1,0,2Z" fill="#6848b1"/></g></svg>