<svg xmlns="http://www.w3.org/2000/svg" width="86" height="70" viewBox="0 0 86 70"><g transform="translate(-1 -9)"><rect width="86" height="70" rx="6" transform="translate(1 9)" fill="#e6ecff"/><path d="M81,9H7a6,6,0,0,0-6,6V25H25a7.011,7.011,0,0,0,6.929-6H87V15A6,6,0,0,0,81,9Z" fill="#8257e5"/><circle cx="3" cy="3" r="3" transform="translate(5 15)" fill="#6848b1"/><circle cx="3" cy="3" r="3" transform="translate(13 15)" fill="#6848b1"/><circle cx="3" cy="3" r="3" transform="translate(21 15)" fill="#6848b1"/><path d="M80,15H39a1,1,0,0,1,0-2H80a1,1,0,0,1,0,2Z" fill="#6848b1"/><path d="M86.91,74A5.99,5.99,0,0,1,81,79H7a6,6,0,0,1-6-6V15A6,6,0,0,1,7,9H8V21.31A52.69,52.69,0,0,0,60.69,74Z" fill="#b7c6e2"/><path d="M8.13,25H1V15A6,6,0,0,1,7,9H8V21.31C8,22.55,8.04,23.78,8.13,25Z" fill="#6848b1"/><path d="M8,15v6a3,3,0,0,1,0-6Z" fill="#8257e5"/><rect width="58" height="28" transform="translate(15 40)" fill="#8257e5"/><path d="M15,68H36.276A52.912,52.912,0,0,1,15,47.539Z" fill="#6848b1"/><rect width="29" height="28" transform="translate(44 40)" fill="#6848b1"/><path d="M49,34a5,5,0,0,0-5,5V67a5,5,0,0,1,5-5H68V34Z" fill="#8257e5"/><path d="M64,39H49a1,1,0,0,1,0-2H64a1,1,0,0,1,0,2Z" fill="#6848b1"/><path d="M64,43H49a1,1,0,0,1,0-2H64a1,1,0,0,1,0,2Z" fill="#6848b1"/><path d="M64,47H49a1,1,0,0,1,0-2H64a1,1,0,0,1,0,2Z" fill="#6848b1"/><path d="M64,51H49a1,1,0,0,1,0-2H64a1,1,0,0,1,0,2Z" fill="#6848b1"/><path d="M64,55H49a1,1,0,0,1,0-2H64a1,1,0,0,1,0,2Z" fill="#6848b1"/><path d="M64,59H49a1,1,0,0,1,0-2H64a1,1,0,0,1,0,2Z" fill="#6848b1"/><path d="M39,34H20V62H39a5,5,0,0,1,5,5V39A5,5,0,0,0,39,34Z" fill="#bface9"/><path d="M20,62h7.215A53.006,53.006,0,0,1,20,54.785Z" fill="#8257e5"/><path d="M37.486,47.126l-9-5A1,1,0,0,0,27,43V53a1,1,0,0,0,1.486.874l9-5a1,1,0,0,0,0-1.748Z" fill="#8257e5"/></g></svg>