<svg xmlns="http://www.w3.org/2000/svg" width="86" height="70" viewBox="0 0 86 70"><g transform="translate(-1 -9)"><rect width="86" height="70" rx="6" transform="translate(1 9)" fill="#e6ecff"/><path d="M81,9H7a6,6,0,0,0-6,6V25H25a7.011,7.011,0,0,0,6.929-6H87V15A6,6,0,0,0,81,9Z" fill="#8257e5"/><circle cx="3" cy="3" r="3" transform="translate(5 15)" fill="#6848b1"/><circle cx="3" cy="3" r="3" transform="translate(13 15)" fill="#6848b1"/><circle cx="3" cy="3" r="3" transform="translate(21 15)" fill="#6848b1"/><path d="M80,15H39a1,1,0,0,1,0-2H80a1,1,0,0,1,0,2Z" fill="#6848b1"/><path d="M59,41.86v12a.982.982,0,0,1-.57.9l-15,7.14a.974.974,0,0,1-.86,0l-15-7.14a.982.982,0,0,1-.57-.9v-12a1.025,1.025,0,0,1,.47-.85.994.994,0,0,1,.96-.05L43,47.89l14.57-6.93a.994.994,0,0,1,.96.05A1.025,1.025,0,0,1,59,41.86Z" fill="#8257e5"/><path d="M65,39V51a1,1,0,0,1-2,0V39a1,1,0,0,1,2,0Z" fill="#8257e5"/><path d="M66.707,52.293l-2-2a1,1,0,0,0-1.414,0l-2,2a1,1,0,0,0-.222,1.078l2,5a1,1,0,0,0,1.857,0l2-5a1,1,0,0,0-.222-1.078Z" fill="#8257e5"/><path d="M37,66H23a1,1,0,0,1,0-2H37a1,1,0,0,1,0,2Z" fill="#bface9"/><path d="M65,70H23a1,1,0,0,1,0-2H65a1,1,0,0,1,0,2Z" fill="#bface9"/><path d="M59,41.86v2.85l-14.71,7a3.014,3.014,0,0,1-2.58,0L27,44.71V41.86a1.025,1.025,0,0,1,.47-.85.994.994,0,0,1,.96-.05L43,47.89l14.57-6.93a.994.994,0,0,1,.96.05A1.025,1.025,0,0,1,59,41.86Z" fill="#6848b1"/><path d="M65,39v2.85l-2,.95V39a1,1,0,0,1,2,0Z" fill="#6848b1"/><path d="M64.43,38.1l-21-10a1,1,0,0,0-.859,0l-21,10a1,1,0,0,0,0,1.807l21,10a1,1,0,0,0,.859,0l21-10a1,1,0,0,0,0-1.807Z" fill="#bface9"/><path d="M86.91,74A5.99,5.99,0,0,1,81,79H7a6,6,0,0,1-6-6V15A6,6,0,0,1,7,9H8V21.31A52.69,52.69,0,0,0,60.69,74Z" fill="#b7c6e2"/><path d="M8.13,25H1V15A6,6,0,0,1,7,9H8V21.31C8,22.55,8.04,23.78,8.13,25Z" fill="#6848b1"/><path d="M8,15v6a3,3,0,0,1,0-6Z" fill="#8257e5"/><path d="M32.77,66H23a1,1,0,0,1,0-2h6.81C30.77,64.7,31.76,65.37,32.77,66Z" fill="#8257e5"/><path d="M40.53,70H23a1,1,0,0,1,0-2H36.25Q38.335,69.1,40.53,70Z" fill="#8257e5"/></g></svg>