<svg xmlns="http://www.w3.org/2000/svg" width="63.998" height="82.003" viewBox="0 0 63.998 82.003"><g transform="translate(-12.002 -3)"><circle cx="30" cy="30" r="30" transform="translate(13 24)" fill="#bface9"/><path d="M74,54A31.071,31.071,0,0,0,58.321,27.059a.991.991,0,0,0-.334-.1c-.032-.005-.061-.025-.093-.027a1,1,0,0,0-.443.072L43,32.919,28.549,27a1,1,0,0,0-.442-.072,1.015,1.015,0,0,0-.143.042.982.982,0,0,0-.285.084A31,31,0,1,0,74,54ZM62.8,75.164a30.95,30.95,0,0,0-5.046-3.427A47.177,47.177,0,0,0,60.985,55H71.975A28.918,28.918,0,0,1,62.8,75.164ZM50.836,81.9a24.4,24.4,0,0,0,6.1-8.318A28.946,28.946,0,0,1,61.277,76.5,28.6,28.6,0,0,1,50.836,81.9Zm-26.113-5.41a28.946,28.946,0,0,1,4.337-2.909,24.4,24.4,0,0,0,6.1,8.318,28.41,28.41,0,0,1-10.441-5.409Zm3.523-47.453,3.1,1.269a29.436,29.436,0,0,0-2.331,4.08,28.94,28.94,0,0,1-4.29-2.885,27.74,27.74,0,0,1,3.52-2.465Zm33.028,2.465a28.939,28.939,0,0,1-4.29,2.885,29.447,29.447,0,0,0-2.331-4.081l3.1-1.269a29.919,29.919,0,0,1,3.52,2.465ZM44,70.043a28.924,28.924,0,0,1,11.211,2.666C52.476,78.565,48.486,82.433,44,82.938Zm0-2.02V55H58.986A45.924,45.924,0,0,1,56,70.869a30.936,30.936,0,0,0-12-2.846ZM44,53V39.977a30.933,30.933,0,0,0,11.981-2.836,46.063,46.063,0,0,1,3,15.859Zm0-15.043V34.672l8.759-3.582a26.917,26.917,0,0,1,2.425,4.215A28.925,28.925,0,0,1,44,37.957ZM33.241,31.09,42,34.672v3.285a28.925,28.925,0,0,1-11.184-2.652,26.917,26.917,0,0,1,2.425-4.215ZM42,39.977V53H27.016a46.063,46.063,0,0,1,3-15.859A30.933,30.933,0,0,0,42,39.977ZM42,55V68.023a30.936,30.936,0,0,0-12,2.846A45.924,45.924,0,0,1,27.014,55Zm0,15.043V82.938c-4.486-.5-8.476-4.373-11.211-10.229A28.924,28.924,0,0,1,42,70.043ZM71.967,53H60.984a47.382,47.382,0,0,0-3.194-16.76,30.949,30.949,0,0,0,5.006-3.4A29.037,29.037,0,0,1,71.967,53ZM23.2,32.837a30.949,30.949,0,0,0,5.006,3.4A47.382,47.382,0,0,0,25.016,53H14.033A29.037,29.037,0,0,1,23.2,32.837ZM14.025,55H25.015a47.177,47.177,0,0,0,3.236,16.737A30.95,30.95,0,0,0,23.2,75.164,28.918,28.918,0,0,1,14.025,55Z" fill="#8257e5"/><path d="M58.557,15.029a1,1,0,0,0-.936-.095L43,20.919,28.379,14.935A1,1,0,0,0,27,15.86v12a1,1,0,0,0,.621.925l15,6.14a1,1,0,0,0,.758,0l15-6.14A1,1,0,0,0,59,27.86v-12a1,1,0,0,0-.443-.831Z" fill="#d0dbf7"/><path d="M58.557,15.029a1,1,0,0,0-.936-.095L43,20.919,28.379,14.935A1,1,0,0,0,27,15.86V18.7l14.867,6.082a3,3,0,0,0,2.269,0L59,18.7V15.86A1,1,0,0,0,58.557,15.029Z" fill="#8ea6ce"/><path d="M65.378,12.074l-22-9a1,1,0,0,0-.757,0l-22,9a1,1,0,0,0,0,1.852l22,9a1,1,0,0,0,.757,0l22-9a1,1,0,0,0,0-1.852Z" fill="#e6ecff"/><path d="M73,27a1,1,0,0,1-1-1V14H43a1,1,0,0,1,0-2H73a1,1,0,0,1,1,1V26A1,1,0,0,1,73,27Z" fill="#8257e5"/><circle cx="3" cy="3" r="3" transform="translate(70 25)" fill="#bface9"/></g></svg>