<svg xmlns="http://www.w3.org/2000/svg" width="236.096" height="238.652" viewBox="0 0 236.096 238.652">
  <defs>
    <style>
      .cls-1 {
        fill: #fff;
      }
    </style>
  </defs>
  <g id="Blanco" transform="translate(-280.169 -422.168)">
    <path id="Subtraction_3" data-name="Subtraction 3" class="cls-1" d="M94.3-794.8a118.387,118.387,0,0,1-30.628-4.051,119.684,119.684,0,0,1-13.77-4.6,37.232,37.232,0,0,0,2.12-3.131,116.667,116.667,0,0,0,12.37,4.067,113.639,113.639,0,0,0,29.4,3.866A115.336,115.336,0,0,0,174.8-832.139l.005-.005a114.2,114.2,0,0,0,29.475-51.144,113.477,113.477,0,0,0-11.411-86.674,113.476,113.476,0,0,0-69.358-53.219,113.644,113.644,0,0,0-29.4-3.866A115.326,115.326,0,0,0,13.1-993.562l0,0a114.2,114.2,0,0,0-29.475,51.143A113.475,113.475,0,0,0-4.966-855.74c.3.514.6,1.031.9,1.538-.922.788-1.816,1.631-2.658,2.508-.442-.73-.869-1.452-1.27-2.148a118.946,118.946,0,0,1-9.4-20.6,118.111,118.111,0,0,1-5.322-22.18,117.422,117.422,0,0,1-.909-23.179,118.916,118.916,0,0,1,3.84-23.6,118.351,118.351,0,0,1,12-28.886A117.355,117.355,0,0,1,10.673-996.24,118.685,118.685,0,0,1,62.7-1026.6a117.425,117.425,0,0,1,30.478-4.293c.307,0,.627,0,.949,0a118.431,118.431,0,0,1,30.638,4.052,118.81,118.81,0,0,1,22.354,8.472A117.431,117.431,0,0,1,166.736-1006a118.061,118.061,0,0,1,16.547,15.7,118.869,118.869,0,0,1,13.142,18.44,118.856,118.856,0,0,1,9.4,20.6,118.086,118.086,0,0,1,5.322,22.18,117.491,117.491,0,0,1,.909,23.179,118.917,118.917,0,0,1-3.84,23.6,118.326,118.326,0,0,1-12,28.885,117.4,117.4,0,0,1-18.453,23.957l0,0A118.666,118.666,0,0,1,125.737-799.1a117.384,117.384,0,0,1-30.479,4.292C94.945-794.8,94.622-794.8,94.3-794.8Z" transform="translate(304 1453.068)"/>
    <g id="Group_4" data-name="Group 4" transform="translate(0 1)">
      <path id="check_circle_FILL1_wght400_GRAD0_opsz48" class="cls-1" d="M32.786,45.449l-8.273-8.273a2.65,2.65,0,0,0-3.714,0,2.715,2.715,0,0,0-.844,1.984,2.577,2.577,0,0,0,.76,1.9l10.3,10.3a2.664,2.664,0,0,0,3.546,0L54.819,31.1a2.526,2.526,0,0,0,.76-1.857,2.669,2.669,0,0,0-.844-1.942,2.577,2.577,0,0,0-1.9-.76,2.715,2.715,0,0,0-1.984.844Zm4.981,26.085a34.249,34.249,0,0,1-13.338-2.575A32.682,32.682,0,0,1,6.575,51.1,34.249,34.249,0,0,1,4,37.767,34.03,34.03,0,0,1,6.575,24.513a32.956,32.956,0,0,1,7.133-10.721A33.664,33.664,0,0,1,37.767,4,33.5,33.5,0,0,1,71.534,37.767a33.664,33.664,0,0,1-9.792,24.059,32.956,32.956,0,0,1-10.721,7.133A34.03,34.03,0,0,1,37.767,71.534Z" transform="translate(286.285 588.285)"/>
    </g>
    <g id="Group_1" data-name="Group 1" transform="translate(7.36 6.906)">
      <path id="Subtraction_2" data-name="Subtraction 2" class="cls-1" d="M10.6-931.9a63.9,63.9,0,0,1-24.127-4.695,63.72,63.72,0,0,1-21.21-14.084,63.716,63.716,0,0,1-14.084-21.21,63.9,63.9,0,0,1-4.695-24.127,63.9,63.9,0,0,1,4.695-24.127,63.716,63.716,0,0,1,14.084-21.21,63.719,63.719,0,0,1,21.21-14.084,63.9,63.9,0,0,1,24.127-4.695,63.9,63.9,0,0,1,24.127,4.695,63.719,63.719,0,0,1,21.21,14.084,63.714,63.714,0,0,1,14.084,21.21,63.9,63.9,0,0,1,4.695,24.127,63.9,63.9,0,0,1-4.695,24.127,63.716,63.716,0,0,1-14.084,21.21,63.719,63.719,0,0,1-21.21,14.084A63.9,63.9,0,0,1,10.6-931.9ZM8.438-972.165a9.314,9.314,0,0,0-3.64.7,9.215,9.215,0,0,0-2.886,1.9,8.851,8.851,0,0,0-1.924,2.808,8.67,8.67,0,0,0-.7,3.484,8.854,8.854,0,0,0,.7,3.51,8.776,8.776,0,0,0,1.924,2.834A8.864,8.864,0,0,0,4.8-955.057a9.622,9.622,0,0,0,3.64.676,9.483,9.483,0,0,0,3.588-.676,9.179,9.179,0,0,0,2.912-1.872,8.582,8.582,0,0,0,1.949-2.834,8.855,8.855,0,0,0,.7-3.51,8.67,8.67,0,0,0-.7-3.484,8.653,8.653,0,0,0-1.949-2.808,9.552,9.552,0,0,0-2.912-1.9A9.18,9.18,0,0,0,8.438-972.165Zm.936-47.008a8.17,8.17,0,0,1,5.642,1.846,6.37,6.37,0,0,1,2.054,4.966,8.9,8.9,0,0,1-1.092,4.5,14.514,14.514,0,0,1-2.756,3.433,32.788,32.788,0,0,1-3.588,2.86,42.637,42.637,0,0,0-3.587,2.756,14.268,14.268,0,0,0-2.757,3.146,7.328,7.328,0,0,0-1.092,4c0,.2.009.413.026.625s.043.417.078.624l1.144,8.372H14.471l1.455-7.28a5.532,5.532,0,0,1,1.638-2.911,32.076,32.076,0,0,1,3.12-2.652c1.19-.9,2.467-1.867,3.8-2.886a21.182,21.182,0,0,0,3.692-3.666,18.8,18.8,0,0,0,2.782-4.992,19.347,19.347,0,0,0,1.092-6.863,18.853,18.853,0,0,0-1.481-7.566,16.379,16.379,0,0,0-4.238-5.824,19.181,19.181,0,0,0-6.682-3.718,28.076,28.076,0,0,0-8.814-1.3,33.171,33.171,0,0,0-6.474.6,30.544,30.544,0,0,0-5.59,1.664,32.888,32.888,0,0,0-4.863,2.47,36.652,36.652,0,0,0-4.186,3.016l4.264,6.552a3.6,3.6,0,0,0,3.328,1.924,3.926,3.926,0,0,0,1.976-.572c.665-.385,1.444-.813,2.315-1.274a18.652,18.652,0,0,1,3.172-1.274A15.865,15.865,0,0,1,9.374-1019.173Z" transform="translate(380.257 1529.109)"/>
    </g>
  </g>
</svg>
