<svg xmlns="http://www.w3.org/2000/svg" xmlns:xlink="http://www.w3.org/1999/xlink" width="236.095" height="238.651" viewBox="0 0 236.095 238.651">
  <defs>
    <style>
      .cls-1 {
        fill: url(#linear-gradient);
      }

      .cls-2 {
        fill: url(#linear-gradient-2);
      }

      .cls-3 {
        fill: #fff;
        font-size: 104px;
        font-family: Lato-Black, Lato;
        font-weight: 800;
      }
    </style>
    <linearGradient id="linear-gradient" x1="0.5" x2="0.5" y2="1" gradientUnits="objectBoundingBox">
      <stop offset="0" stop-color="#57b6e0"/>
      <stop offset="1" stop-color="#5106ff"/>
    </linearGradient>
    <linearGradient id="linear-gradient-2" x1="0.159" y1="0.129" x2="0.879" y2="0.835" xlink:href="#linear-gradient"/>
  </defs>
  <g id="Color" transform="translate(-280.169 -422.168)">
    <path id="Subtraction_4" data-name="Subtraction 4" class="cls-1" d="M-4023.7-67.734a118.4,118.4,0,0,1-30.627-4.051,119.838,119.838,0,0,1-13.771-4.6,37.3,37.3,0,0,0,2.12-3.131,116.661,116.661,0,0,0,12.37,4.067,113.643,113.643,0,0,0,29.4,3.866,115.334,115.334,0,0,0,81.011-33.484l.005-.006a114.193,114.193,0,0,0,29.475-51.144,113.47,113.47,0,0,0-11.411-86.673,113.469,113.469,0,0,0-69.357-53.219,113.646,113.646,0,0,0-29.4-3.866,115.322,115.322,0,0,0-81.009,33.486l-.005.005a114.188,114.188,0,0,0-29.474,51.143,113.467,113.467,0,0,0,11.41,86.674c.292.506.6,1.024.9,1.538-.921.787-1.815,1.63-2.659,2.508-.449-.741-.875-1.464-1.27-2.148a118.9,118.9,0,0,1-9.4-20.6,117.96,117.96,0,0,1-5.323-22.18,117.534,117.534,0,0,1-.909-23.178,119.007,119.007,0,0,1,3.84-23.6,118.367,118.367,0,0,1,12-28.886,117.462,117.462,0,0,1,18.453-23.957,118.693,118.693,0,0,1,52.024-30.364,117.4,117.4,0,0,1,30.479-4.292c.314,0,.637,0,.96,0a118.408,118.408,0,0,1,30.627,4.051,118.914,118.914,0,0,1,22.354,8.473,117.363,117.363,0,0,1,19.619,12.376,118.046,118.046,0,0,1,16.548,15.7,118.793,118.793,0,0,1,13.141,18.441,118.849,118.849,0,0,1,9.4,20.6,117.98,117.98,0,0,1,5.322,22.18,117.475,117.475,0,0,1,.91,23.178,118.948,118.948,0,0,1-3.84,23.6,118.335,118.335,0,0,1-12,28.886,117.446,117.446,0,0,1-18.452,23.957l0,.005a118.682,118.682,0,0,1-52.019,30.36,117.357,117.357,0,0,1-30.479,4.292C-4023.061-67.735-4023.384-67.734-4023.7-67.734Z" transform="translate(4422 726)"/>
    <g id="Group_4" data-name="Group 4" transform="translate(0 1)">
      <path id="check_circle_FILL1_wght400_GRAD0_opsz48" class="cls-2" d="M32.786,45.449l-8.273-8.273a2.65,2.65,0,0,0-3.714,0,2.715,2.715,0,0,0-.844,1.984,2.577,2.577,0,0,0,.76,1.9l10.3,10.3a2.664,2.664,0,0,0,3.546,0L54.819,31.1a2.526,2.526,0,0,0,.76-1.857,2.669,2.669,0,0,0-.844-1.942,2.577,2.577,0,0,0-1.9-.76,2.715,2.715,0,0,0-1.984.844Zm4.981,26.085a34.249,34.249,0,0,1-13.338-2.575A32.682,32.682,0,0,1,6.575,51.1,34.249,34.249,0,0,1,4,37.767,34.03,34.03,0,0,1,6.575,24.513a32.956,32.956,0,0,1,7.133-10.721A33.664,33.664,0,0,1,37.767,4,33.5,33.5,0,0,1,71.534,37.767a33.664,33.664,0,0,1-9.792,24.059,32.956,32.956,0,0,1-10.721,7.133A34.03,34.03,0,0,1,37.767,71.534Z" transform="translate(286.285 588.285)"/>
    </g>
    <g id="Group_1" data-name="Group 1" transform="translate(7.36 6.906)">
      <circle id="Ellipse_2" data-name="Ellipse 2" class="cls-1" cx="64.116" cy="64.116" r="64.116" transform="translate(300.182 533.094) rotate(-45)"/>
      <text id="_" data-name="?" class="cls-3" transform="translate(368 574)"><tspan x="0" y="0">?</tspan></text>
    </g>
  </g>
</svg>
