<svg xmlns="http://www.w3.org/2000/svg" viewBox="0 0 88 88"><title>Artboard-14</title><g id="Ebook"><rect x="19" y="1" width="50" height="86" rx="4" ry="4" style="fill:#e6ecff"/><path d="M64,5H48a1,1,0,0,0-1,1,3,3,0,0,1-6,0,1,1,0,0,0-1-1H24a1,1,0,0,0-1,1V82a1,1,0,0,0,1,1H64a1,1,0,0,0,1-1V6A1,1,0,0,0,64,5Z" style="fill:#d0dbf7"/><rect x="21" y="34" width="46" height="24" style="fill:#376cfb"/><rect x="44" y="34" width="23" height="24" style="fill:#2946ed"/><circle cx="44" cy="6" r="1" style="fill:#4294ff"/><path d="M40,30H24V54H40a4,4,0,0,1,4,4V34A4,4,0,0,0,40,30Z" style="fill:#4294ff"/><path d="M48,30a4,4,0,0,0-4,4V58a4,4,0,0,1,4-4H64V30Z" style="fill:#376cfb"/><path d="M38.53,41.1519l-8-5A1.0005,1.0005,0,0,0,29,37V47a1,1,0,0,0,1.53.8481l8-5a1.0005,1.0005,0,0,0,0-1.6962Z" style="fill:#376cfb"/><path d="M60,35H48a1,1,0,0,1,0-2H60a1,1,0,0,1,0,2Z" style="fill:#2946ed"/><path d="M60,39H48a1,1,0,0,1,0-2H60a1,1,0,0,1,0,2Z" style="fill:#2946ed"/><path d="M60,43H48a1,1,0,0,1,0-2H60a1,1,0,0,1,0,2Z" style="fill:#2946ed"/><path d="M60,47H48a1,1,0,0,1,0-2H60a1,1,0,0,1,0,2Z" style="fill:#2946ed"/><path d="M60,51H48a1,1,0,0,1,0-2H60a1,1,0,0,1,0,2Z" style="fill:#2946ed"/></g></svg>