<svg xmlns="http://www.w3.org/2000/svg" viewBox="0 0 88 88"><title>Artboard-40</title><g id="Phone_Chatv" data-name="Phone Chatv"><rect x="19" y="1" width="50" height="86" rx="4" ry="4" style="fill:#e6ecff"/><path d="M64,5H48a1,1,0,0,0-1,1,3,3,0,0,1-6,0,1,1,0,0,0-1-1H24a1,1,0,0,0-1,1V82a1,1,0,0,0,1,1H64a1,1,0,0,0,1-1V6A1,1,0,0,0,64,5Z" style="fill:#d0dbf7"/><circle cx="44" cy="6" r="1" style="fill:#4294ff"/><path d="M46.28,83H27.72l.86-3.42a8.6773,8.6773,0,0,1,16.84,0Z" style="fill:#4294ff"/><circle cx="37" cy="66" r="5" style="fill:#4294ff"/><path d="M77,61H50a3.0033,3.0033,0,0,0-3,3V77a1,1,0,0,0,1.5146.8574L53.2773,75H77a3.0033,3.0033,0,0,0,3-3V64A3.0033,3.0033,0,0,0,77,61Z" style="fill:#4294ff"/><path d="M74,67H53a1,1,0,0,1,0-2H74a1,1,0,0,1,0,2Z" style="fill:#376cfb"/><path d="M69,71H53a1,1,0,0,1,0-2H69a1,1,0,0,1,0,2Z" style="fill:#376cfb"/><path d="M59.97,56.7578l-.5449-2.1787a8.6837,8.6837,0,0,0-16.85,0L42.03,56.7578A1,1,0,0,0,43,58H59a1,1,0,0,0,.97-1.2422Z" style="fill:#4294ff"/><circle cx="51" cy="41" r="5" style="fill:#4294ff"/><path d="M45.97,31.7578l-.5449-2.1787a8.6837,8.6837,0,0,0-16.85,0L28.03,31.7578A1,1,0,0,0,29,33H45a1,1,0,0,0,.97-1.2422Z" style="fill:#4294ff"/><circle cx="37" cy="16" r="5" style="fill:#4294ff"/><path d="M38,36H11a3.0033,3.0033,0,0,0-3,3v8a3.0033,3.0033,0,0,0,3,3H34.7227l4.7627,2.8574A1,1,0,0,0,41,52V39A3.0033,3.0033,0,0,0,38,36Z" style="fill:#4294ff"/><path d="M35,42H14a1,1,0,0,1,0-2H35a1,1,0,0,1,0,2Z" style="fill:#376cfb"/><path d="M35,46H19a1,1,0,0,1,0-2H35a1,1,0,0,1,0,2Z" style="fill:#376cfb"/><path d="M77,11H50a3.0033,3.0033,0,0,0-3,3V27a1,1,0,0,0,1.5146.8574L53.2773,25H77a3.0033,3.0033,0,0,0,3-3V14A3.0033,3.0033,0,0,0,77,11Z" style="fill:#4294ff"/><path d="M74,17H53a1,1,0,0,1,0-2H74a1,1,0,0,1,0,2Z" style="fill:#376cfb"/><path d="M69,21H53a1,1,0,0,1,0-2H69a1,1,0,0,1,0,2Z" style="fill:#376cfb"/></g></svg>