<svg xmlns="http://www.w3.org/2000/svg" viewBox="0 0 88 88"><title>Artboard-25</title><g id="Cloud_Book" data-name="Cloud Book"><rect x="4" y="27" width="74" height="31" rx="1" ry="1" style="fill:#376cfb"/><path d="M77,27H41V58H77a1,1,0,0,0,1-1V28A1,1,0,0,0,77,27Z" style="fill:#2946ed"/><path d="M76,69a1,1,0,0,1-1-1V65a1.0006,1.0006,0,0,0-1-1H60a5.0059,5.0059,0,0,1-5-5V54a1,1,0,0,1,2,0v5a3.0033,3.0033,0,0,0,3,3H74a3.0033,3.0033,0,0,1,3,3v3A1,1,0,0,1,76,69Z" style="fill:#4294ff"/><path d="M27,53H19a1,1,0,0,0-1,1V67a1,1,0,0,0,1.707.707L23,64.4141l3.293,3.2929A1,1,0,0,0,28,67V54A1,1,0,0,0,27,53Z" style="fill:#2946ed"/><path d="M10,24a1,1,0,0,0-1,1V53a1,1,0,0,0,1,1H37a4,4,0,0,1,4,4V24Z" style="fill:#4294ff"/><path d="M72,24H41V58a4,4,0,0,1,4-4H72a1,1,0,0,0,1-1V25A1,1,0,0,0,72,24Z" style="fill:#376cfb"/><path d="M36,47H22a1,1,0,0,1,0-2H36a1,1,0,0,1,0,2Z" style="fill:#376cfb"/><path d="M28,43H14a1,1,0,0,1,0-2H28a1,1,0,0,1,0,2Z" style="fill:#376cfb"/><path d="M36,39H14a1,1,0,0,1,0-2H36a1,1,0,0,1,0,2Z" style="fill:#376cfb"/><path d="M29,51H14a1,1,0,0,1,0-2H29a1,1,0,0,1,0,2Z" style="fill:#376cfb"/><path d="M60,47H46a1,1,0,0,1,0-2H60a1,1,0,0,1,0,2Z" style="fill:#2946ed"/><path d="M68,43H46a1,1,0,0,1,0-2H68a1,1,0,0,1,0,2Z" style="fill:#2946ed"/><path d="M68,39H59a1,1,0,0,1,0-2h9a1,1,0,0,1,0,2Z" style="fill:#2946ed"/><path d="M68,51H54a1,1,0,0,1,0-2H68a1,1,0,0,1,0,2Z" style="fill:#2946ed"/><path d="M68,47H64a1,1,0,0,1,0-2h4a1,1,0,0,1,0,2Z" style="fill:#2946ed"/><path d="M50,51H46a1,1,0,0,1,0-2h4a1,1,0,0,1,0,2Z" style="fill:#2946ed"/><path d="M55,39H46a1,1,0,0,1,0-2h9a1,1,0,0,1,0,2Z" style="fill:#2946ed"/><path d="M36,51H33a1,1,0,0,1,0-2h3a1,1,0,0,1,0,2Z" style="fill:#376cfb"/><path d="M18,47H14a1,1,0,0,1,0-2h4a1,1,0,0,1,0,2Z" style="fill:#376cfb"/><path d="M36,43H32a1,1,0,0,1,0-2h4a1,1,0,0,1,0,2Z" style="fill:#376cfb"/><path d="M78,67H74a6.0066,6.0066,0,0,0-6,6v6a8,8,0,0,0,16,0V73A6.0066,6.0066,0,0,0,78,67Z" style="fill:#376cfb"/><path d="M76,75a1,1,0,0,1-1-1V72a1,1,0,0,1,2,0v2A1,1,0,0,1,76,75Z" style="fill:#2946ed"/><path d="M57.6708,11.13A12.9388,12.9388,0,0,0,45,1,13.09,13.09,0,0,0,34.2834,6.6283,8.9829,8.9829,0,0,0,22,15c0,.0721.0057.1319.0072.2A10,10,0,0,0,24,35H56a11.9929,11.9929,0,0,0,1.6708-23.87Z" style="fill:#e6ecff"/><path d="M40.65,12.18a1.0037,1.0037,0,0,1-1.3-.56,8.9608,8.9608,0,0,0-4.22-4.61c-.28-.14-.56-.27-.85-.39a12.7551,12.7551,0,0,1,1.32-1.6,4.5382,4.5382,0,0,1,.45.21,10.9376,10.9376,0,0,1,5.15,5.65A.9978.9978,0,0,1,40.65,12.18Z" style="fill:#b7c6e2"/><path d="M57.67,11.12A11.5186,11.5186,0,0,0,56,11a11.9319,11.9319,0,0,0-6.27,1.77,1.0034,1.0034,0,0,1-1.05-1.71A13.9809,13.9809,0,0,1,56,9c.34,0,.68.01,1.01.04A14.01,14.01,0,0,1,57.67,11.12Z" style="fill:#b7c6e2"/><path d="M31.25,16.67a.9949.9949,0,0,1-1.4.22A9.8913,9.8913,0,0,0,24,15a10.0231,10.0231,0,0,0-1.99.2c0-.07-.01-.13-.01-.2a9.4614,9.4614,0,0,1,.19-1.86,11.9723,11.9723,0,0,1,8.84,2.13A1.0144,1.0144,0,0,1,31.25,16.67Z" style="fill:#b7c6e2"/><path d="M43,24.0833V36H41V24.0833a1.0032,1.0032,0,1,1,2,0Z" style="fill:#376cfb"/><circle cx="42" cy="21" r="4" style="fill:#4294ff"/></g></svg>