<svg xmlns="http://www.w3.org/2000/svg" viewBox="0 0 88 88"><title>Artboard-36</title><g id="Study_Learning" data-name="Study Learning"><path d="M76,16H12a4.0045,4.0045,0,0,0-4,4V68a1,1,0,0,0,1,1H79a1,1,0,0,0,1-1V20A4.0045,4.0045,0,0,0,76,16Z" style="fill:#e6ecff"/><path d="M80,68a1.0029,1.0029,0,0,1-1,1H9a1.0029,1.0029,0,0,1-1-1V20a3.9989,3.9989,0,0,1,4-4h5v9.19A42.8142,42.8142,0,0,0,59.81,68Z" style="fill:#b7c6e2"/><rect x="12" y="20" width="64" height="38" rx="1" ry="1" style="fill:#d0dbf7"/><path d="M32.32,58H13a1.0029,1.0029,0,0,1-1-1V21a1.0029,1.0029,0,0,1,1-1h4v5.19A42.6942,42.6942,0,0,0,32.32,58Z" style="fill:#8ea6ce"/><path d="M86,62H64a1,1,0,0,0-.832.4453L61.4648,65h-34.93L24.832,62.4453A1,1,0,0,0,24,62H2a1,1,0,0,0-1,1v4a5.0059,5.0059,0,0,0,5,5H82a5.0059,5.0059,0,0,0,5-5V63A1,1,0,0,0,86,62Z" style="fill:#4294ff"/><path d="M86.9,68A5,5,0,0,1,82,72H6a5.0018,5.0018,0,0,1-5-5V63a1.0029,1.0029,0,0,1,1-1H24a.995.995,0,0,1,.83.45L26.54,65h17.5a42.5874,42.5874,0,0,0,15.77,3Z" style="fill:#2965ed"/><path d="M44,31.8838a1,1,0,0,1-1-1C43,28.1572,44.2539,23,49,23a1,1,0,0,1,0,2c-3.9541,0-4,5.8252-4,5.8838A1,1,0,0,1,44,31.8838Z" style="fill:#2946ed"/><path d="M54.86,33.5313a7.4366,7.4366,0,0,0-1.3624-3.4659,5.9331,5.9331,0,0,0-6.1347-2.2461,6.363,6.363,0,0,0-2.8189,1.8282.7629.7629,0,0,1-1.0888,0,6.363,6.363,0,0,0-2.8189-1.8282,5.931,5.931,0,0,0-6.1347,2.2461A7.437,7.437,0,0,0,33.14,33.53a15.9247,15.9247,0,0,0,.9922,7.9424c1.14,2.9785,2.7051,4.7812,4.6514,5.3564a4.0416,4.0416,0,0,0,1.1514.168,4.75,4.75,0,0,0,2.6616-.8809,2.4961,2.4961,0,0,1,2.8076,0,4.4288,4.4288,0,0,0,3.813.7129c1.9463-.5752,3.5112-2.3779,4.6514-5.3564A15.9222,15.9222,0,0,0,54.86,33.5313Z" style="fill:#376cfb"/><path d="M38.9922,42.8457a.9957.9957,0,0,1-.73-.3174,7.62,7.62,0,0,1-1.3955-2.4863,11.88,11.88,0,0,1-.7734-5.9024,1,1,0,1,1,1.9765.3028,9.8662,9.8662,0,0,0,.6646,4.8838,5.7823,5.7823,0,0,0,.9888,1.8369,1,1,0,0,1-.7305,1.6826Z" style="fill:#2946ed"/><path d="M64,53a3,3,0,0,1,0-6,1,1,0,0,0,0-2H28a5,5,0,0,0,0,10H64a1,1,0,0,0,0-2Z" style="fill:#4294ff"/><path d="M61.1843,49H28a1,1,0,0,0,0,2H61.1843a2.8051,2.8051,0,0,1,0-2Z" style="fill:#2965ed"/><path d="M28,55h1.1014a42.9975,42.9975,0,0,1-5.6007-7.1415A4.9422,4.9422,0,0,0,23,50,5.0059,5.0059,0,0,0,28,55Z" style="fill:#2965ed"/></g></svg>