<svg xmlns="http://www.w3.org/2000/svg" viewBox="0 0 88 88"><title>Artboard-35</title><g id="Teacher"><path d="M76,16H12a4.0045,4.0045,0,0,0-4,4V68a1,1,0,0,0,1,1H79a1,1,0,0,0,1-1V20A4.0045,4.0045,0,0,0,76,16Z" style="fill:#e6ecff"/><path d="M80,68a1.0029,1.0029,0,0,1-1,1H9a1.0029,1.0029,0,0,1-1-1V20a3.9989,3.9989,0,0,1,4-4h5v9.19A42.8142,42.8142,0,0,0,59.81,68Z" style="fill:#b7c6e2"/><path d="M80,68a1.0029,1.0029,0,0,1-1,1H9a1.0029,1.0029,0,0,1-1-1V20a3.9989,3.9989,0,0,1,4-4h5v9.19A42.8142,42.8142,0,0,0,59.81,68Z" style="fill:#b7c6e2"/><rect x="12" y="20" width="64" height="38" rx="1" ry="1" style="fill:#d0dbf7"/><path d="M32.32,58H13a1.0029,1.0029,0,0,1-1-1V21a1.0029,1.0029,0,0,1,1-1h4v5.19A42.6942,42.6942,0,0,0,32.32,58Z" style="fill:#8ea6ce"/><path d="M86,62H64a1,1,0,0,0-.832.4453L61.4648,65h-34.93L24.832,62.4453A1,1,0,0,0,24,62H2a1,1,0,0,0-1,1v4a5.0059,5.0059,0,0,0,5,5H82a5.0059,5.0059,0,0,0,5-5V63A1,1,0,0,0,86,62Z" style="fill:#4294ff"/><path d="M86.9,68A5,5,0,0,1,82,72H6a5.0018,5.0018,0,0,1-5-5V63a1.0029,1.0029,0,0,1,1-1H24a.995.995,0,0,1,.83.45L26.54,65h17.5a42.5874,42.5874,0,0,0,15.77,3Z" style="fill:#2965ed"/><circle cx="27" cy="33" r="6" style="fill:#4294ff"/><rect x="40" y="27" width="31" height="26" rx="1" ry="1" style="fill:#376cfb"/><path d="M66,41H55a1,1,0,0,1,0-2H66a1,1,0,0,1,0,2Z" style="fill:#2946ed"/><path d="M66,37H55a1,1,0,0,1,0-2H66a1,1,0,0,1,0,2Z" style="fill:#2946ed"/><path d="M66,33H45a1,1,0,0,1,0-2H66a1,1,0,0,1,0,2Z" style="fill:#2946ed"/><path d="M66,49H45a1,1,0,0,1,0-2H66a1,1,0,0,1,0,2Z" style="fill:#2946ed"/><path d="M66,45H52a1,1,0,0,1,0-2H66a1,1,0,0,1,0,2Z" style="fill:#2946ed"/><path d="M51.6406,36.2324a.9743.9743,0,0,0-.8193-.2158l-33,6A.999.999,0,0,0,17,43V58H38V46.78l7.3379-1.5567A8.4463,8.4463,0,0,0,52,37,.9987.9987,0,0,0,51.6406,36.2324Z" style="fill:#4294ff"/><path d="M20.2518,41.5747l-2.43.4419A.999.999,0,0,0,17,43V58H32.32A42.88,42.88,0,0,1,20.2518,41.5747Z" style="fill:#2965ed"/></g></svg>