<svg xmlns="http://www.w3.org/2000/svg" viewBox="0 0 88 88"><title>Artboard-13</title><g id="Pin"><path d="M77.8945,85.5527l-8-16A1,1,0,0,0,69,69H19a1,1,0,0,0-.8945.5527l-8,16A1,1,0,0,0,11,87H77a1,1,0,0,0,.8945-1.4473Z" style="fill:#4294ff"/><path d="M46.19,80.05c1.0539-1.1264,4.9379-5.3356,9.57-11.05H32.237c4.6329,5.7142,8.5181,9.923,9.5721,11.0488a2.9993,2.9993,0,0,0,4.3813.001Z" style="fill:#2965ed"/><path d="M44,1A30.034,30.034,0,0,0,14,31c0,16.2246,28.0747,46.4063,29.27,47.6831a.9993.9993,0,0,0,1.46,0C45.9248,77.4063,74,47.2246,74,31A30.034,30.034,0,0,0,44,1Z" style="fill:#e6ecff"/><rect x="24" y="21" width="40" height="19" style="fill:#376cfb"/><rect x="44" y="21" width="20" height="19" style="fill:#2946ed"/><path d="M40,18H28V36H40a4,4,0,0,1,4,4V22A4,4,0,0,0,40,18Z" style="fill:#4294ff"/><path d="M48,18a4,4,0,0,0-4,4V40a4,4,0,0,1,4-4H60V18Z" style="fill:#376cfb"/><path d="M39.5547,26.168l-6-4A1,1,0,0,0,32,23v8a1,1,0,0,0,1.5547.832l6-4a1,1,0,0,0,0-1.664Z" style="fill:#376cfb"/><path d="M56,24H48a1,1,0,0,1,0-2h8a1,1,0,0,1,0,2Z" style="fill:#2946ed"/><path d="M56,28H48a1,1,0,0,1,0-2h8a1,1,0,0,1,0,2Z" style="fill:#2946ed"/><path d="M56,32H48a1,1,0,0,1,0-2h8a1,1,0,0,1,0,2Z" style="fill:#2946ed"/></g></svg>