<svg xmlns="http://www.w3.org/2000/svg" viewBox="0 0 88 88"><title>Artboard-6</title><g id="Video_Tutorial" data-name="Video Tutorial"><path d="M74,68V65H14v7a4,4,0,0,0,4,4H74A4.0354,4.0354,0,0,1,74,68Z" style="fill:#d0dbf7"/><path d="M73,1H18a4,4,0,0,0-4,4V72a4,4,0,0,1,4-4H74V2A1,1,0,0,0,73,1Z" style="fill:#e6ecff"/><path d="M18,1a4,4,0,0,0-4,4V72a4,4,0,0,1,4-4h3V1Z" style="fill:#4294ff"/><circle cx="47" cy="23" r="14" style="fill:#4294ff"/><path d="M53.5146,22.1426l-10-6A1,1,0,0,0,42,17V29a1,1,0,0,0,1.5146.8574l10-6a1,1,0,0,0,0-1.7148Z" style="fill:#376cfb"/><path d="M66,43H28a1,1,0,0,1,0-2H66a1,1,0,0,1,0,2Z" style="fill:#4294ff"/><path d="M58,49H28a1,1,0,0,1,0-2H58a1,1,0,0,1,0,2Z" style="fill:#4294ff"/><path d="M58,55H28a1,1,0,0,1,0-2H58a1,1,0,0,1,0,2Z" style="fill:#4294ff"/><path d="M58,61H28a1,1,0,0,1,0-2H58a1,1,0,0,1,0,2Z" style="fill:#4294ff"/><path d="M66,49H62a1,1,0,0,1,0-2h4a1,1,0,0,1,0,2Z" style="fill:#4294ff"/><path d="M66,55H62a1,1,0,0,1,0-2h4a1,1,0,0,1,0,2Z" style="fill:#4294ff"/><path d="M66,61H62a1,1,0,0,1,0-2h4a1,1,0,0,1,0,2Z" style="fill:#4294ff"/><path d="M70.6288,73a4.3226,4.3226,0,0,1,0-2H18a1,1,0,0,0,0,2Z" style="fill:#becced"/><path d="M58,71H44V86a1,1,0,0,0,1.64.7681L51,82.3018l5.36,4.4663A1,1,0,0,0,58,86Z" style="fill:#4294ff"/></g></svg>