<svg xmlns="http://www.w3.org/2000/svg" viewBox="0 0 88 88"><title>Artboard-21</title><g id="Achievement"><path d="M68.73,47.3164l-15-16A1,1,0,0,0,52,32V54a1,1,0,0,0,1,1H68a1,1,0,0,0,1-1V48A.998.998,0,0,0,68.73,47.3164Z" style="fill:#4294ff"/><path d="M35.3677,31.07a.9953.9953,0,0,0-1.0972.2461l-15,16A.998.998,0,0,0,19,48v6a1,1,0,0,0,1,1H35a1,1,0,0,0,1-1V32A.999.999,0,0,0,35.3677,31.07Z" style="fill:#4294ff"/><path d="M32.8009,77.0406a9.9737,9.9737,0,0,0-9.3231-8.0151,8.9845,8.9845,0,0,0-15.9751,2A7.0041,7.0041,0,0,0,1,78v8a1,1,0,0,0,1,1H40a1,1,0,0,0,1-1A9.0087,9.0087,0,0,0,32.8009,77.0406Z" style="fill:#4294ff"/><path d="M11.78,70.88a.99.99,0,0,1-1.29.58,6.7529,6.7529,0,0,0-2.99-.44,8.7023,8.7023,0,0,1,1-2,8.7477,8.7477,0,0,1,2.71.57A.9974.9974,0,0,1,11.78,70.88Z" style="fill:#2965ed"/><path d="M32.8,77.02v.02a8.9469,8.9469,0,0,0-5.83,1.5,1.0012,1.0012,0,1,1-1.12-1.66A10.95,10.95,0,0,1,32.15,75h.01A9.7089,9.7089,0,0,1,32.8,77.02Z" style="fill:#2965ed"/><path d="M23.47,69.02a9.625,9.625,0,0,0-3.63.48.9961.9961,0,0,1-.63-1.89,11.5907,11.5907,0,0,1,2.47-.54h.01A9.4328,9.4328,0,0,1,23.47,69.02Z" style="fill:#2965ed"/><path d="M41,79a1,1,0,0,1-1-1V68a1,1,0,0,1,2,0V78A1,1,0,0,1,41,79Z" style="fill:#4294ff"/><path d="M47,79a1,1,0,0,1-1-1V68a1,1,0,0,1,2,0V78A1,1,0,0,1,47,79Z" style="fill:#4294ff"/><rect x="37" y="59" width="14" height="6" rx="1" ry="1" style="fill:#376cfb"/><path d="M36,32V54a1.0029,1.0029,0,0,1-1,1H32V33.74l2.27-2.42A.9976.9976,0,0,1,36,32Z" style="fill:#2965ed"/><path d="M56,33.74V55H53a1.0029,1.0029,0,0,1-1-1V32a.9976.9976,0,0,1,1.73-.68Z" style="fill:#2965ed"/><path d="M44.8223,1.4307a1.0383,1.0383,0,0,0-1.6446,0L34,15V60a1,1,0,0,0,1,1H53a1,1,0,0,0,1-1V15Z" style="fill:#e6ecff"/><rect x="41" y="14" width="6" height="43" style="fill:#376cfb"/><path d="M32.16,75h-.01a.4714.4714,0,0,0-.06-.15C32.11,74.9,32.14,74.95,32.16,75Z"/><path d="M55.1991,77.0406a9.9737,9.9737,0,0,1,9.3231-8.0151,8.9845,8.9845,0,0,1,15.9751,2A7.0041,7.0041,0,0,1,87,78v8a1,1,0,0,1-1,1H48a1,1,0,0,1-1-1A9.0087,9.0087,0,0,1,55.1991,77.0406Z" style="fill:#4294ff"/><path d="M76.22,70.88a.99.99,0,0,0,1.29.58,6.7529,6.7529,0,0,1,2.99-.44,8.7023,8.7023,0,0,0-1-2,8.7477,8.7477,0,0,0-2.71.57A.9974.9974,0,0,0,76.22,70.88Z" style="fill:#2965ed"/><path d="M55.2,77.02v.02a8.9469,8.9469,0,0,1,5.83,1.5,1.0012,1.0012,0,0,0,1.12-1.66A10.95,10.95,0,0,0,55.85,75h-.01A9.7089,9.7089,0,0,0,55.2,77.02Z" style="fill:#2965ed"/><path d="M64.53,69.02a9.625,9.625,0,0,1,3.63.48.9961.9961,0,0,0,.63-1.89,11.5907,11.5907,0,0,0-2.47-.54h-.01A9.4328,9.4328,0,0,0,64.53,69.02Z" style="fill:#2965ed"/><path d="M43.1777,1.4307,34,15H54L44.8223,1.4307A1.0383,1.0383,0,0,0,43.1777,1.4307Z" style="fill:#4294ff"/><path d="M38.0582,9H49.9418l-5.12-7.5693a1.0383,1.0383,0,0,0-1.6446,0Z" style="fill:#376cfb"/><path d="M34,55v5a1,1,0,0,0,1,1H53a1,1,0,0,0,1-1V55Z" style="fill:#4294ff"/></g></svg>