<svg xmlns="http://www.w3.org/2000/svg" viewBox="0 0 88 88"><title>Artboard-22</title><g id="Home_Work" data-name="Home Work"><rect x="7" y="6" width="74" height="31" rx="1" ry="1" style="fill:#376cfb"/><path d="M80,6H44V37H80a1,1,0,0,0,1-1V7A1,1,0,0,0,80,6Z" style="fill:#2946ed"/><path d="M66,29H58a1,1,0,0,0-1,1V43a1,1,0,0,0,1.707.707L62,40.4141l3.293,3.2929A1,1,0,0,0,67,43V30A1,1,0,0,0,66,29Z" style="fill:#4294ff"/><path d="M44,52a1,1,0,0,1-1-1V47a2.0023,2.0023,0,0,0-2-2H23a4.0042,4.0042,0,0,1-4-4V30a1,1,0,0,1,2,0V41a2.0023,2.0023,0,0,0,2,2H41a4.0042,4.0042,0,0,1,4,4v4A1,1,0,0,1,44,52Z" style="fill:#2946ed"/><path d="M38,1H13a1,1,0,0,0-1,1V30a1,1,0,0,0,1,1H38a6,6,0,0,1,6,6V7A6,6,0,0,0,38,1Z" style="fill:#4294ff"/><path d="M75,1H50a6,6,0,0,0-6,6V37a6,6,0,0,1,6-6H75a1,1,0,0,0,1-1V2A1,1,0,0,0,75,1Z" style="fill:#376cfb"/><path d="M25,23H17a1,1,0,0,1,0-2h8a1,1,0,0,1,0,2Z" style="fill:#376cfb"/><path d="M31,19H17a1,1,0,0,1,0-2H31a1,1,0,0,1,0,2Z" style="fill:#376cfb"/><path d="M39,15H17a1,1,0,0,1,0-2H39a1,1,0,0,1,0,2Z" style="fill:#376cfb"/><path d="M28,11H17a1,1,0,0,1,0-2H28a1,1,0,0,1,0,2Z" style="fill:#376cfb"/><path d="M32,7H17a1,1,0,0,1,0-2H32a1,1,0,0,1,0,2Z" style="fill:#376cfb"/><path d="M32,27H17a1,1,0,0,1,0-2H32a1,1,0,0,1,0,2Z" style="fill:#376cfb"/><path d="M63,23H49a1,1,0,0,1,0-2H63a1,1,0,0,1,0,2Z" style="fill:#2946ed"/><path d="M63,19H49a1,1,0,0,1,0-2H63a1,1,0,0,1,0,2Z" style="fill:#2946ed"/><path d="M58,15H49a1,1,0,0,1,0-2h9a1,1,0,0,1,0,2Z" style="fill:#2946ed"/><path d="M67,11H49a1,1,0,0,1,0-2H67a1,1,0,0,1,0,2Z" style="fill:#2946ed"/><path d="M62,7H49a1,1,0,0,1,0-2H62a1,1,0,0,1,0,2Z" style="fill:#2946ed"/><path d="M66,27H49a1,1,0,0,1,0-2H66a1,1,0,0,1,0,2Z" style="fill:#2946ed"/><path d="M71,7H66a1,1,0,0,1,0-2h5a1,1,0,0,1,0,2Z" style="fill:#2946ed"/><path d="M71,23H67a1,1,0,0,1,0-2h4a1,1,0,0,1,0,2Z" style="fill:#2946ed"/><path d="M71,15H62a1,1,0,0,1,0-2h9a1,1,0,0,1,0,2Z" style="fill:#2946ed"/><rect x="2" y="50" width="84" height="37" rx="5" ry="5" style="fill:#e6ecff"/><rect x="35" y="77" width="18" height="6" rx="1" ry="1" style="fill:#4294ff"/><rect x="54" y="77" width="6" height="6" rx="1" ry="1" style="fill:#4294ff"/><rect x="61" y="77" width="6" height="6" rx="1" ry="1" style="fill:#4294ff"/><rect x="68" y="77" width="6" height="6" rx="1" ry="1" style="fill:#4294ff"/><rect x="75" y="77" width="7" height="6" rx="1" ry="1" style="fill:#4294ff"/><rect x="41" y="70" width="6" height="6" rx="1" ry="1" style="fill:#4294ff"/><rect x="41" y="63" width="6" height="6" rx="1" ry="1" style="fill:#4294ff"/><rect x="48" y="63" width="6" height="6" rx="1" ry="1" style="fill:#4294ff"/><rect x="55" y="63" width="6" height="6" rx="1" ry="1" style="fill:#4294ff"/><rect x="62" y="63" width="6" height="6" rx="1" ry="1" style="fill:#4294ff"/><rect x="69" y="63" width="6" height="6" rx="1" ry="1" style="fill:#4294ff"/><rect x="76" y="63" width="6" height="6" rx="1" ry="1" style="fill:#4294ff"/><rect x="34" y="63" width="6" height="6" rx="1" ry="1" style="fill:#4294ff"/><rect x="27" y="63" width="6" height="6" rx="1" ry="1" style="fill:#4294ff"/><rect x="20" y="63" width="6" height="6" rx="1" ry="1" style="fill:#4294ff"/><rect x="13" y="63" width="6" height="6" rx="1" ry="1" style="fill:#4294ff"/><rect x="6" y="63" width="6" height="6" rx="1" ry="1" style="fill:#4294ff"/><rect x="6" y="54" width="6" height="6" rx="1" ry="1" style="fill:#4294ff"/><rect x="13" y="54" width="6" height="6" rx="1" ry="1" style="fill:#4294ff"/><rect x="20" y="54" width="6" height="6" rx="1" ry="1" style="fill:#4294ff"/><rect x="27" y="54" width="6" height="6" rx="1" ry="1" style="fill:#4294ff"/><rect x="34" y="54" width="6" height="6" rx="1" ry="1" style="fill:#4294ff"/><rect x="41" y="54" width="6" height="6" rx="1" ry="1" style="fill:#4294ff"/><rect x="48" y="54" width="6" height="6" rx="1" ry="1" style="fill:#4294ff"/><rect x="55" y="54" width="6" height="6" rx="1" ry="1" style="fill:#4294ff"/><rect x="62" y="54" width="6" height="6" rx="1" ry="1" style="fill:#4294ff"/><rect x="69" y="54" width="6" height="6" rx="1" ry="1" style="fill:#4294ff"/><rect x="76" y="54" width="6" height="6" rx="1" ry="1" style="fill:#4294ff"/><rect x="34" y="70" width="6" height="6" rx="1" ry="1" style="fill:#4294ff"/><rect x="27" y="70" width="6" height="6" rx="1" ry="1" style="fill:#4294ff"/><rect x="20" y="70" width="6" height="6" rx="1" ry="1" style="fill:#4294ff"/><rect x="6" y="70" width="13" height="6" rx="1" ry="1" style="fill:#4294ff"/><rect x="48" y="70" width="6" height="6" rx="1" ry="1" style="fill:#4294ff"/><rect x="55" y="70" width="6" height="6" rx="1" ry="1" style="fill:#4294ff"/><rect x="62" y="70" width="6" height="6" rx="1" ry="1" style="fill:#4294ff"/><rect x="69" y="70" width="13" height="6" rx="1" ry="1" style="fill:#4294ff"/><rect x="14" y="77" width="6" height="6" rx="1" ry="1" style="fill:#4294ff"/><rect x="6" y="77" width="7" height="6" rx="1" ry="1" style="fill:#4294ff"/><rect x="21" y="77" width="6" height="6" rx="1" ry="1" style="fill:#4294ff"/><rect x="28" y="77" width="6" height="6" rx="1" ry="1" style="fill:#4294ff"/><path d="M39,7H36a1,1,0,0,1,0-2h3a1,1,0,0,1,0,2Z" style="fill:#376cfb"/><path d="M39,27H36a1,1,0,0,1,0-2h3a1,1,0,0,1,0,2Z" style="fill:#376cfb"/><path d="M36,11H32a1,1,0,0,1,0-2h4a1,1,0,0,1,0,2Z" style="fill:#376cfb"/><path d="M33,23H29a1,1,0,0,1,0-2h4a1,1,0,0,1,0,2Z" style="fill:#376cfb"/></g></svg>