<svg xmlns="http://www.w3.org/2000/svg" viewBox="0 0 88 88"><title>Artboard-24</title><g id="Medal"><polygon points="50 36 50 50.49 49.41 50.44 44 47.14 38.59 50.44 38 50.49 38 36 50 36" style="fill:#376cfb"/><polygon points="64 1 38 38 50 38 76 1 64 1" style="fill:#376cfb"/><polygon points="24 1 50 38 38 38 12 1 24 1" style="fill:#4294ff"/><path d="M62.5449,66l1.4268-5.9033a1,1,0,0,0-.3242-.9981L59.002,55.1572l-2.337-5.6123a.9985.9985,0,0,0-.8447-.6123L49.73,48.458l-5.209-3.1748a.998.998,0,0,0-1.041,0l-5.209,3.1748-6.0908.4746a.9985.9985,0,0,0-.8447.6123l-2.337,5.6123-4.6455,3.9414a1,1,0,0,0-.3242.9981L25.4551,66l-1.4268,5.9033a1,1,0,0,0,.3242.9981l4.6455,3.9414,2.337,5.6123a.9985.9985,0,0,0,.8447.6123l6.0908.4746,5.209,3.1748a.9979.9979,0,0,0,1.041,0L49.73,83.542l6.0908-.4746a.9985.9985,0,0,0,.8447-.6123l2.337-5.6123,4.6455-3.9414a1,1,0,0,0,.3242-.9981Z" style="fill:#e6ecff"/><polygon points="24 1 64 1 58.38 9 29.62 9 24 1" style="fill:#2946ed"/><path d="M56.665,82.4551l2.337-5.6123,3.0044-2.5491C44.5378,72.5417,34.9919,62.5054,29.8351,53.147l-.8371,2.01-4.6455,3.9414a1,1,0,0,0-.3242.9981L25.4551,66l-1.4268,5.9033a1,1,0,0,0,.3242.9981l4.6455,3.9414,2.337,5.6123a.9985.9985,0,0,0,.8447.6123l6.0908.4746,5.209,3.1748a.9979.9979,0,0,0,1.041,0L49.73,83.542l6.0908-.4746A.9985.9985,0,0,0,56.665,82.4551Z" style="fill:#b7c6e2"/><path d="M44,52A14,14,0,1,0,58,66,14.0158,14.0158,0,0,0,44,52Zm6.8126,17.2343a28.0038,28.0038,0,0,0,0-6.4686C54.1168,63.5911,56,64.93,56,66S54.1168,68.4089,50.8126,69.2343ZM44,78c-1.6558,0-3.44-2.42-4.3638-6.2953a32.3907,32.3907,0,0,0,8.7276,0C47.44,75.58,45.6558,78,44,78Zm0-8a30.9061,30.9061,0,0,1-4.7515-.3528,26.889,26.889,0,0,1,0-7.2944,32.1729,32.1729,0,0,1,9.503,0,26.889,26.889,0,0,1,0,7.2944A30.9061,30.9061,0,0,1,44,70ZM32,66c0-1.07,1.8832-2.4089,5.1874-3.2343a28.0038,28.0038,0,0,0,0,6.4686C33.8832,68.4089,32,67.07,32,66ZM44,54c1.6558,0,3.44,2.42,4.3638,6.2953a32.3907,32.3907,0,0,0-8.7276,0C40.56,56.42,42.3442,54,44,54Zm11.4653,8.4571A16.7292,16.7292,0,0,0,50.4868,60.66a16.5415,16.5415,0,0,0-2.263-5.8775A12.0456,12.0456,0,0,1,55.4653,62.4571ZM39.7762,54.782a16.5415,16.5415,0,0,0-2.263,5.8775,16.7292,16.7292,0,0,0-4.9785,1.7976A12.0456,12.0456,0,0,1,39.7762,54.782ZM32.5347,69.5429a16.7292,16.7292,0,0,0,4.9785,1.7976,16.5415,16.5415,0,0,0,2.263,5.8775A12.0456,12.0456,0,0,1,32.5347,69.5429ZM48.2238,77.218a16.5415,16.5415,0,0,0,2.263-5.8775,16.7292,16.7292,0,0,0,4.9785-1.7976A12.0456,12.0456,0,0,1,48.2238,77.218Z" style="fill:#4294ff"/><path d="M55.9322,73.2854c-.6958-.163-1.3809-.3364-2.0471-.5273a12.0684,12.0684,0,0,1-5.6613,4.46,16.3557,16.3557,0,0,0,2.2011-5.6222,38.8933,38.8933,0,0,1-3.8026-1.7011C45.794,69.9614,44.9214,70,44,70a30.9061,30.9061,0,0,1-4.7515-.3528A26.3433,26.3433,0,0,1,39,66c0-.4321.024-.8431.0433-1.2582q-.9786-.8551-1.8755-1.7512a27.5458,27.5458,0,0,0,.02,6.2437C33.8832,68.4089,32,67.07,32,66c0-1.0484,1.816-2.3513,4.9954-3.18q-.789-.7965-1.5144-1.6189a14.0047,14.0047,0,0,0-2.9463,1.2559,11.8642,11.8642,0,0,1,1.4583-3.0325q-.6632-.8374-1.2694-1.687A13.9809,13.9809,0,1,0,55.9322,73.2854ZM32.5347,69.5429a16.7292,16.7292,0,0,0,4.9785,1.7976,16.5415,16.5415,0,0,0,2.263,5.8775A12.0456,12.0456,0,0,1,32.5347,69.5429ZM44,78c-1.6558,0-3.44-2.42-4.3638-6.2953a32.3907,32.3907,0,0,0,8.7276,0C47.44,75.58,45.6558,78,44,78Z" style="fill:#2965ed"/></g></svg>