<svg xmlns="http://www.w3.org/2000/svg" viewBox="0 0 88 88"><title>Artboard-27</title><g id="Encyclopedia"><path d="M57,68V64H5v8a4,4,0,0,0,4,4H57A4.0354,4.0354,0,0,1,57,68Z" style="fill:#d0dbf7"/><path d="M56,1H9A4,4,0,0,0,5,5V72a4,4,0,0,1,4-4H57V2A1,1,0,0,0,56,1Z" style="fill:#e6ecff"/><path d="M53.6288,73a4.3226,4.3226,0,0,1,0-2H9a1,1,0,0,0,0,2Z" style="fill:#becced"/><path d="M9,1A4,4,0,0,0,5,5V72a4,4,0,0,1,4-4h3V1Z" style="fill:#4294ff"/><path d="M58,21H50.5a1,1,0,0,0-.9683,1.25,15.2486,15.2486,0,0,1,0,7.5A1,1,0,0,0,50.5,31H58a1,1,0,0,0,1-1V22A1,1,0,0,0,58,21Z" style="fill:#376cfb"/><path d="M49,49H19a1,1,0,0,1,0-2H49a1,1,0,0,1,0,2Z" style="fill:#4294ff"/><path d="M41,55H19a1,1,0,0,1,0-2H41a1,1,0,0,1,0,2Z" style="fill:#4294ff"/><path d="M41,61H19a1,1,0,0,1,0-2H41a1,1,0,0,1,0,2Z" style="fill:#4294ff"/><path d="M49,55H45a1,1,0,0,1,0-2h4a1,1,0,0,1,0,2Z" style="fill:#4294ff"/><path d="M49,61H45a1,1,0,0,1,0-2h4a1,1,0,0,1,0,2Z" style="fill:#4294ff"/><path d="M76,19H58a1,1,0,0,0-1,1V32a1,1,0,0,0,1,1H76a7,7,0,0,0,0-14Z" style="fill:#4294ff"/><path d="M41,71H27V86a1,1,0,0,0,1.64.7686L34,82.3018l5.36,4.4668A1,1,0,0,0,41,86Z" style="fill:#4294ff"/><circle cx="35" cy="26" r="17" style="fill:#4294ff"/><path d="M35,13A13,13,0,1,0,48,26,13.0147,13.0147,0,0,0,35,13Zm5.8087,16.339a29.2355,29.2355,0,0,0,0-6.678C43.9725,23.4331,46,24.7625,46,26S43.9725,28.5669,40.8087,29.339ZM35,37c-1.2372,0-2.5667-2.0275-3.3389-5.1913a29.2338,29.2338,0,0,0,6.6778,0C37.5667,34.9725,36.2372,37,35,37Zm0-7a26.3257,26.3257,0,0,1-3.7357-.2643,26.5336,26.5336,0,0,1,0-7.4715,26.5429,26.5429,0,0,1,7.4714,0,26.5336,26.5336,0,0,1,0,7.4715A26.3257,26.3257,0,0,1,35,30ZM24,26c0-1.2375,2.0275-2.5669,5.1913-3.339a29.2355,29.2355,0,0,0,0,6.678C26.0275,28.5669,24,27.2375,24,26ZM35,15c1.2372,0,2.5667,2.0275,3.3389,5.1913a29.2338,29.2338,0,0,0-6.6778,0C32.4333,17.0275,33.7628,15,35,15Zm10.3407,7.2856a15.5452,15.5452,0,0,0-4.8657-1.7608,15.5455,15.5455,0,0,0-1.7608-4.8656A11.0365,11.0365,0,0,1,45.3407,22.2856ZM31.2858,15.6592a15.5455,15.5455,0,0,0-1.7608,4.8656,15.5452,15.5452,0,0,0-4.8657,1.7608A11.0365,11.0365,0,0,1,31.2858,15.6592ZM24.6593,29.7144a15.5452,15.5452,0,0,0,4.8657,1.7608,15.5455,15.5455,0,0,0,1.7608,4.8656A11.0365,11.0365,0,0,1,24.6593,29.7144Zm14.0549,6.6264a15.5455,15.5455,0,0,0,1.7608-4.8656,15.5452,15.5452,0,0,0,4.8657-1.7608A11.0365,11.0365,0,0,1,38.7142,36.3408Z" style="fill:#376cfb"/></g></svg>