<svg xmlns="http://www.w3.org/2000/svg" viewBox="0 0 88 88"><title>Artboard-16</title><g id="Online_Search" data-name="Online Search"><path d="M76,22H12a4.0045,4.0045,0,0,0-4,4V74a1,1,0,0,0,1,1H79a1,1,0,0,0,1-1V26A4.0045,4.0045,0,0,0,76,22Z" style="fill:#e6ecff"/><rect x="12" y="26" width="64" height="38" rx="1" ry="1" style="fill:#d0dbf7"/><path d="M86,68H64a1,1,0,0,0-.832.4453L61.4648,71h-34.93L24.832,68.4453A1,1,0,0,0,24,68H2a1,1,0,0,0-1,1v4a5.0059,5.0059,0,0,0,5,5H82a5.0059,5.0059,0,0,0,5-5V69A1,1,0,0,0,86,68Z" style="fill:#4294ff"/><path d="M80,74a1.0029,1.0029,0,0,1-1,1H9a1.0029,1.0029,0,0,1-1-1V26a3.9989,3.9989,0,0,1,4-4h5v9.19A42.8142,42.8142,0,0,0,59.81,74Z" style="fill:#b7c6e2"/><path d="M32.32,64H13a1.0029,1.0029,0,0,1-1-1V27a1.0029,1.0029,0,0,1,1-1h4v5.19A42.6942,42.6942,0,0,0,32.32,64Z" style="fill:#8ea6ce"/><path d="M86.9,74A5,5,0,0,1,82,78H6a5.0018,5.0018,0,0,1-5-5V69a1.0029,1.0029,0,0,1,1-1H24a.995.995,0,0,1,.83.45L26.54,71h17.5a42.5874,42.5874,0,0,0,15.77,3Z" style="fill:#2965ed"/><path d="M28,35A11,11,0,1,0,39,46,11.0125,11.0125,0,0,0,28,35Zm4.871,13.467a23.654,23.654,0,0,0,0-4.934C35.4747,44.1534,37,45.1951,37,46S35.4747,47.8466,32.871,48.467ZM28,55c-.8049,0-1.8466-1.5253-2.467-4.129a23.654,23.654,0,0,0,4.934,0C29.8466,53.4747,28.8049,55,28,55Zm0-6a23.2916,23.2916,0,0,1-2.8319-.1681,23.9379,23.9379,0,0,1,0-5.6638,23.9379,23.9379,0,0,1,5.6638,0,23.9379,23.9379,0,0,1,0,5.6638A23.2916,23.2916,0,0,1,28,49Zm-9-3c0-.8049,1.5253-1.8466,4.129-2.467a23.654,23.654,0,0,0,0,4.934C20.5253,47.8466,19,46.8049,19,46Zm9-9c.8049,0,1.8466,1.5253,2.467,4.129a23.654,23.654,0,0,0-4.934,0C26.1534,38.5253,27.1951,37,28,37Zm8.3565,5.6773a14.6835,14.6835,0,0,0-3.7946-1.2392,14.6835,14.6835,0,0,0-1.2392-3.7946A9.0392,9.0392,0,0,1,36.3565,42.6773ZM24.6773,37.6435a14.6835,14.6835,0,0,0-1.2392,3.7946,14.6835,14.6835,0,0,0-3.7946,1.2392A9.0392,9.0392,0,0,1,24.6773,37.6435ZM19.6435,49.3227a14.6835,14.6835,0,0,0,3.7946,1.2392,14.6835,14.6835,0,0,0,1.2392,3.7946A9.0392,9.0392,0,0,1,19.6435,49.3227Zm11.6792,5.0338a14.6835,14.6835,0,0,0,1.2392-3.7946,14.6835,14.6835,0,0,0,3.7946-1.2392A9.0392,9.0392,0,0,1,31.3227,54.3565Z" style="fill:#4294ff"/><path d="M25.4393,56.6868c-.7165-.9638-1.4031-1.9509-2.0379-2.9745a9.0317,9.0317,0,0,1-3.7579-4.39,11.8993,11.8993,0,0,0,1.7266.7056c-.4327-.8809-.8418-1.7749-1.2143-2.6886C19.41,46.89,19,46.4139,19,46a1.14,1.14,0,0,1,.3713-.728,42.5118,42.5118,0,0,1-1.2082-4.166,10.9611,10.9611,0,0,0,7.2762,15.5808Z" style="fill:#2965ed"/><path d="M55,10A13.0144,13.0144,0,0,0,42,23V40a1,1,0,0,0,1.707.707L48.4141,36H55a13,13,0,0,0,0-26Z" style="fill:#4294ff"/><path d="M60.707,27.293l-2.54-2.54a5.015,5.015,0,1,0-1.4141,1.4141l2.54,2.54a1,1,0,0,0,1.414-1.414ZM51,22a3,3,0,1,1,3,3A3.0033,3.0033,0,0,1,51,22Z" style="fill:#376cfb"/><path d="M69,46H43a1,1,0,0,1,0-2H69a1,1,0,0,1,0,2Z" style="fill:#4294ff"/><path d="M62,51H43a1,1,0,0,1,0-2H62a1,1,0,0,1,0,2Z" style="fill:#4294ff"/><path d="M62,56H43a1,1,0,0,1,0-2H62a1,1,0,0,1,0,2Z" style="fill:#4294ff"/><path d="M69,51H66a1,1,0,0,1,0-2h3a1,1,0,0,1,0,2Z" style="fill:#4294ff"/><path d="M69,56H66a1,1,0,0,1,0-2h3a1,1,0,0,1,0,2Z" style="fill:#4294ff"/></g></svg>