<svg xmlns="http://www.w3.org/2000/svg" viewBox="0 0 88 88"><title>Artboard-2</title><g id="Projector-2" data-name="Projector"><rect x="9" y="63" width="18" height="8" rx="1" ry="1" style="fill:#2965ed"/><rect x="61" y="63" width="18" height="8" rx="1" ry="1" style="fill:#2965ed"/><path d="M81,35H75.4033a17.9707,17.9707,0,0,0-26.8066,0H7a6.0066,6.0066,0,0,0-6,6V59a6.0066,6.0066,0,0,0,6,6H81a6.0066,6.0066,0,0,0,6-6V41A6.0066,6.0066,0,0,0,81,35Z" style="fill:#e6ecff"/><path d="M87,59V51H43A29.99,29.99,0,0,1,16.4673,35H7a6.0066,6.0066,0,0,0-6,6V59a6.0066,6.0066,0,0,0,6,6H81A6.0066,6.0066,0,0,0,87,59Z" style="fill:#b7c6e2"/><rect x="1" y="47" width="86" height="8" style="fill:#376cfb"/><path d="M87,51H43a29.85,29.85,0,0,1-14.9592-4H1v8H87Z" style="fill:#2045ce"/><circle cx="62" cy="47" r="13" style="fill:#4294ff"/><path d="M49.6361,51a12.9926,12.9926,0,0,0,24.7278,0Z" style="fill:#2965ed"/><circle cx="62" cy="47" r="9" style="fill:#376cfb"/><ellipse cx="43" cy="41" rx="3.0104" ry="2.9831" transform="translate(-16.397 42.4142) rotate(-45)" style="fill:#4294ff"/><path d="M81,42H78a1,1,0,0,1,0-2h3a1,1,0,0,1,0,2Z" style="fill:#4294ff"/><path d="M62,25a1,1,0,0,1-1-1V18a1,1,0,0,1,2,0v6A1,1,0,0,1,62,25Z" style="fill:#4294ff"/><path d="M49.979,29.979a.9967.9967,0,0,1-.707-.293l-4.2427-4.2426a1,1,0,0,1,1.4141-1.4141L50.686,28.272a1,1,0,0,1-.707,1.707Z" style="fill:#4294ff"/><path d="M74.021,29.979a1,1,0,0,1-.707-1.707l4.2426-4.2427a1,1,0,0,1,1.4141,1.4141L74.728,29.686A.9967.9967,0,0,1,74.021,29.979Z" style="fill:#4294ff"/><path d="M70.05,51H53.95a8.9806,8.9806,0,0,0,16.1,0Z" style="fill:#2045ce"/><path d="M61,53a5.0059,5.0059,0,0,1-5-5,1,1,0,0,1,2,0,3.0033,3.0033,0,0,0,3,3,1,1,0,0,1,0,2Z" style="fill:#2946ed"/><path d="M61,53a1,1,0,0,0,0-2H57.0256A4.9785,4.9785,0,0,0,61,53Z" style="fill:#1036af"/></g></svg>