<svg xmlns="http://www.w3.org/2000/svg" viewBox="0 0 88 88"><title>Artboard-30</title><g id="Scholarship"><path d="M65,35a1,1,0,0,1-1-1V18a1,1,0,0,1,2,0V34A1,1,0,0,1,65,35Z" style="fill:#376cfb"/><path d="M59.5508,19.7354a.9978.9978,0,0,0-.9444-.084L44,25.9121,29.3936,19.6514a.99.99,0,0,0-.9444.084A1.0015,1.0015,0,0,0,28,20.57V32.86a1,1,0,0,0,.6211.9257l15,6.14a1.0045,1.0045,0,0,0,.7578,0l15-6.14A1,1,0,0,0,60,32.86V20.57A1.0015,1.0015,0,0,0,59.5508,19.7354Z" style="fill:#376cfb"/><path d="M74.5,22A4.505,4.505,0,0,0,70,26.5V37.02a1,1,0,0,0,1.6572.7539,3.3359,3.3359,0,0,1,4.3916.17A3.2534,3.2534,0,0,1,77,40.24a1,1,0,0,0,2,0V26.5A4.505,4.505,0,0,0,74.5,22Z" style="fill:#edb7b7"/><path d="M79,40.24V35.2543c-.0421-.0442-.0787-.0917-.1221-.1352A7.2533,7.2533,0,0,0,70,34.06v2.5258l.0508-.0507a5.2366,5.2366,0,0,1,8.944,3.731C78.995,40.2571,79,40.25,79,40.24Z" style="fill:#d19d9d"/><rect x="50" y="72" width="26" height="8" rx="1" ry="1" style="fill:#4294ff"/><path d="M82,8a5.0059,5.0059,0,0,0-5,5V36.1221a5.2513,5.2513,0,0,0-6.9492.4131L52.293,54.293A.9993.9993,0,0,0,52,55V67a1,1,0,0,0,1,1H73a1,1,0,0,0,1-1V62.4141L86.707,49.707A.9993.9993,0,0,0,87,49V13A5.0059,5.0059,0,0,0,82,8Z" style="fill:#ffd2d2"/><path d="M78.88,45.36,66.62,57.62a1.0019,1.0019,0,0,1-1.41,0,.9959.9959,0,0,1,0-1.41L77.46,43.95a5.2449,5.2449,0,0,0,0-7.42,5.8677,5.8677,0,0,0-.46-.41V33.77a7.3969,7.3969,0,0,1,1.88,1.35A7.2548,7.2548,0,0,1,78.88,45.36Z" style="fill:#edb7b7"/><rect x="48" y="66" width="30" height="8" rx="1" ry="1" style="fill:#376cfb"/><path d="M13.5,22A4.505,4.505,0,0,1,18,26.5V37.02a1,1,0,0,1-1.6572.7539,3.3359,3.3359,0,0,0-4.3916.17A3.2534,3.2534,0,0,0,11,40.24a1,1,0,0,1-2,0V26.5A4.505,4.505,0,0,1,13.5,22Z" style="fill:#edb7b7"/><path d="M9,40.24V35.2543c.0421-.0442.0787-.0917.1221-.1352A7.2533,7.2533,0,0,1,18,34.06v2.5258l-.0508-.0507a5.2366,5.2366,0,0,0-8.944,3.731C9.005,40.2571,9,40.25,9,40.24Z" style="fill:#d19d9d"/><rect x="12" y="72" width="26" height="8" rx="1" ry="1" style="fill:#4294ff"/><path d="M6,8a5.0059,5.0059,0,0,1,5,5V36.1221a5.2513,5.2513,0,0,1,6.9492.4131L35.707,54.293A.9993.9993,0,0,1,36,55V67a1,1,0,0,1-1,1H15a1,1,0,0,1-1-1V62.4141L1.293,49.707A.9993.9993,0,0,1,1,49V13A5.0059,5.0059,0,0,1,6,8Z" style="fill:#ffd2d2"/><path d="M9.12,45.36,21.38,57.62a1.0019,1.0019,0,0,0,1.41,0,.9959.9959,0,0,0,0-1.41L10.54,43.95a5.2449,5.2449,0,0,1,0-7.42,5.8677,5.8677,0,0,1,.46-.41V33.77a7.3969,7.3969,0,0,0-1.88,1.35A7.2548,7.2548,0,0,0,9.12,45.36Z" style="fill:#edb7b7"/><rect x="10" y="66" width="30" height="8" rx="1" ry="1" style="fill:#376cfb"/><path d="M60,20.57v2.84L45.18,29.76a3.0208,3.0208,0,0,1-2.36,0L28,23.41V20.57a1.0045,1.0045,0,0,1,1.39-.92L44,25.91l14.61-6.26a1.0045,1.0045,0,0,1,1.39.92Z" style="fill:#2045ce"/><path d="M66,18v2.84l-2,.85V18a1,1,0,0,1,2,0Z" style="fill:#2045ce"/><path d="M65.3936,17.0811l-21-9a1.0011,1.0011,0,0,0-.7872,0l-21,9a.9994.9994,0,0,0,0,1.8378l21,9a.9957.9957,0,0,0,.7872,0l21-9a.9994.9994,0,0,0,0-1.8378Z" style="fill:#4294ff"/></g></svg>