<svg xmlns="http://www.w3.org/2000/svg" viewBox="0 0 88 88"><title>Artboard-4</title><g id="Projector"><rect x="7" y="5" width="74" height="58" rx="1" ry="1" style="fill:#e6ecff"/><path d="M65.21,63H8a1.0029,1.0029,0,0,1-1-1V6A1.0029,1.0029,0,0,1,8,5h8.02A60.1729,60.1729,0,0,0,65.21,63Z" style="fill:#b7c6e2"/><path d="M42.4814,70.6616a.9987.9987,0,0,0-1.0185.0327L18.7373,85.1563A1,1,0,0,0,19.2744,87h7.4512a1.0026,1.0026,0,0,0,.5371-.1562l15.2744-9.72A1.0009,1.0009,0,0,0,43,76.28V71.5381A1.0006,1.0006,0,0,0,42.4814,70.6616Z" style="fill:#1233af"/><path d="M69.2627,85.1563,46.5371,70.6943A1,1,0,0,0,45,71.5381V76.28a1.0009,1.0009,0,0,0,.4629.8437l15.2744,9.72A1.0026,1.0026,0,0,0,61.2744,87h7.4512a1,1,0,0,0,.5371-1.8437Z" style="fill:#1233af"/><rect x="41" y="65" width="6" height="22" rx="1" ry="1" style="fill:#2045ce"/><path d="M84,1H4A3,3,0,0,0,4,7H84a3,3,0,0,0,0-6Z" style="fill:#4294ff"/><path d="M84,61H4a3,3,0,0,0,0,6H84a3,3,0,0,0,0-6Z" style="fill:#4294ff"/><rect x="12" y="10" width="64" height="34" rx="1" ry="1" style="fill:#d0dbf7"/><circle cx="29" cy="20" r="6" style="fill:#4294ff"/><rect x="42" y="14" width="30" height="26" rx="1" ry="1" style="fill:#376cfb"/><path d="M67,28H57a1,1,0,0,1,0-2H67a1,1,0,0,1,0,2Z" style="fill:#2946ed"/><path d="M67,24H57a1,1,0,0,1,0-2H67a1,1,0,0,1,0,2Z" style="fill:#2946ed"/><path d="M67,20H47a1,1,0,0,1,0-2H67a1,1,0,0,1,0,2Z" style="fill:#2946ed"/><path d="M67,36H47a1,1,0,0,1,0-2H67a1,1,0,0,1,0,2Z" style="fill:#2946ed"/><path d="M67,32H54a1,1,0,0,1,0-2H67a1,1,0,0,1,0,2Z" style="fill:#2946ed"/><path d="M75,49H13a1,1,0,0,1,0-2H75a1,1,0,0,1,0,2Z" style="fill:#4294ff"/><path d="M57,51a1,1,0,0,1-1-1V46a1,1,0,0,1,2,0v4A1,1,0,0,1,57,51Z" style="fill:#376cfb"/><path d="M14,58a1,1,0,0,1-1-1V53a1,1,0,0,1,2,0v4A1,1,0,0,1,14,58Z" style="fill:#2965ed"/><path d="M18,58a1,1,0,0,1-1-1V53a1,1,0,0,1,2,0v4A1,1,0,0,1,18,58Z" style="fill:#2965ed"/><path d="M29,58a1,1,0,0,1-1-1V53a1,1,0,0,1,2,0v4A1,1,0,0,1,29,58Z" style="fill:#2965ed"/><path d="M24,58a1,1,0,0,1-.707-1.707L24.5859,55,23.293,53.707a1,1,0,0,1,1.414-1.414l2,2a.9994.9994,0,0,1,0,1.414l-2,2A.9967.9967,0,0,1,24,58Z" style="fill:#2965ed"/><path d="M53.6406,23.2324a.9919.9919,0,0,0-.8193-.2163l-33,6A1,1,0,0,0,19,30V44H40V33.78l7.3389-1.5567A8.4467,8.4467,0,0,0,54,24,1,1,0,0,0,53.6406,23.2324Z" style="fill:#4294ff"/><path d="M31.37,44H13a1.0029,1.0029,0,0,1-1-1V11a1.0029,1.0029,0,0,1,1-1h3.31A60.026,60.026,0,0,0,31.37,44Z" style="fill:#8ea6ce"/><path d="M16.08,7H4A3,3,0,0,1,4,1H16V3.83C16,4.89,16.03,5.95,16.08,7Z" style="fill:#2965ed"/><path d="M31.37,44H19V30a.9976.9976,0,0,1,.82-.98l1.57-.28A60.0943,60.0943,0,0,0,31.37,44Z" style="fill:#2965ed"/><path d="M36.42,49H13a1,1,0,0,1,0-2H34.25C34.96,47.68,35.68,48.35,36.42,49Z" style="fill:#2965ed"/><path d="M87,64a3.0088,3.0088,0,0,1-3,3H4a3,3,0,0,1,0-6H57.37a59.9874,59.9874,0,0,0,18.8,3Z" style="fill:#2965ed"/></g></svg>