<svg xmlns="http://www.w3.org/2000/svg" viewBox="0 0 88 88"><title>Artboard-18</title><g id="Headphones"><circle cx="44" cy="67" r="11" style="fill:#4294ff"/><path d="M17.6538,21.2412a1.0026,1.0026,0,0,0-.4819-.6426l-4.34-2.45a1.0012,1.0012,0,0,0-1.3237.3159A38.6729,38.6729,0,0,0,5,40V53.44a1,1,0,0,0,1.2173.9761,1.66,1.66,0,0,1,.2139-.0356l4.71-.67A1,1,0,0,0,12,52.72V40a31.8984,31.8984,0,0,1,5.5078-17.9692A.9992.9992,0,0,0,17.6538,21.2412Z" style="fill:#376cfb"/><path d="M76.4922,18.4648a.9989.9989,0,0,0-1.3233-.3154l-4.34,2.45a1,1,0,0,0-.3369,1.4317A31.8922,31.8922,0,0,1,76,40V52.72a1,1,0,0,0,.8594.99l4.7529.6753a1.45,1.45,0,0,1,.17.0307A1,1,0,0,0,83,53.44V40A38.669,38.669,0,0,0,76.4922,18.4648Z" style="fill:#376cfb"/><path d="M81.8486,52.397,72.1416,51.01A1,1,0,0,0,71,52V82a1,1,0,0,0,1,1,.9776.9776,0,0,0,.1416-.01l9.707-1.3867A6.0294,6.0294,0,0,0,87,75.6636V58.3364A6.0294,6.0294,0,0,0,81.8486,52.397Z" style="fill:#4294ff"/><path d="M64.6406,54.2319a.9921.9921,0,0,0-.8213-.2153l-6,1.1A.9994.9994,0,0,0,57,56.1V77.9a.9994.9994,0,0,0,.8193.9834l6,1.1A1,1,0,0,0,65,79V55A1,1,0,0,0,64.6406,54.2319Z" style="fill:#4294ff"/><rect x="63" y="48" width="10" height="38" rx="1" ry="1" style="fill:#376cfb"/><path d="M16.6553,51.2446a.99.99,0,0,0-.7969-.2343L6.1514,52.397A6.0294,6.0294,0,0,0,1,58.3364V75.6636A6.0294,6.0294,0,0,0,6.1514,81.603l9.707,1.3867A.9828.9828,0,0,0,16,83a1,1,0,0,0,1-1V52A1.0008,1.0008,0,0,0,16.6553,51.2446Z" style="fill:#4294ff"/><path d="M30.18,55.1167l-6-1.1A1,1,0,0,0,23,55V79a1,1,0,0,0,1,1,.9768.9768,0,0,0,.18-.0166l6-1.1A.9994.9994,0,0,0,31,77.9V56.1A.9994.9994,0,0,0,30.18,55.1167Z" style="fill:#4294ff"/><rect x="15" y="48" width="10" height="38" rx="1" ry="1" style="fill:#376cfb"/><path d="M48.4961,66.1318l-7-4A1,1,0,0,0,40,63v8a1,1,0,0,0,1.4961.8682l7-4a1,1,0,0,0,0-1.7364Z" style="fill:#376cfb"/><path d="M76.4932,18.4668a38.9567,38.9567,0,0,0-64.9864,0,1,1,0,0,0,.3413,1.4243l8.7393,4.939A1.001,1.001,0,0,0,21.9,24.5327a26.942,26.942,0,0,1,44.2007,0,.9985.9985,0,0,0,1.3115.2974l8.7393-4.94a.9991.9991,0,0,0,.3418-1.4238Z" style="fill:#4294ff"/></g></svg>