<svg xmlns="http://www.w3.org/2000/svg" viewBox="0 0 88 88"><title>Artboard-15</title><g id="Trophy"><path d="M76,12H64a1,1,0,0,0-1,1v4a1,1,0,0,0,1,1h7V29a10.937,10.937,0,0,1-9.2187,10.8525.999.999,0,0,0-.7374.545A19.0413,19.0413,0,0,1,58.4307,44.35,1,1,0,0,0,59.19,46H60A17.019,17.019,0,0,0,77,29V13A1,1,0,0,0,76,12Z" style="fill:#4294ff"/><path d="M67.99,43.99A16.7333,16.7333,0,0,1,60,46h-.81a.9984.9984,0,0,1-.76-1.65,15.33,15.33,0,0,0,1.11-1.44A39.8924,39.8924,0,0,0,67.99,43.99Z" style="fill:#2965ed"/><path d="M57,69a7.0081,7.0081,0,0,1-7-7V51.37a1,1,0,0,0-1.248-.9687,19.2367,19.2367,0,0,1-9.504,0A1,1,0,0,0,38,51.37V62a7.0081,7.0081,0,0,1-7,7,1,1,0,0,0,0,2H57a1,1,0,0,0,0-2Z" style="fill:#2965ed"/><path d="M29.5693,44.35a19.0314,19.0314,0,0,1-2.6132-3.9521.999.999,0,0,0-.7373-.545A10.937,10.937,0,0,1,17,29V18h7a1,1,0,0,0,1-1V13a1,1,0,0,0-1-1H12a1,1,0,0,0-1,1V29A17.019,17.019,0,0,0,28,46h.81a1,1,0,0,0,.76-1.65Z" style="fill:#2965ed"/><path d="M64,3H24a1,1,0,0,0-1,1V32a21,21,0,0,0,42,0V4A1,1,0,0,0,64,3Z" style="fill:#e6ecff"/><path d="M60,69H28a4.0042,4.0042,0,0,0-4,4v4a1,1,0,0,0,1,1H63a1,1,0,0,0,1-1V73A4.0042,4.0042,0,0,0,60,69Z" style="fill:#2045ce"/><path d="M66,76H22a3.0033,3.0033,0,0,0-3,3v5a1,1,0,0,0,1,1H68a1,1,0,0,0,1-1V79A3.0033,3.0033,0,0,0,66,76Z" style="fill:#2965ed"/><path d="M61.65,43.35A20.988,20.988,0,0,1,23,32V4a1.0029,1.0029,0,0,1,1-1h5V4.17A39.8341,39.8341,0,0,0,61.65,43.35Z" style="fill:#b7c6e2"/><path d="M51.5039,27.1362l-12-7A1,1,0,0,0,38,21V35a1,1,0,0,0,1.5039.8638l12-7a1,1,0,0,0,0-1.7276Z" style="fill:#4294ff"/><path d="M42.53,34.09,39.5,35.86A.9934.9934,0,0,1,39,36a.9907.9907,0,0,1-1-1V29.4A40.96,40.96,0,0,0,42.53,34.09Z" style="fill:#2965ed"/><path d="M65,10V4a1,1,0,0,0-1-1H24a1,1,0,0,0-1,1v6Z" style="fill:#4294ff"/><path d="M29.43,10H23V4a1.0029,1.0029,0,0,1,1-1h5V4.17A38.6547,38.6547,0,0,0,29.43,10Z" style="fill:#2965ed"/></g></svg>