<svg xmlns="http://www.w3.org/2000/svg" viewBox="0 0 88 88"><title>Artboard-37</title><g id="Cloud_Server" data-name="Cloud Server"><path d="M67,57a1,1,0,0,1-1-1V47H46a1,1,0,0,1,0-2H67a1,1,0,0,1,1,1V56A1,1,0,0,1,67,57Z" style="fill:#2965ed"/><path d="M21,57a1,1,0,0,1-1-1V46a1,1,0,0,1,1-1H42a1,1,0,0,1,0,2H22v9A1,1,0,0,1,21,57Z" style="fill:#2965ed"/><path d="M44,45a1,1,0,0,1-1-1V36a1,1,0,0,1,2,0v8A1,1,0,0,1,44,45Z" style="fill:#2965ed"/><rect x="4" y="55" width="34" height="27" rx="1" ry="1" style="fill:#e6ecff"/><circle cx="21" cy="68" r="8" style="fill:#4294ff"/><path d="M60.6708,13.13A12.9388,12.9388,0,0,0,48,3,13.09,13.09,0,0,0,37.2834,8.6283,8.9829,8.9829,0,0,0,25,17c0,.0721.0057.1319.0072.2005A10,10,0,0,0,27,37H59a11.9929,11.9929,0,0,0,1.6708-23.87Z" style="fill:#4294ff"/><path d="M43.65,14.18a1.0037,1.0037,0,0,1-1.3-.56,8.9608,8.9608,0,0,0-4.22-4.61c-.28-.14-.56-.27-.85-.39a12.7551,12.7551,0,0,1,1.32-1.6,4.5382,4.5382,0,0,1,.45.21,10.9376,10.9376,0,0,1,5.15,5.65A.9978.9978,0,0,1,43.65,14.18Z" style="fill:#2965ed"/><path d="M60.67,13.12A11.5186,11.5186,0,0,0,59,13a11.9319,11.9319,0,0,0-6.27,1.77,1.0034,1.0034,0,0,1-1.05-1.71A13.9809,13.9809,0,0,1,59,11c.34,0,.68.01,1.01.04A14.01,14.01,0,0,1,60.67,13.12Z" style="fill:#2965ed"/><path d="M34.25,18.67a.9949.9949,0,0,1-1.4.22A9.8913,9.8913,0,0,0,27,17a10.0231,10.0231,0,0,0-1.99.2c0-.07-.01-.13-.01-.2a9.4614,9.4614,0,0,1,.19-1.86,11.9723,11.9723,0,0,1,8.84,2.13A1.0144,1.0144,0,0,1,34.25,18.67Z" style="fill:#2965ed"/><path d="M40,77H30.3818l-2,3H13.6182l-2-3H2a1,1,0,0,0-1,1v3a4,4,0,0,0,4,4H37a4,4,0,0,0,4-4V78A1,1,0,0,0,40,77Z" style="fill:#4294ff"/><path d="M24.5146,67.1426l-5-3A1,1,0,0,0,18,65v6a1,1,0,0,0,1.5146.8574l5-3a1,1,0,0,0,0-1.7148Z" style="fill:#2965ed"/><rect x="50" y="55" width="34" height="27" rx="1" ry="1" style="fill:#e6ecff"/><circle cx="67" cy="68" r="8" style="fill:#4294ff"/><path d="M86,77H76.3818l-2,3H59.6182l-2-3H48a1,1,0,0,0-1,1v3a4,4,0,0,0,4,4H83a4,4,0,0,0,4-4V78A1,1,0,0,0,86,77Z" style="fill:#4294ff"/><path d="M70.5146,67.1426l-5-3A1,1,0,0,0,64,65v6a1,1,0,0,0,1.5146.8574l5-3a1,1,0,0,0,0-1.7148Z" style="fill:#2965ed"/><circle cx="44" cy="46" r="3" style="fill:#4294ff"/></g></svg>