<svg xmlns="http://www.w3.org/2000/svg" viewBox="0 0 88 88"><title>Artboard-1</title><g id="Desk"><rect x="23" y="1" width="42" height="34" rx="6" ry="6" style="fill:#e6ecff"/><path d="M64.65,31A5.981,5.981,0,0,1,59,35H29a6.0048,6.0048,0,0,1-6-6V7a5.99,5.99,0,0,1,5-5.91V12.53A18.4709,18.4709,0,0,0,46.47,31Z" style="fill:#b7c6e2"/><polygon points="22 42 11 42 8 32 19 32 22 42" style="fill:#4294ff"/><polygon points="11 42 5 42 8 32 11 42" style="fill:#2045ce"/><path d="M15.01,42H11L8,32h2.24A32.8263,32.8263,0,0,0,15.01,42Z" style="fill:#2965ed"/><rect x="11" y="47" width="34" height="16" style="fill:#4294ff"/><path d="M45,56v7H11V47h8.35A32.8652,32.8652,0,0,0,42,56Z" style="fill:#2965ed"/><path d="M30.5,57h-4a1,1,0,0,1,0-2h4a1,1,0,0,1,0,2Z" style="fill:#2045ce"/><rect x="12" y="48" width="64" height="3" style="fill:#376cfb"/><path d="M24.53,51H12V48h8.45A32.4351,32.4351,0,0,0,24.53,51Z" style="fill:#2045ce"/><rect x="44" y="47" width="33" height="16" style="fill:#376cfb"/><rect x="44" y="56" width="33" height="7" style="fill:#2045ce"/><path d="M61.5,57h-4a1,1,0,0,1,0-2h4a1,1,0,0,1,0,2Z" style="fill:#2946ed"/><rect x="44" y="48" width="31" height="3" style="fill:#2946ed"/><rect x="5" y="47" width="8" height="40" rx="1" ry="1" style="fill:#8ea6ce"/><rect x="75" y="47" width="8" height="40" rx="1" ry="1" style="fill:#d0dbf7"/><rect x="5" y="47" width="8" height="4" style="fill:#6c7c93"/><rect x="75" y="47" width="8" height="4" style="fill:#becced"/><path d="M53.4473,41.1055A6.2014,6.2014,0,0,1,50,35.5278V34a1,1,0,0,0-1-1H39a1,1,0,0,0-1,1v1.5278a6.2014,6.2014,0,0,1-3.4473,5.5777A1,1,0,0,0,35,43H53a1,1,0,0,0,.4473-1.8945Z" style="fill:#2045ce"/><path d="M72,35a6.0066,6.0066,0,0,0-6,6v1a1,1,0,0,0,1,1H77a1,1,0,0,0,1-1V41A6.0066,6.0066,0,0,0,72,35Z" style="fill:#4294ff"/><path d="M50.5078,11.8081a.9993.9993,0,0,0-.9927-.0127L44,14.856l-5.5151-3.0606A1,1,0,0,0,37,12.67v6a1.0007,1.0007,0,0,0,.5146.8745l6,3.33a1.0014,1.0014,0,0,0,.9708,0l6-3.33A1.0007,1.0007,0,0,0,51,18.67v-6A1.0017,1.0017,0,0,0,50.5078,11.8081Z" style="fill:#376cfb"/><path d="M53,18a1,1,0,0,1-1-1V11a1,1,0,0,1,2,0v6A1,1,0,0,1,53,18Z" style="fill:#376cfb"/><path d="M53.4858,10.126l-9-5a1,1,0,0,0-.9716,0l-9,5a1,1,0,0,0,0,1.748l9,5a1,1,0,0,0,.9716,0l9-5a1,1,0,0,0,0-1.748Z" style="fill:#4294ff"/><path d="M29,35H59a6.0066,6.0066,0,0,0,6-6V27H23v2A6.0066,6.0066,0,0,0,29,35Z" style="fill:#4294ff"/><rect x="1" y="41" width="86" height="8" rx="1" ry="1" style="fill:#e6ecff"/><path d="M21.66,49H2a1.0029,1.0029,0,0,1-1-1V42a1.0029,1.0029,0,0,1,1-1H14.34A33.1792,33.1792,0,0,0,21.66,49Z" style="fill:#b7c6e2"/><path d="M62.5,56a1.0029,1.0029,0,0,1-1,1h-4a1.0029,1.0029,0,0,1-1-1Z" style="fill:#1036af"/><path d="M83,56V86a1.0029,1.0029,0,0,1-1,1H76a1.0029,1.0029,0,0,1-1-1V56Z" style="fill:#8ea6ce"/><path d="M64.65,31A5.981,5.981,0,0,1,59,35H29a6.0048,6.0048,0,0,1-6-6V27H35a18.4018,18.4018,0,0,0,11.47,4Z" style="fill:#2965ed"/><path d="M46,32H42a1,1,0,0,1,0-2h4a1,1,0,0,1,0,2Z" style="fill:#376cfb"/><path d="M47,31a1.0029,1.0029,0,0,1-1,1H42a1.0029,1.0029,0,0,1-1-1,.9738.9738,0,0,1,.32-.73,18.21,18.21,0,0,0,5.15.73Z" style="fill:#2045ce"/></g></svg>