<svg xmlns="http://www.w3.org/2000/svg" viewBox="0 0 88 88"><title>Artboard-12</title><g id="Video_Player" data-name="Video Player"><rect x="13" y="1" width="50" height="86" rx="4" ry="4" style="fill:#e6ecff"/><path d="M58,5H42a1,1,0,0,0-1,1,3,3,0,0,1-6,0,1,1,0,0,0-1-1H18a1,1,0,0,0-1,1V82a1,1,0,0,0,1,1H58a1,1,0,0,0,1-1V6A1,1,0,0,0,58,5Z" style="fill:#d0dbf7"/><circle cx="38" cy="6" r="1" style="fill:#4294ff"/><path d="M58,31A17.019,17.019,0,0,0,41,48v8.5859L34.293,63.293A1,1,0,0,0,35,65H58a17,17,0,0,0,0-34Z" style="fill:#4294ff"/><path d="M65.5039,47.1362l-12-7A1,1,0,0,0,52,41V55a1,1,0,0,0,1.5039.8638l12-7a1,1,0,0,0,0-1.7276Z" style="fill:#376cfb"/></g></svg>