<svg xmlns="http://www.w3.org/2000/svg" viewBox="0 0 88 88"><title>Artboard-9</title><g id="Telephone"><rect x="19" y="1" width="50" height="86" rx="4" ry="4" style="fill:#4294ff"/><path d="M64,5H48a1,1,0,0,0-1,1,3,3,0,0,1-6,0,1,1,0,0,0-1-1H24a1,1,0,0,0-1,1V82a1,1,0,0,0,1,1H64a1,1,0,0,0,1-1V6A1,1,0,0,0,64,5Z" style="fill:#e6ecff"/><circle cx="44" cy="6" r="1" style="fill:#376cfb"/><path d="M54.9805,47.3765,49,46.18V41.74a1,1,0,0,0-1.5781-.8164,6.0715,6.0715,0,0,1-6.8438,0A1,1,0,0,0,39,41.74v4.44l-5.98,1.1963A5.0135,5.0135,0,0,0,29,52.2793V61a1,1,0,0,0,1,1H58a1,1,0,0,0,1-1V52.2793A5.0135,5.0135,0,0,0,54.9805,47.3765Z" style="fill:#4294ff"/><path d="M49,41.74v4.44l-5,3.75-5-3.75V41.74a1.0085,1.0085,0,0,1,.54-.89,1.0232,1.0232,0,0,1,1.04.07,6.059,6.059,0,0,0,6.84,0,1.0232,1.0232,0,0,1,1.04-.07A1.0085,1.0085,0,0,1,49,41.74Z" style="fill:#edb7b7"/><path d="M53,56v6H51V56a1,1,0,0,1,2,0Z" style="fill:#376cfb"/><path d="M59,68H29a1,1,0,0,1,0-2H59a1,1,0,0,1,0,2Z" style="fill:#4294ff"/><path d="M51.5742,28.6313a1.0027,1.0027,0,0,0-.916-.121L44,30.9355,37.3418,28.51A1,1,0,0,0,36,29.45V36a8,8,0,0,0,16,0V29.45A1.0007,1.0007,0,0,0,51.5742,28.6313Z" style="fill:#ffd2d2"/><path d="M52,29.45a1,1,0,0,0-1.3418-.94L48,29.4785V32a4.0011,4.0011,0,0,0,2.3965,3.665,3.9594,3.9594,0,0,0,1.5976.336L52,36V29.45Z" style="fill:#393c47"/><path d="M36,29.45a1,1,0,0,1,1.3418-.94L40,29.4785V32a4.0011,4.0011,0,0,1-2.3965,3.665,3.9594,3.9594,0,0,1-1.5976.336L36,36V29.45Z" style="fill:#393c47"/><path d="M51.5732,23.63a1,1,0,0,0-.9169-.1192L44,25.936l-6.6572-2.4253A1,1,0,0,0,36,24.45v5.6989l.0008.0011L43.6582,32.94a.9958.9958,0,0,0,.6836,0L52,30.15v-5.7A1.0005,1.0005,0,0,0,51.5732,23.63Z" style="fill:#376cfb"/><path d="M55,30.875a1,1,0,0,1-1-1V23a1,1,0,0,1,2,0v6.875A1,1,0,0,1,55,30.875Z" style="fill:#376cfb"/><path d="M55.3418,22.06l-11-4a1.0024,1.0024,0,0,0-.6836,0l-11,4a1,1,0,0,0,0,1.88l11,4a1.002,1.002,0,0,0,.6836,0l11-4a1,1,0,0,0,0-1.88Z" style="fill:#4294ff"/><path d="M32,70a1,1,0,0,1-1-1V65a1,1,0,0,1,2,0v4A1,1,0,0,1,32,70Z" style="fill:#376cfb"/><path d="M37,56v6H35V56a1,1,0,0,1,2,0Z" style="fill:#376cfb"/><path d="M45,55v7H43V55a1,1,0,0,1,2,0Z" style="fill:#2946ed"/><path d="M32.4083,47.5559,43.4,55.8a.998.998,0,0,0,1.1992,0l10.992-8.244a4.9339,4.9339,0,0,0-.6111-.1793L49,46.18h0l-5,3.75-5-3.75v0l-5.98,1.1963A4.9136,4.9136,0,0,0,32.4083,47.5559Z" style="fill:#376cfb"/></g></svg>