<svg xmlns="http://www.w3.org/2000/svg" viewBox="0 0 88 88"><title>Artboard-39</title><g id="Calendar_Graduation" data-name="Calendar Graduation"><path d="M82,14H6a5,5,0,0,0-5,5V75a5,5,0,0,0,5,5H76L87,69V19A5,5,0,0,0,82,14Z" style="fill:#e6ecff"/><polygon points="76 69 73 80 76 80 76 69" style="fill:#b7c6e2"/><path d="M76,14v1a1,1,0,0,1-2,0V14Z" style="fill:#376cfb"/><path d="M59,14v1a1,1,0,0,1-2,0V14Z" style="fill:#376cfb"/><path d="M41,14v1a1,1,0,0,1-2,0V14Z" style="fill:#376cfb"/><path d="M24,14v1a1,1,0,0,1-2,0V14Z" style="fill:#376cfb"/><path d="M82,14H6a5,5,0,0,0-5,5v9H87V19A5,5,0,0,0,82,14Z" style="fill:#4294ff"/><path d="M24,14H22a4,4,0,0,0-8,0v3a3.9989,3.9989,0,0,0,4,4,1,1,0,0,1,0,2,6.0048,6.0048,0,0,1-6-6V14a6,6,0,0,1,12,0Z" style="fill:#376cfb"/><path d="M41,14H39a4,4,0,0,0-8,0v3a3.9989,3.9989,0,0,0,4,4,1,1,0,0,1,0,2,6.0048,6.0048,0,0,1-6-6V14a6,6,0,0,1,12,0Z" style="fill:#376cfb"/><path d="M59,14H57a4,4,0,0,0-8,0v3a3.9989,3.9989,0,0,0,4,4,1,1,0,0,1,0,2,6.0048,6.0048,0,0,1-6-6V14a6,6,0,0,1,12,0Z" style="fill:#376cfb"/><path d="M76,14H74a4,4,0,0,0-8,0v3a3.9989,3.9989,0,0,0,4,4,1,1,0,0,1,0,2,6.0048,6.0048,0,0,1-6-6V14a6,6,0,0,1,12,0Z" style="fill:#376cfb"/><path d="M58.5342,49.0146a1.0044,1.0044,0,0,0-.9639-.0576L43,55.8926,28.43,48.957A1,1,0,0,0,27,49.86v12a1,1,0,0,0,.57.9033l15,7.14a1.0031,1.0031,0,0,0,.8594,0l15-7.14A1,1,0,0,0,59,61.86v-12A1.0014,1.0014,0,0,0,58.5342,49.0146Z" style="fill:#376cfb"/><path d="M64,60a1,1,0,0,1-1-1V47a1,1,0,0,1,2,0V59A1,1,0,0,1,64,60Z" style="fill:#376cfb"/><path d="M66.707,60.293l-2-2a.9994.9994,0,0,0-1.414,0l-2,2a.9994.9994,0,0,0-.2217,1.0781l2,5a1,1,0,0,0,1.8574,0l2-5A.9994.9994,0,0,0,66.707,60.293Z" style="fill:#376cfb"/><path d="M59,49.86v2.85l-14.71,7a3.0141,3.0141,0,0,1-2.58,0L27,52.71V49.86a1.0247,1.0247,0,0,1,.47-.85.9937.9937,0,0,1,.96-.05L43,55.89l14.57-6.93a.9937.9937,0,0,1,.96.05A1.0247,1.0247,0,0,1,59,49.86Z" style="fill:#2045ce"/><path d="M65,47v2.85l-2,.95V47a1,1,0,0,1,2,0Z" style="fill:#2045ce"/><path d="M82.5988,73.4012C30.39,82.0429,9.3069,62.577,1,44.96V75a5,5,0,0,0,5,5H76Z" style="fill:#b7c6e2"/><path d="M64.43,46.0967l-21-10a1.0033,1.0033,0,0,0-.8594,0l-21,10a1.0005,1.0005,0,0,0,0,1.8066l21,10a1.0031,1.0031,0,0,0,.8594,0l21-10a1.0005,1.0005,0,0,0,0-1.8066Z" style="fill:#4294ff"/><polygon points="76 80 76 69 87 69 76 80" style="fill:#4294ff"/><path d="M76,74.3776V80l6.5988-6.5988C80.3463,73.774,78.138,74.1071,76,74.3776Z" style="fill:#376cfb"/><path d="M74.49,74.5369,73,80h3V74.351C75.4945,74.4148,74.9891,74.4786,74.49,74.5369Z" style="fill:#8ea6ce"/></g></svg>