<svg xmlns="http://www.w3.org/2000/svg" viewBox="0 0 88 88"><title>Artboard-11</title><g id="Online_Class" data-name="Online Class"><rect x="1" y="5" width="86" height="78" rx="6" ry="6" style="fill:#e6ecff"/><path d="M87,77a6.0048,6.0048,0,0,1-6,6H7a6.0048,6.0048,0,0,1-6-6V11A6.0048,6.0048,0,0,1,7,5h9V45.06A31.94,31.94,0,0,0,47.94,77Z" style="fill:#b7c6e2"/><path d="M81,5H7a6,6,0,0,0-6,6V21H25a7.0109,7.0109,0,0,0,6.9287-6H87V11A6,6,0,0,0,81,5Z" style="fill:#4294ff"/><path d="M16,5V21H1V11A6.0048,6.0048,0,0,1,7,5Z" style="fill:#2965ed"/><rect x="10" y="24" width="68" height="43" rx="1" ry="1" style="fill:#d0dbf7"/><circle cx="8" cy="14" r="3" style="fill:#2045ce"/><circle cx="24" cy="14" r="3" style="fill:#376cfb"/><path d="M80,11H39a1,1,0,0,1,0-2H80a1,1,0,0,1,0,2Z" style="fill:#376cfb"/><path d="M77,72H11a1,1,0,0,1,0-2H77a1,1,0,0,1,0,2Z" style="fill:#4294ff"/><path d="M57,74a1,1,0,0,1-1-1V69a1,1,0,0,1,2,0v4A1,1,0,0,1,57,74Z" style="fill:#376cfb"/><path d="M12,80a1,1,0,0,1-1-1V75a1,1,0,0,1,2,0v4A1,1,0,0,1,12,80Z" style="fill:#2965ed"/><path d="M16,80a1,1,0,0,1-1-1V75a1,1,0,0,1,2,0v4A1,1,0,0,1,16,80Z" style="fill:#2965ed"/><path d="M27,80a1,1,0,0,1-1-1V75a1,1,0,0,1,2,0v4A1,1,0,0,1,27,80Z" style="fill:#2965ed"/><path d="M22,80a1,1,0,0,1-.707-1.707L22.5859,77,21.293,75.707a1,1,0,0,1,1.414-1.414l2,2a.9994.9994,0,0,1,0,1.414l-2,2A.9967.9967,0,0,1,22,80Z" style="fill:#2965ed"/><path d="M54.9807,55.3764,49,54.18V49.74a1,1,0,0,0-1.5776-.8164,6.0731,6.0731,0,0,1-6.8448,0A1,1,0,0,0,39,49.74v4.44l-5.9807,1.1962A5,5,0,0,0,29,60.2793V67H59V60.2793A5,5,0,0,0,54.9807,55.3764Z" style="fill:#4294ff"/><path d="M49,49.7405v4.44l-5,3.75-5-3.75v-4.44a1.0085,1.0085,0,0,1,.54-.89,1.0232,1.0232,0,0,1,1.04.07,6.0593,6.0593,0,0,0,6.84,0,1.0232,1.0232,0,0,1,1.04-.07A1.0085,1.0085,0,0,1,49,49.7405Z" style="fill:#edb7b7"/><path d="M45,62v5H43V62a1,1,0,0,1,2,0Z" style="fill:#2946ed"/><path d="M53,63v4H51V63a1,1,0,0,1,2,0Z" style="fill:#376cfb"/><path d="M37,63v4H35V63a1,1,0,0,1,2,0Z" style="fill:#376cfb"/><path d="M51.5737,37.6313a1,1,0,0,0-.915-.121L44,39.9355,37.3413,37.51A1,1,0,0,0,36,38.45V44a8,8,0,0,0,16,0V38.45A1,1,0,0,0,51.5737,37.6313Z" style="fill:#ffd2d2"/><path d="M52,38.45V44a8.2619,8.2619,0,0,1-.06,1A3.9994,3.9994,0,0,1,48,41V38.48l2.66-.97a.9846.9846,0,0,1,.91.12A.9966.9966,0,0,1,52,38.45Z" style="fill:#393c47"/><path d="M40,38.48V41a3.9994,3.9994,0,0,1-3.94,4A8.2619,8.2619,0,0,1,36,44V38.45a.9966.9966,0,0,1,.43-.82.9846.9846,0,0,1,.91-.12Z" style="fill:#393c47"/><path d="M55,39.875a1,1,0,0,1-1-1V33a1,1,0,0,1,2,0v5.875A1,1,0,0,1,55,39.875Z" style="fill:#376cfb"/><path d="M51.5728,33.63a.9987.9987,0,0,0-.9165-.1192L44.0005,35.936l-6.6582-2.4253A1,1,0,0,0,36,34.45v4.7L43.6577,41.94a.9986.9986,0,0,0,.6846,0L52,39.15v-4.7A1.0012,1.0012,0,0,0,51.5728,33.63Z" style="fill:#376cfb"/><path d="M55.3418,32.06l-11-4a1.0024,1.0024,0,0,0-.6836,0l-11,4a1,1,0,0,0,0,1.88l11,4a1.002,1.002,0,0,0,.6836,0l11-4a1,1,0,0,0,0-1.88Z" style="fill:#4294ff"/><path d="M32.4076,55.5556,43.4,63.8a1,1,0,0,0,1.2,0l10.9923-8.2442a4.9846,4.9846,0,0,0-.6117-.1792L49,54.18h0l-5,3.75-5-3.75v0l-5.9807,1.1962A4.9846,4.9846,0,0,0,32.4076,55.5556Z" style="fill:#376cfb"/><path d="M24.74,67H11a1.0029,1.0029,0,0,1-1-1V25a1.0029,1.0029,0,0,1,1-1h5V45.06A31.8318,31.8318,0,0,0,24.74,67Z" style="fill:#8ea6ce"/><path d="M30.79,72H11a1,1,0,0,1,0-2H28.01A30.0572,30.0572,0,0,0,30.79,72Z" style="fill:#2965ed"/><circle cx="16" cy="14" r="3" style="fill:#376cfb"/><path d="M16,11v6a3,3,0,0,1,0-6Z" style="fill:#2045ce"/></g></svg>