<svg xmlns="http://www.w3.org/2000/svg" viewBox="0 0 88 88"><title>Artboard-10</title><g id="Video_Class" data-name="Video Class"><rect x="7" y="1" width="74" height="52" rx="5" ry="5" style="fill:#e6ecff"/><path d="M81,47v1a5.0018,5.0018,0,0,1-5,5H12a5.0018,5.0018,0,0,1-5-5V6a5.0018,5.0018,0,0,1,5-5h2V15.56A31.4449,31.4449,0,0,0,45.44,47Z" style="fill:#b7c6e2"/><rect x="11" y="15" width="66" height="34" rx="1" ry="1" style="fill:#d0dbf7"/><path d="M49.6406,28.2324a.9945.9945,0,0,0-.8193-.2163l-33,6A1,1,0,0,0,15,35V49H36V38.78l7.3389-1.5567A8.4467,8.4467,0,0,0,50,29,1,1,0,0,0,49.6406,28.2324Z" style="fill:#4294ff"/><path d="M36,45.56V49H15V35a.9976.9976,0,0,1,.82-.98l3.69-.67A31.5689,31.5689,0,0,0,36,45.56Z" style="fill:#376cfb"/><path d="M77,47v1a1.0029,1.0029,0,0,1-1,1H12a1.0029,1.0029,0,0,1-1-1V16a1.0029,1.0029,0,0,1,1-1h2v.56A31.4449,31.4449,0,0,0,45.44,47Z" style="fill:#8ea6ce"/><path d="M73.6045,69.0732a.9989.9989,0,0,0-.875-.166A2.6627,2.6627,0,0,1,72,69H68a2.6627,2.6627,0,0,1-.73-.0928A1,1,0,0,0,66,69.87V75a1,1,0,0,0,1,1h6a1,1,0,0,0,1-1V69.87A1.0006,1.0006,0,0,0,73.6045,69.0732Z" style="fill:#376cfb"/><path d="M47.6045,69.0732a.9989.9989,0,0,0-.875-.166A2.6627,2.6627,0,0,1,46,69H42a2.6627,2.6627,0,0,1-.73-.0928A1,1,0,0,0,40,69.87V75a1,1,0,0,0,1,1h6a1,1,0,0,0,1-1V69.87A1.0006,1.0006,0,0,0,47.6045,69.0732Z" style="fill:#376cfb"/><path d="M21.6045,69.0732a1,1,0,0,0-.875-.166A2.6627,2.6627,0,0,1,20,69H16a2.6627,2.6627,0,0,1-.7295-.0928A1,1,0,0,0,14,69.87V75a1,1,0,0,0,1,1h6a1,1,0,0,0,1-1V69.87A1.0006,1.0006,0,0,0,21.6045,69.0732Z" style="fill:#376cfb"/><rect x="39" y="19" width="34" height="26" rx="1" ry="1" style="fill:#376cfb"/><path d="M68,33H53a1,1,0,0,1,0-2H68a1,1,0,0,1,0,2Z" style="fill:#2946ed"/><path d="M68,29H53a1,1,0,0,1,0-2H68a1,1,0,0,1,0,2Z" style="fill:#2946ed"/><path d="M68,25H44a1,1,0,0,1,0-2H68a1,1,0,0,1,0,2Z" style="fill:#2946ed"/><path d="M68,41H44a1,1,0,0,1,0-2H68a1,1,0,0,1,0,2Z" style="fill:#2946ed"/><path d="M68,37H50a1,1,0,0,1,0-2H68a1,1,0,0,1,0,2Z" style="fill:#2946ed"/><path d="M76,1H12A5,5,0,0,0,7,6v7H30a5.0085,5.0085,0,0,0,4.8994-4H81V6A5,5,0,0,0,76,1Z" style="fill:#4294ff"/><circle cx="21" cy="7" r="3" style="fill:#376cfb"/><circle cx="28" cy="7" r="3" style="fill:#376cfb"/><path d="M75,6H46a1,1,0,0,1,0-2H75a1,1,0,0,1,0,2Z" style="fill:#376cfb"/><path d="M75,74H65a6.0066,6.0066,0,0,0-6,6v6a1,1,0,0,0,1,1H80a1,1,0,0,0,1-1V80A6.0066,6.0066,0,0,0,75,74Z" style="fill:#4294ff"/><path d="M49,74H39a6.0066,6.0066,0,0,0-6,6v6a1,1,0,0,0,1,1H54a1,1,0,0,0,1-1V80A6.0066,6.0066,0,0,0,49,74Z" style="fill:#4294ff"/><path d="M23,74H13a6.0066,6.0066,0,0,0-6,6v6a1,1,0,0,0,1,1H28a1,1,0,0,0,1-1V80A6.0066,6.0066,0,0,0,23,74Z" style="fill:#4294ff"/><path d="M86,87H2a1,1,0,0,1,0-2H86a1,1,0,0,1,0,2Z" style="fill:#376cfb"/><circle cx="25" cy="25" r="6" style="fill:#4294ff"/><rect x="63" y="55" width="14" height="16" rx="5" ry="5" style="fill:#4294ff"/><rect x="37" y="55" width="14" height="16" rx="5" ry="5" style="fill:#4294ff"/><rect x="11" y="55" width="14" height="16" rx="5" ry="5" style="fill:#4294ff"/><circle cx="25" cy="25" r="6" style="fill:#4294ff"/><path d="M14,1V13H7V6a5.0018,5.0018,0,0,1,5-5Z" style="fill:#2965ed"/><circle cx="14" cy="7" r="3" style="fill:#376cfb"/><path d="M14,4v6a3,3,0,0,1,0-6Z" style="fill:#2045ce"/><path d="M49.6406,28.2324a.9945.9945,0,0,0-.8193-.2163l-33,6A1,1,0,0,0,15,35V49H36V38.78l7.3389-1.5567A8.4467,8.4467,0,0,0,50,29,1,1,0,0,0,49.6406,28.2324Z" style="fill:#4294ff"/><path d="M36,45.56V49H15V35a.9976.9976,0,0,1,.82-.98l3.69-.67A31.5689,31.5689,0,0,0,36,45.56Z" style="fill:#2965ed"/></g></svg>