<svg xmlns="http://www.w3.org/2000/svg" viewBox="0 0 88 88"><title>Artboard-26</title><g id="Web-2" data-name="Web"><rect x="1" y="9" width="86" height="70" rx="6" ry="6" style="fill:#e6ecff"/><path d="M81,9H7a6,6,0,0,0-6,6V25H25a7.0109,7.0109,0,0,0,6.9287-6H87V15A6,6,0,0,0,81,9Z" style="fill:#4294ff"/><circle cx="8" cy="18" r="3" style="fill:#376cfb"/><circle cx="16" cy="18" r="3" style="fill:#376cfb"/><circle cx="24" cy="18" r="3" style="fill:#376cfb"/><path d="M80,15H39a1,1,0,0,1,0-2H80a1,1,0,0,1,0,2Z" style="fill:#376cfb"/><path d="M86.91,74A5.99,5.99,0,0,1,81,79H7a6.0048,6.0048,0,0,1-6-6V15A6.0048,6.0048,0,0,1,7,9H8V21.31A52.69,52.69,0,0,0,60.69,74Z" style="fill:#b7c6e2"/><path d="M8.13,25H1V15A6.0048,6.0048,0,0,1,7,9H8V21.31C8,22.55,8.04,23.78,8.13,25Z" style="fill:#2965ed"/><path d="M8,15v6a3,3,0,0,1,0-6Z" style="fill:#2045ce"/><rect x="15" y="40" width="58" height="28" style="fill:#376cfb"/><path d="M15,68H36.2764A52.9116,52.9116,0,0,1,15,47.5394Z" style="fill:#2045ce"/><rect x="44" y="40" width="29" height="28" style="fill:#2946ed"/><path d="M49,34a5,5,0,0,0-5,5V67a5,5,0,0,1,5-5H68V34Z" style="fill:#376cfb"/><path d="M64,39H49a1,1,0,0,1,0-2H64a1,1,0,0,1,0,2Z" style="fill:#2946ed"/><path d="M64,43H49a1,1,0,0,1,0-2H64a1,1,0,0,1,0,2Z" style="fill:#2946ed"/><path d="M64,47H49a1,1,0,0,1,0-2H64a1,1,0,0,1,0,2Z" style="fill:#2946ed"/><path d="M64,51H49a1,1,0,0,1,0-2H64a1,1,0,0,1,0,2Z" style="fill:#2946ed"/><path d="M64,55H49a1,1,0,0,1,0-2H64a1,1,0,0,1,0,2Z" style="fill:#2946ed"/><path d="M64,59H49a1,1,0,0,1,0-2H64a1,1,0,0,1,0,2Z" style="fill:#2946ed"/><path d="M39,34H20V62H39a5,5,0,0,1,5,5V39A5,5,0,0,0,39,34Z" style="fill:#4294ff"/><path d="M20,62h7.2147A53.0056,53.0056,0,0,1,20,54.7853Z" style="fill:#2965ed"/><path d="M37.4858,47.126l-9-5A.9995.9995,0,0,0,27,43V53a1,1,0,0,0,1.4858.874l9-5a1,1,0,0,0,0-1.748Z" style="fill:#376cfb"/></g></svg>