<svg xmlns="http://www.w3.org/2000/svg" viewBox="0 0 88 88"><title>Artboard-7</title><g id="Laptop-2" data-name="Laptop"><path d="M76,30H12a4.0045,4.0045,0,0,0-4,4V82a1,1,0,0,0,1,1H79a1,1,0,0,0,1-1V34A4.0045,4.0045,0,0,0,76,30Z" style="fill:#e6ecff"/><rect x="12" y="34" width="64" height="38" rx="1" ry="1" style="fill:#d0dbf7"/><path d="M86,76H64a1,1,0,0,0-.832.4453L61.4648,79h-34.93L24.832,76.4453A1,1,0,0,0,24,76H2a1,1,0,0,0-1,1v4a5.0059,5.0059,0,0,0,5,5H82a5.0059,5.0059,0,0,0,5-5V77A1,1,0,0,0,86,76Z" style="fill:#4294ff"/><path d="M49,55H39a1,1,0,0,0-1,1v1a6,6,0,0,0,12,0V56A1,1,0,0,0,49,55Z" style="fill:#2946ed"/><path d="M44,12a15.9974,15.9974,0,0,0-7,30.3833V46a1,1,0,0,0,1,1H50a1,1,0,0,0,1-1V42.3833A15.9974,15.9974,0,0,0,44,12Z" style="fill:#4294ff"/><path d="M46,47a1,1,0,0,1-1-1V33H43V46a1,1,0,0,1-2,0V33H39.5A3.5,3.5,0,1,1,43,29.5V31h2V29.5A3.5,3.5,0,1,1,48.5,33H47V46A1,1,0,0,1,46,47Zm1-16h1.5A1.5,1.5,0,1,0,47,29.5Zm-7.5-3a1.5,1.5,0,0,0,0,3H41V29.5A1.5017,1.5017,0,0,0,39.5,28Z" style="fill:#2946ed"/><path d="M44,9a1,1,0,0,1-1-1V3a1,1,0,0,1,2,0V8A1,1,0,0,1,44,9Z" style="fill:#376cfb"/><path d="M33.501,11.8135a1,1,0,0,1-.8672-.5l-2.5-4.33a1,1,0,0,1,1.7324-1l2.5,4.33a1,1,0,0,1-.8652,1.5Z" style="fill:#376cfb"/><path d="M25.8125,19.5a.9973.9973,0,0,1-.499-.1338l-4.33-2.5a1,1,0,0,1,1-1.7324l4.33,2.5a1,1,0,0,1-.501,1.8662Z" style="fill:#376cfb"/><path d="M54.499,11.8135a1,1,0,0,1-.8652-1.5l2.5-4.33a1,1,0,0,1,1.7324,1l-2.5,4.33A1,1,0,0,1,54.499,11.8135Z" style="fill:#376cfb"/><path d="M62.1875,19.5a1,1,0,0,1-.501-1.8662l4.33-2.5a1,1,0,1,1,1,1.7324l-4.33,2.5A.9959.9959,0,0,1,62.1875,19.5Z" style="fill:#376cfb"/><rect x="34" y="45" width="20" height="12" rx="3" ry="3" style="fill:#376cfb"/><rect x="34" y="50" width="20" height="2" style="fill:#2946ed"/><path d="M80,82a1.0029,1.0029,0,0,1-1,1H9a1.0029,1.0029,0,0,1-1-1V34a3.9989,3.9989,0,0,1,4-4h5v9.19A42.8142,42.8142,0,0,0,59.81,82Z" style="fill:#b7c6e2"/><path d="M32.32,72H13a1.0029,1.0029,0,0,1-1-1V35a1.0029,1.0029,0,0,1,1-1h4v5.19A42.6942,42.6942,0,0,0,32.32,72Z" style="fill:#8ea6ce"/><path d="M86.9,82A5,5,0,0,1,82,86H6a5.0018,5.0018,0,0,1-5-5V77a1.0029,1.0029,0,0,1,1-1H24a.995.995,0,0,1,.83.45L26.54,79h17.5a42.5874,42.5874,0,0,0,15.77,3Z" style="fill:#2965ed"/></g></svg>