<svg xmlns="http://www.w3.org/2000/svg" viewBox="0 0 88 88"><title>Artboard-28</title><g id="Male_student" data-name="Male student"><path d="M78,13H10a4.0045,4.0045,0,0,0-4,4V71a1,1,0,0,0,1,1H81a1,1,0,0,0,1-1V17A4.0045,4.0045,0,0,0,78,13Z" style="fill:#e6ecff"/><rect x="10" y="17" width="68" height="44" rx="1" ry="1" style="fill:#d0dbf7"/><path d="M82,71a1.0029,1.0029,0,0,1-1,1H7a1.0029,1.0029,0,0,1-1-1V17a3.9989,3.9989,0,0,1,4-4h7V28.19A42.8142,42.8142,0,0,0,59.81,71Z" style="fill:#b7c6e2"/><path d="M86,65H65a1,1,0,0,0-.832.4453L62.4648,68h-36.93L23.832,65.4453A1,1,0,0,0,23,65H2a1,1,0,0,0-1,1v4a5.0059,5.0059,0,0,0,5,5H82a5.0059,5.0059,0,0,0,5-5V66A1,1,0,0,0,86,65Z" style="fill:#4294ff"/><path d="M86.9,71A5,5,0,0,1,82,75H6a5.0018,5.0018,0,0,1-5-5V66a1.0029,1.0029,0,0,1,1-1H23a.995.995,0,0,1,.83.45L25.54,68h18.5a42.5874,42.5874,0,0,0,15.77,3Z" style="fill:#2965ed"/><path d="M32.32,61H11a1.0029,1.0029,0,0,1-1-1V18a1.0029,1.0029,0,0,1,1-1h6V28.19A42.6942,42.6942,0,0,0,32.32,61Z" style="fill:#8ea6ce"/><path d="M55,33.875a1,1,0,0,1-1-1V26a1,1,0,0,1,2,0v6.875A1,1,0,0,1,55,33.875Z" style="fill:#376cfb"/><path d="M55.15,47.1776,49,46.1533V41.74a1,1,0,0,0-1.5781-.8164,6.0723,6.0723,0,0,1-6.8443,0A1,1,0,0,0,39,41.74v4.4131l-6.1509,1.0244A6.999,6.999,0,0,0,27,54.0815V61H61V54.083A7.0006,7.0006,0,0,0,55.15,47.1776Z" style="fill:#4294ff"/><path d="M49,41.74v4.4133L44,49.75l-5-3.5461V41.74a1.0085,1.0085,0,0,1,.54-.89,1.0232,1.0232,0,0,1,1.04.07,6.059,6.059,0,0,0,6.84,0,1.0232,1.0232,0,0,1,1.04-.07A1.0085,1.0085,0,0,1,49,41.74Z" style="fill:#edb7b7"/><path d="M51.5742,30.6309a.9951.9951,0,0,0-.916-.12L44,32.9355l-6.6587-2.4248A.9992.9992,0,0,0,36,31.45V36a8,8,0,0,0,16,0V31.45A1.002,1.002,0,0,0,51.5742,30.6309Z" style="fill:#ffd2d2"/><path d="M35,55h0a1,1,0,0,1,1,1v5a0,0,0,0,1,0,0H34a0,0,0,0,1,0,0V56A1,1,0,0,1,35,55Z" style="fill:#376cfb"/><path d="M53,55h0a1,1,0,0,1,1,1v5a0,0,0,0,1,0,0H52a0,0,0,0,1,0,0V56A1,1,0,0,1,53,55Z" style="fill:#376cfb"/><rect x="43" y="55" width="2" height="6" style="fill:#2946ed"/><path d="M32.1231,47.3421,43.4,55.8a1,1,0,0,0,1.2,0L55.876,47.342a7.1222,7.1222,0,0,0-.7256-.1643L49,46.1533h0L44,49.75l-5-3.5967h0l-6.1509,1.0244A7.1362,7.1362,0,0,0,32.1231,47.3421Z" style="fill:#376cfb"/><path d="M52,31.45V36a8.0957,8.0957,0,0,1-.25,1.99A3.918,3.918,0,0,1,48,34.08v-2.6l2.66-.97a.9846.9846,0,0,1,.91.12A.9966.9966,0,0,1,52,31.45Z" style="fill:#393c47"/><path d="M40,31.48v2.6a3.918,3.918,0,0,1-3.75,3.91A8.0957,8.0957,0,0,1,36,36V31.45a.9966.9966,0,0,1,.43-.82.9846.9846,0,0,1,.91-.12Z" style="fill:#393c47"/><path d="M51.5732,26.6309a1.0087,1.0087,0,0,0-.9169-.12l-6.6558,2.4248-6.6582-2.4248A1,1,0,0,0,36,27.45v4.7l0,0L43.6577,34.94a.9986.9986,0,0,0,.6846,0L52,32.15v-4.7A.999.999,0,0,0,51.5732,26.6309Z" style="fill:#376cfb"/><path d="M55.3418,25.0605l-11-4a1.0036,1.0036,0,0,0-.6836,0l-11,4a1,1,0,0,0,0,1.879l11,4a.9958.9958,0,0,0,.6836,0l11-4a1,1,0,0,0,0-1.879Z" style="fill:#4294ff"/><path d="M27,55.6774V61h5.3226A43.0657,43.0657,0,0,1,27,55.6774Z" style="fill:#2965ed"/></g></svg>