<svg xmlns="http://www.w3.org/2000/svg" viewBox="0 0 88 88"><title>Artboard-33</title><g id="Laptop"><path d="M76,22H12a4.0045,4.0045,0,0,0-4,4V74a1,1,0,0,0,1,1H79a1,1,0,0,0,1-1V26A4.0045,4.0045,0,0,0,76,22Z" style="fill:#e6ecff"/><rect x="12" y="26" width="64" height="38" rx="1" ry="1" style="fill:#d0dbf7"/><path d="M86,68H64a1,1,0,0,0-.832.4453L61.4648,71h-34.93L24.832,68.4453A1,1,0,0,0,24,68H2a1,1,0,0,0-1,1v4a5.0059,5.0059,0,0,0,5,5H82a5.0059,5.0059,0,0,0,5-5V69A1,1,0,0,0,86,68Z" style="fill:#4294ff"/><path d="M80,74a1.0029,1.0029,0,0,1-1,1H9a1.0029,1.0029,0,0,1-1-1V26a3.9989,3.9989,0,0,1,4-4h5v9.19A42.8142,42.8142,0,0,0,59.81,74Z" style="fill:#b7c6e2"/><path d="M32.32,64H13a1.0029,1.0029,0,0,1-1-1V27a1.0029,1.0029,0,0,1,1-1h4v5.19A42.6942,42.6942,0,0,0,32.32,64Z" style="fill:#8ea6ce"/><path d="M86.9,74A5,5,0,0,1,82,78H6a5.0018,5.0018,0,0,1-5-5V69a1.0029,1.0029,0,0,1,1-1H24a.995.995,0,0,1,.83.45L26.54,71h17.5a42.5874,42.5874,0,0,0,15.77,3Z" style="fill:#2965ed"/><path d="M63,10H33l-9,9V64H64V11A1,1,0,0,0,63,10Z" style="fill:#4294ff"/><polygon points="33 10 33 19 24 19 33 10" style="fill:#376cfb"/><path d="M24,54.626V64h8.32A42.9749,42.9749,0,0,1,24,54.626Z" style="fill:#2965ed"/><path d="M58,44H30a1,1,0,0,1,0-2H58a1,1,0,0,1,0,2Z" style="fill:#376cfb"/><path d="M51,49H30a1,1,0,0,1,0-2H51a1,1,0,0,1,0,2Z" style="fill:#376cfb"/><path d="M51,54H30a1,1,0,0,1,0-2H51a1,1,0,0,1,0,2Z" style="fill:#376cfb"/><path d="M51,59H30a1,1,0,0,1,0-2H51a1,1,0,0,1,0,2Z" style="fill:#376cfb"/><circle cx="44" cy="28" r="11" style="fill:#376cfb"/><path d="M49.53,27.1523l-8-5A.9993.9993,0,0,0,40,23V33a.9995.9995,0,0,0,1.53.8477l8-5a1,1,0,0,0,0-1.6954Z" style="fill:#2946ed"/><path d="M58,49H55a1,1,0,0,1,0-2h3a1,1,0,0,1,0,2Z" style="fill:#376cfb"/><path d="M58,54H55a1,1,0,0,1,0-2h3a1,1,0,0,1,0,2Z" style="fill:#376cfb"/><path d="M58,59H55a1,1,0,0,1,0-2h3a1,1,0,0,1,0,2Z" style="fill:#376cfb"/></g></svg>