<svg xmlns="http://www.w3.org/2000/svg" viewBox="0 0 88 88"><title>Artboard-3</title><g id="Laptop_Certificate" data-name="Laptop Certificate"><path d="M76,23H12a4.0045,4.0045,0,0,0-4,4V71a1,1,0,0,0,1,1H79a1,1,0,0,0,1-1V27A4.0042,4.0042,0,0,0,76,23Z" style="fill:#e6ecff"/><path d="M60.43,72H9a1.0029,1.0029,0,0,1-1-1V27a3.9989,3.9989,0,0,1,4-4h3.32A56.0106,56.0106,0,0,0,60.43,72Z" style="fill:#b7c6e2"/><rect x="12" y="27" width="64" height="36" rx="1" ry="1" style="fill:#d0dbf7"/><path d="M39.07,63H13a1.0029,1.0029,0,0,1-1-1V28a1.0029,1.0029,0,0,1,1-1h2.89A55.9506,55.9506,0,0,0,39.07,63Z" style="fill:#8ea6ce"/><path d="M61,40V11H31a3.9989,3.9989,0,0,0-4,4V63H61V56l-4,3V50.46A5.9916,5.9916,0,0,1,61,40Z" style="fill:#4294ff"/><path d="M39.07,63H27V51.65A56.5491,56.5491,0,0,0,39.07,63Z" style="fill:#2965ed"/><path d="M65,11H31a4,4,0,0,1,4,4v1a1,1,0,0,0,1,1H68a1,1,0,0,0,1-1V15A4,4,0,0,0,65,11Z" style="fill:#376cfb"/><path d="M49.5449,27.9414a.9976.9976,0,0,0-.95-.0757L44,29.9058l-4.5942-2.04A1,1,0,0,0,38,28.78v4a1,1,0,0,0,.5942.914l5,2.22a1.0015,1.0015,0,0,0,.8116,0l5.0005-2.22A1,1,0,0,0,50,32.78v-4A.9993.9993,0,0,0,49.5449,27.9414Z" style="fill:#305ce5"/><path d="M53,36a1,1,0,0,1-1-1V27a1,1,0,0,1,2,0v8A1,1,0,0,1,53,36Z" style="fill:#305ce5"/><path d="M51,40H32a1,1,0,0,1,0-2H51a1,1,0,0,1,0,2Z" style="fill:#376cfb"/><path d="M46,44H32a1,1,0,0,1,0-2H46a1,1,0,0,1,0,2Z" style="fill:#376cfb"/><path d="M40,48H32a1,1,0,0,1,0-2h8a1,1,0,0,1,0,2Z" style="fill:#376cfb"/><path d="M51,52H32a1,1,0,0,1,0-2H51a1,1,0,0,1,0,2Z" style="fill:#376cfb"/><path d="M44,56H32a1,1,0,0,1,0-2H44a1,1,0,0,1,0,2Z" style="fill:#376cfb"/><path d="M65.4053,49.5459a1.0044,1.0044,0,0,0-1.0772.1729,5.0886,5.0886,0,0,1-6.6562,0A1,1,0,0,0,56,50.46V59a1,1,0,0,0,1.6.8L61,57.25l3.4,2.55A1,1,0,0,0,66,59V50.46A1,1,0,0,0,65.4053,49.5459Z" style="fill:#305ce5"/><circle cx="61" cy="46" r="7" style="fill:#376cfb"/><circle cx="61" cy="46" r="4" style="fill:#305ce5"/><path d="M53.4063,26.0864l-9-4a.9983.9983,0,0,0-.8125,0l-9,4a1,1,0,0,0,0,1.8272l9,4a.9983.9983,0,0,0,.8125,0l9-4a1,1,0,0,0,0-1.8272Z" style="fill:#376cfb"/><path d="M86,67H64a1,1,0,0,0-.832.4453L61.4648,70h-34.93L24.832,67.4453A1,1,0,0,0,24,67H2a1,1,0,0,0-1,1v4a5.0059,5.0059,0,0,0,5,5H82a5.0059,5.0059,0,0,0,5-5V68A1,1,0,0,0,86,67Z" style="fill:#4294ff"/><path d="M86.9,73A5,5,0,0,1,82,77H6a5.0018,5.0018,0,0,1-5-5V68a1.0029,1.0029,0,0,1,1-1H24a.995.995,0,0,1,.83.45L26.54,70H52.87A56.0923,56.0923,0,0,0,71,73Z" style="fill:#2965ed"/><path d="M49,60H32a1,1,0,0,1,0-2H49a1,1,0,0,1,0,2Z" style="fill:#376cfb"/><path d="M35.13,60H32a1,1,0,0,1,0-2h.86C33.59,58.69,34.35,59.36,35.13,60Z" style="fill:#2045ce"/></g></svg>