<svg xmlns="http://www.w3.org/2000/svg" viewBox="0 0 88 88"><title>Artboard-8</title><g id="Certificate"><rect x="1" y="9" width="74" height="50" rx="1" ry="1" style="fill:#e6ecff"/><path d="M41.8333,57A33.8333,33.8333,0,0,1,8,23.1667V9H2a1,1,0,0,0-1,1V58a1,1,0,0,0,1,1H74a1,1,0,0,0,1-1V57Z" style="fill:#b7c6e2"/><path d="M70,20a6.0066,6.0066,0,0,1-6-6,1,1,0,0,0-1-1H13a1,1,0,0,0-1,1,6.0066,6.0066,0,0,1-6,6,1,1,0,0,0-1,1V47a1,1,0,0,0,1,1,6.0066,6.0066,0,0,1,6,6,1,1,0,0,0,1,1H70a1,1,0,0,0,1-1V21A1,1,0,0,0,70,20Z" style="fill:#d0dbf7"/><path d="M56,30H20a1,1,0,0,1,0-2H56a1,1,0,0,1,0,2Z" style="fill:#4294ff"/><path d="M47,25H28.9048a1,1,0,0,1,0-2H47a1,1,0,0,1,0,2Z" style="fill:#4294ff"/><path d="M56,35H20a1,1,0,0,1,0-2H56a1,1,0,0,1,0,2Z" style="fill:#4294ff"/><path d="M56,40H20a1,1,0,0,1,0-2H56a1,1,0,0,1,0,2Z" style="fill:#4294ff"/><path d="M47,45H28a1,1,0,0,1,0-2H47a1,1,0,0,1,0,2Z" style="fill:#4294ff"/><path d="M8,23.1667V19.65A5.9609,5.9609,0,0,1,6,20a1,1,0,0,0-1,1V47a1,1,0,0,0,1,1,6.0066,6.0066,0,0,1,6,6,1,1,0,0,0,1,1H30.3569A33.8441,33.8441,0,0,1,8,23.1667Z" style="fill:#8ea6ce"/><path d="M86.707,69.293l-8.8-8.8a1,1,0,0,0-1.3633-.0479l-1.76,1.53a1.0105,1.0105,0,0,0-.27.3789l-1.5576,3.8379-4.045.3208a1.0033,1.0033,0,0,0-.4521.15l-.91.57a1.0006,1.0006,0,0,0-.1758,1.5542l9.92,9.92A1,1,0,0,0,79,78V71h7a1,1,0,0,0,.707-1.707Z" style="fill:#2045ce"/><path d="M62.4512,67.2329l-.91-.57a1.0033,1.0033,0,0,0-.4521-.15l-4.045-.3208L55.4863,62.354a1.0105,1.0105,0,0,0-.27-.3789l-1.76-1.53a1,1,0,0,0-1.3633.0479l-8.8,8.8A1,1,0,0,0,44,71h7v7a1,1,0,0,0,1.707.707l9.92-9.92a1.0006,1.0006,0,0,0-.1758-1.5542Z" style="fill:#2045ce"/><path d="M78.9336,55l1.04-4.4058a1,1,0,0,0-.3173-.9838l-3.378-2.9385-1.6992-4.1836a1.0005,1.0005,0,0,0-.8467-.62l-4.4209-.3536L65.53,39.1519a1.003,1.003,0,0,0-1.0606,0l-3.7812,2.3627-4.4209.3536a1.0005,1.0005,0,0,0-.8467.62l-1.6992,4.1836L50.3438,49.61a1,1,0,0,0-.3174.9838L51.0664,55l-1.04,4.4058a1,1,0,0,0,.3174.9838l3.3779,2.9385,1.6992,4.1836a1.0005,1.0005,0,0,0,.8467.62l4.4209.3536L64.47,70.8481a1.0016,1.0016,0,0,0,1.0606,0l3.7812-2.3627,4.4209-.3536a1.0005,1.0005,0,0,0,.8467-.62l1.6992-4.1836,3.378-2.9385a1,1,0,0,0,.3173-.9838Z" style="fill:#4294ff"/><path d="M50.0264,59.4058a1,1,0,0,0,.3174.9838l3.3779,2.9385,1.6992,4.1836a1.0005,1.0005,0,0,0,.8467.62l4.4209.3536L64.47,70.8481a1.0016,1.0016,0,0,0,1.0606,0l3.7812-2.3627,4.4209-.3536a1.0005,1.0005,0,0,0,.8467-.62l1.6992-4.1836,3.378-2.9385a1,1,0,0,0,.3173-.9838L79.4057,57H50.5943Z" style="fill:#2965ed"/><circle cx="65" cy="55" r="9" style="fill:#376cfb"/><path d="M56.2318,57a8.9915,8.9915,0,0,0,17.5364,0Z" style="fill:#2045ce"/></g></svg>