<svg xmlns="http://www.w3.org/2000/svg" viewBox="0 0 88 88"><title>Artboard-20</title><g id="Email_Play" data-name="Email Play"><path d="M86.6758,40.2627l-12-11A1,1,0,0,0,73,30V49.83a1,1,0,0,0,1.5928.8056l12-8.83a1,1,0,0,0,.083-1.543Z" style="fill:#376cfb"/><path d="M75,13,63,1H14a1,1,0,0,0-1,1V49.8308a.999.999,0,0,0,.4072.8049l15.04,11.06a1,1,0,0,0,1.2734-.0728L44,48.3647,58.2793,61.623a1.001,1.001,0,0,0,1.2734.0728l15.04-11.06A1.0008,1.0008,0,0,0,75,49.83Z" style="fill:#e6ecff"/><path d="M14.4023,29.0845a1.0011,1.0011,0,0,0-1.0781.1782l-12,11a1,1,0,0,0,.083,1.543l12,8.83A1,1,0,0,0,15,49.83V30A1,1,0,0,0,14.4023,29.0845Z" style="fill:#376cfb"/><path d="M5.427,44.7636A39.301,39.301,0,0,1,5,39V36.8932l-3.6758,3.37a1,1,0,0,0,.083,1.543Z" style="fill:#2045ce"/><path d="M21,22.6656V1H14a1,1,0,0,0-1,1V49.8308a.9992.9992,0,0,0,.4072.8049l15.04,11.06a1,1,0,0,0,1.2734-.0728L41.1572,51.0043A30.0052,30.0052,0,0,1,21,22.6656Z" style="fill:#b7c6e2"/><path d="M71.8337,52.6647H50.999c-.8384,0-1.6662-.0434-2.4873-.1109l9.7676,9.0692a1.001,1.001,0,0,0,1.2734.0728Z" style="fill:#b7c6e2"/><path d="M86.4512,40.1074a1.0064,1.0064,0,0,0-1.044.0869l-26.373,19.4L44.6807,46.2671a1,1,0,0,0-1.3614,0L28.9658,59.5942l-26.373-19.4A1,1,0,0,0,1,41V86a1,1,0,0,0,1,1H86a1,1,0,0,0,1-1V41A1,1,0,0,0,86.4512,40.1074Z" style="fill:#4294ff"/><circle cx="44" cy="25" r="15" style="fill:#4294ff"/><path d="M50.5146,24.1426l-10-6A1,1,0,0,0,39,19V31a1,1,0,0,0,1.5146.8574l10-6a1,1,0,0,0,0-1.7148Z" style="fill:#376cfb"/><polygon points="63 1 63 13 75 13 63 1" style="fill:#d0dbf7"/><path d="M44,78A38.9947,38.9947,0,0,1,5.1309,42.0614L2.5928,40.1943A1,1,0,0,0,1,41V86a1,1,0,0,0,1,1H86a1,1,0,0,0,1-1V78Z" style="fill:#2965ed"/><path d="M1,86a1,1,0,0,0,1,1H86a1,1,0,0,0,1-1v-.4366L44.6807,46.2671a1,1,0,0,0-1.3614,0L1,85.5638Z" style="fill:#376cfb"/><path d="M18.9564,68.89,1,85.5638V86a1,1,0,0,0,1,1H86a1,1,0,0,0,1-1v-.4366L78.8548,78H44A38.836,38.836,0,0,1,18.9564,68.89Z" style="fill:#2045ce"/></g></svg>