<svg xmlns="http://www.w3.org/2000/svg" viewBox="0 0 88 88"><title>Artboard-31</title><g id="Copywriting"><path d="M76,22H12a4.0045,4.0045,0,0,0-4,4V74a1,1,0,0,0,1,1H79a1,1,0,0,0,1-1V26A4.0045,4.0045,0,0,0,76,22Z" style="fill:#e6ecff"/><rect x="12" y="26" width="64" height="38" rx="1" ry="1" style="fill:#d0dbf7"/><path d="M86,68H64a1,1,0,0,0-.832.4453L61.4648,71h-34.93L24.832,68.4453A1,1,0,0,0,24,68H2a1,1,0,0,0-1,1v4a5.0059,5.0059,0,0,0,5,5H82a5.0059,5.0059,0,0,0,5-5V69A1,1,0,0,0,86,68Z" style="fill:#4294ff"/><path d="M80,74a1.0029,1.0029,0,0,1-1,1H9a1.0029,1.0029,0,0,1-1-1V26a3.9989,3.9989,0,0,1,4-4h5v9.19A42.8142,42.8142,0,0,0,59.81,74Z" style="fill:#b7c6e2"/><path d="M32.32,64H13a1.0029,1.0029,0,0,1-1-1V27a1.0029,1.0029,0,0,1,1-1h4v5.19A42.6942,42.6942,0,0,0,32.32,64Z" style="fill:#8ea6ce"/><path d="M86.9,74A5,5,0,0,1,82,78H6a5.0018,5.0018,0,0,1-5-5V69a1.0029,1.0029,0,0,1,1-1H24a.995.995,0,0,1,.83.45L26.54,71h17.5a42.5874,42.5874,0,0,0,15.77,3Z" style="fill:#2965ed"/><path d="M63,10H33l-9,9V64H64V11A1,1,0,0,0,63,10Z" style="fill:#4294ff"/><polygon points="33 10 33 19 24 19 33 10" style="fill:#376cfb"/><path d="M58,30H30a1,1,0,0,1,0-2H58a1,1,0,0,1,0,2Z" style="fill:#376cfb"/><path d="M58,24H30a1,1,0,0,1,0-2H58a1,1,0,0,1,0,2Z" style="fill:#376cfb"/><path d="M47,36H30a1,1,0,0,1,0-2H47a1,1,0,0,1,0,2Z" style="fill:#376cfb"/><path d="M42,42H30a1,1,0,0,1,0-2H42a1,1,0,0,1,0,2Z" style="fill:#376cfb"/><path d="M47,48H30a1,1,0,0,1,0-2H47a1,1,0,0,1,0,2Z" style="fill:#376cfb"/><path d="M58,54H30a1,1,0,0,1,0-2H58a1,1,0,0,1,0,2Z" style="fill:#376cfb"/><path d="M58,60H30a1,1,0,0,1,0-2H58a1,1,0,0,1,0,2Z" style="fill:#376cfb"/><path d="M83,36H53l-7.4961,4.1318a1,1,0,0,0,0,1.7364L53,46H83a3,3,0,0,0,3-3V39A3,3,0,0,0,83,36Z" style="fill:#2946ed"/><rect x="53" y="36" width="27" height="10" style="fill:#376cfb"/><rect x="52" y="40" width="29" height="2" style="fill:#2946ed"/><path d="M24,54.626V64h8.32A42.9749,42.9749,0,0,1,24,54.626Z" style="fill:#2965ed"/></g></svg>