<svg xmlns="http://www.w3.org/2000/svg" viewBox="0 0 88 88"><title>Artboard-32</title><g id="Video_Call" data-name="Video Call"><path d="M78,27H10a4.0045,4.0045,0,0,0-4,4V83a1,1,0,0,0,1,1H81a1,1,0,0,0,1-1V31A4.0045,4.0045,0,0,0,78,27Z" style="fill:#e6ecff"/><rect x="10" y="31" width="68" height="42" rx="1" ry="1" style="fill:#d0dbf7"/><rect x="26" y="36" width="18" height="16" style="fill:#4294ff"/><rect x="44" y="36" width="18" height="16" style="fill:#4294ff"/><rect x="26" y="52" width="18" height="16" style="fill:#4294ff"/><rect x="44" y="52" width="18" height="16" style="fill:#4294ff"/><path d="M82,83a1.0029,1.0029,0,0,1-1,1H7a1.0029,1.0029,0,0,1-1-1V31a3.9989,3.9989,0,0,1,4-4h7V40.19A42.8142,42.8142,0,0,0,59.81,83Z" style="fill:#b7c6e2"/><path d="M86,77H65a1,1,0,0,0-.832.4453L62.4648,80h-36.93L23.832,77.4453A1,1,0,0,0,23,77H2a1,1,0,0,0-1,1v4a5.0059,5.0059,0,0,0,5,5H82a5.0059,5.0059,0,0,0,5-5V78A1,1,0,0,0,86,77Z" style="fill:#4294ff"/><path d="M86.9,83A5,5,0,0,1,82,87H6a5.0018,5.0018,0,0,1-5-5V78a1.0029,1.0029,0,0,1,1-1H23a.995.995,0,0,1,.83.45L25.54,80h18.5a42.5874,42.5874,0,0,0,15.77,3Z" style="fill:#2965ed"/><path d="M32.32,73H11a1.0029,1.0029,0,0,1-1-1V32a1.0029,1.0029,0,0,1,1-1h6v9.19A42.6942,42.6942,0,0,0,32.32,73Z" style="fill:#8ea6ce"/><path d="M35,45a7.0081,7.0081,0,0,0-7,7,1,1,0,0,0,1,1H41a1,1,0,0,0,1-1A7.0081,7.0081,0,0,0,35,45Z" style="fill:#376cfb"/><circle cx="35" cy="43" r="4" style="fill:#376cfb"/><path d="M53,45a7.0081,7.0081,0,0,0-7,7,1,1,0,0,0,1,1H59a1,1,0,0,0,1-1A7.0081,7.0081,0,0,0,53,45Z" style="fill:#376cfb"/><circle cx="53" cy="43" r="4" style="fill:#376cfb"/><path d="M53,61a7.0081,7.0081,0,0,0-7,7,1,1,0,0,0,1,1H59a1,1,0,0,0,1-1A7.0081,7.0081,0,0,0,53,61Z" style="fill:#376cfb"/><circle cx="53" cy="59" r="4" style="fill:#376cfb"/><path d="M35,61a7.0081,7.0081,0,0,0-7,7,1,1,0,0,0,1,1H41a1,1,0,0,0,1-1A7.0081,7.0081,0,0,0,35,61Z" style="fill:#376cfb"/><circle cx="35" cy="59" r="4" style="fill:#376cfb"/><path d="M62,35H26a1,1,0,0,0-1,1V68a1,1,0,0,0,1,1H62a1,1,0,0,0,1-1V36A1,1,0,0,0,62,35ZM61,51H45V37H61ZM27,37H43V51H27Zm0,16H43V67H27ZM61,67H45V53H61Z" style="fill:#376cfb"/><path d="M25,68a1,1,0,0,0,1,1h2.1707A42.9364,42.9364,0,0,1,25,65.0888Z" style="fill:#2045ce"/><path d="M63,1H25a1,1,0,0,0-1,1V28a1,1,0,0,0,1,1H38.6494l4.7261,3.7813a1.001,1.001,0,0,0,1.249,0L49.3506,29H63a1,1,0,0,0,1-1V2A1,1,0,0,0,63,1Z" style="fill:#4294ff"/><polygon points="55 10 33 10 30 10 30 24 44 24 58 24 58 10 55 10" style="fill:#2946ed"/><rect x="44" y="10" width="14" height="14" style="fill:#1e2bd1"/><path d="M48,6a4,4,0,0,0-4,4V24a4,4,0,0,1,4-4h7V6Z" style="fill:#2946ed"/><path d="M40,6H33V20h7a4,4,0,0,1,4,4V10A4,4,0,0,0,40,6Z" style="fill:#376cfb"/><path d="M41,11H36a1,1,0,0,1,0-2h5a1,1,0,0,1,0,2Z" style="fill:#2946ed"/><path d="M41,14H36a1,1,0,0,1,0-2h5a1,1,0,0,1,0,2Z" style="fill:#2946ed"/><path d="M41,17H36a1,1,0,0,1,0-2h5a1,1,0,0,1,0,2Z" style="fill:#2946ed"/><path d="M52,17H47a1,1,0,0,1,0-2h5a1,1,0,0,1,0,2Z" style="fill:#1e2bd1"/><path d="M52,11H47a1,1,0,0,1,0-2h5a1,1,0,0,1,0,2Z" style="fill:#1e2bd1"/><path d="M52,14H47a1,1,0,0,1,0-2h5a1,1,0,0,1,0,2Z" style="fill:#1e2bd1"/></g></svg>