<svg xmlns="http://www.w3.org/2000/svg" viewBox="0 0 88 88"><title>Artboard-34</title><g id="Elearning"><path d="M58.4688,39.0029,50,37.1914V33.4805a1,1,0,0,0-1.5576-.83,8.1137,8.1137,0,0,1-8.8848,0,1,1,0,0,0-1.5576.83v3.7109l-8.4717,1.8115A7.0513,7.0513,0,0,0,24,45.85V56a1,1,0,0,0,1,1H63a1,1,0,0,0,1-1V45.85A7.0509,7.0509,0,0,0,58.4688,39.0029Z" style="fill:#4294ff"/><rect x="24" y="53" width="40" height="2" style="fill:#2965ed"/><path d="M50,33.48v3.71l-6,3.6-6-3.6V33.48a1.0033,1.0033,0,0,1,1.56-.83,8.0888,8.0888,0,0,0,8.88,0,1.0033,1.0033,0,0,1,1.56.83Z" style="fill:#edb7b7"/><path d="M44,57a1,1,0,0,1-1-1V46a1,1,0,0,1,2,0V56A1,1,0,0,1,44,57Z" style="fill:#2946ed"/><path d="M55,57a1,1,0,0,1-1-1V50a1,1,0,0,1,2,0v6A1,1,0,0,1,55,57Z" style="fill:#376cfb"/><path d="M33,57a1,1,0,0,1-1-1V50a1,1,0,0,1,2,0v6A1,1,0,0,1,33,57Z" style="fill:#376cfb"/><path d="M53.5605,18.5723a.9966.9966,0,0,0-.9316-.1006L44,21.9229l-8.6289-3.4512A1,1,0,0,0,34,19.4V26a10,10,0,0,0,20,0V19.4A1.0013,1.0013,0,0,0,53.5605,18.5723Z" style="fill:#ffd2d2"/><path d="M59,25a1,1,0,0,1-1-1V12a1,1,0,0,1,2,0V24A1,1,0,0,1,59,25Z" style="fill:#376cfb"/><path d="M54,19.4V26c0,.34-.02.67-.05,1A5.0043,5.0043,0,0,1,49,22V19.92l3.63-1.45A.9994.9994,0,0,1,54,19.4Z" style="fill:#393c47"/><path d="M39,19.92V22a5.0043,5.0043,0,0,1-4.95,5c-.03-.33-.05-.66-.05-1V19.4a.9994.9994,0,0,1,1.37-.93Z" style="fill:#393c47"/><path d="M53.5605,13.5723a.9994.9994,0,0,0-.9316-.1006L44,16.9229l-8.6289-3.4512A1,1,0,0,0,34,14.4v5.6772l9.6289,3.8511a1.0014,1.0014,0,0,0,.7422,0L54,20.0776V14.4A1.0013,1.0013,0,0,0,53.5605,13.5723Z" style="fill:#376cfb"/><path d="M59.3711,11.0713l-15-6a.9952.9952,0,0,0-.7422,0l-15,6a1,1,0,0,0,0,1.8574l15,6a1.0014,1.0014,0,0,0,.7422,0l15-6a1,1,0,0,0,0-1.8574Z" style="fill:#4294ff"/><path d="M43.4854,46.8574a1,1,0,0,0,1.0292,0l13.3182-7.99L50,37.1914h0l-6,3.6-6-3.6v0l-7.8327,1.6749Z" style="fill:#376cfb"/><path d="M71.7588,55.3486A.9978.9978,0,0,0,71,55H17a1,1,0,0,0-.9883,1.1523l4,26A1.0006,1.0006,0,0,0,21,83H67a1.0006,1.0006,0,0,0,.9883-.8477l4-26A.9974.9974,0,0,0,71.7588,55.3486Z" style="fill:#e6ecff"/><circle cx="44" cy="69" r="5" style="fill:#4294ff"/><path d="M18.6135,55H17a1,1,0,0,0-.9883,1.1523l4,26A1.0006,1.0006,0,0,0,21,83H67a1.0006,1.0006,0,0,0,.9883-.8477l.7272-4.7265C29.0532,82.1208,20.4293,64.3589,18.6135,55Z" style="fill:#b7c6e2"/><path d="M72,83H16a1,1,0,0,1,0-2H72a1,1,0,0,1,0,2Z" style="fill:#2965ed"/><rect x="32" y="53" width="2" height="2" style="fill:#2045ce"/><rect x="43" y="53" width="2" height="2" style="fill:#1036af"/><rect x="54" y="53" width="2" height="2" style="fill:#2045ce"/></g></svg>