<svg xmlns="http://www.w3.org/2000/svg" viewBox="0 0 88 88"><title>Artboard-5</title><g id="Online_Education" data-name="Online Education"><rect x="3" y="6" width="78" height="39" rx="1" ry="1" style="fill:#376cfb"/><path d="M80,6H42V45H80a1,1,0,0,0,1-1V7A1,1,0,0,0,80,6Z" style="fill:#2946ed"/><path d="M49.5,75A7.5083,7.5083,0,0,1,42,67.5V38a1,1,0,0,1,2,0V67.5a5.5,5.5,0,0,0,11,0V55a4.0042,4.0042,0,0,1,4-4H72a4.0042,4.0042,0,0,1,4,4v3a1,1,0,0,1-2,0V55a2.0023,2.0023,0,0,0-2-2H59a2.0023,2.0023,0,0,0-2,2V67.5A7.5083,7.5083,0,0,1,49.5,75Z" style="fill:#d0dbf7"/><path d="M29,35H19a1,1,0,0,0-1,1V54a1,1,0,0,0,1.625.7808l4.375-3.5,4.375,3.5A1,1,0,0,0,30,54V36A1,1,0,0,0,29,35Z" style="fill:#2946ed"/><rect x="71" y="57" width="8" height="6" rx="1" ry="1" style="fill:#e6ecff"/><path d="M74,1H48a6,6,0,0,0-6,6V45a6,6,0,0,1,6-6H74a1,1,0,0,0,1-1V2A1,1,0,0,0,74,1Z" style="fill:#376cfb"/><path d="M36,1H10A1,1,0,0,0,9,2V38a1,1,0,0,0,1,1H36a6,6,0,0,1,6,6V7A6,6,0,0,0,36,1Z" style="fill:#4294ff"/><circle cx="26" cy="14" r="9" style="fill:#376cfb"/><path d="M29.5146,13.1426l-5-3A1,1,0,0,0,23,11v6a1,1,0,0,0,1.5146.8574l5-3a1,1,0,0,0,0-1.7148Z" style="fill:#2946ed"/><path d="M37,27H15a1,1,0,0,1,0-2H37a1,1,0,0,1,0,2Z" style="fill:#376cfb"/><path d="M28,31H15a1,1,0,0,1,0-2H28a1,1,0,0,1,0,2Z" style="fill:#376cfb"/><path d="M28,35H15a1,1,0,0,1,0-2H28a1,1,0,0,1,0,2Z" style="fill:#376cfb"/><path d="M61,27H47a1,1,0,0,1,0-2H61a1,1,0,0,1,0,2Z" style="fill:#2946ed"/><path d="M61,23H47a1,1,0,0,1,0-2H61a1,1,0,0,1,0,2Z" style="fill:#2946ed"/><path d="M56,19H47a1,1,0,0,1,0-2h9a1,1,0,0,1,0,2Z" style="fill:#2946ed"/><path d="M65,15H47a1,1,0,0,1,0-2H65a1,1,0,0,1,0,2Z" style="fill:#2946ed"/><path d="M60,11H47a1,1,0,0,1,0-2H60a1,1,0,0,1,0,2Z" style="fill:#2946ed"/><path d="M69,7H47a1,1,0,0,1,0-2H69a1,1,0,0,1,0,2Z" style="fill:#2946ed"/><path d="M64,31H47a1,1,0,0,1,0-2H64a1,1,0,0,1,0,2Z" style="fill:#2946ed"/><path d="M57,35H47a1,1,0,0,1,0-2H57a1,1,0,0,1,0,2Z" style="fill:#2946ed"/><path d="M69,11H64a1,1,0,0,1,0-2h5a1,1,0,0,1,0,2Z" style="fill:#2946ed"/><path d="M69,27H65a1,1,0,0,1,0-2h4a1,1,0,0,1,0,2Z" style="fill:#2946ed"/><path d="M69,35H61a1,1,0,0,1,0-2h8a1,1,0,0,1,0,2Z" style="fill:#2946ed"/><path d="M69,19H60a1,1,0,0,1,0-2h9a1,1,0,0,1,0,2Z" style="fill:#2946ed"/><path d="M78,61H72a7.0081,7.0081,0,0,0-7,7v9a10,10,0,0,0,20,0V68A7.0081,7.0081,0,0,0,78,61Z" style="fill:#4294ff"/><path d="M75,71a1,1,0,0,1-1-1V67a1,1,0,0,1,2,0v3A1,1,0,0,1,75,71Z" style="fill:#376cfb"/></g></svg>