<svg xmlns="http://www.w3.org/2000/svg" viewBox="0 0 88 88"><title>Artboard-38</title><g id="Web"><rect x="1" y="9" width="86" height="70" rx="6" ry="6" style="fill:#e6ecff"/><path d="M81,9H7a6,6,0,0,0-6,6V25H25a7.0109,7.0109,0,0,0,6.9287-6H87V15A6,6,0,0,0,81,9Z" style="fill:#4294ff"/><circle cx="8" cy="18" r="3" style="fill:#376cfb"/><circle cx="16" cy="18" r="3" style="fill:#376cfb"/><circle cx="24" cy="18" r="3" style="fill:#376cfb"/><path d="M80,15H39a1,1,0,0,1,0-2H80a1,1,0,0,1,0,2Z" style="fill:#376cfb"/><path d="M59,41.86v12a.9819.9819,0,0,1-.57.9l-15,7.14a.9745.9745,0,0,1-.86,0l-15-7.14a.9819.9819,0,0,1-.57-.9v-12a1.0247,1.0247,0,0,1,.47-.85.9937.9937,0,0,1,.96-.05L43,47.89l14.57-6.93a.9937.9937,0,0,1,.96.05A1.0247,1.0247,0,0,1,59,41.86Z" style="fill:#376cfb"/><path d="M65,39V51a1,1,0,0,1-2,0V39a1,1,0,0,1,2,0Z" style="fill:#376cfb"/><path d="M66.707,52.293l-2-2a.9994.9994,0,0,0-1.414,0l-2,2a.9994.9994,0,0,0-.2217,1.0781l2,5a1,1,0,0,0,1.8574,0l2-5A.9994.9994,0,0,0,66.707,52.293Z" style="fill:#376cfb"/><path d="M37,66H23a1,1,0,0,1,0-2H37a1,1,0,0,1,0,2Z" style="fill:#4294ff"/><path d="M65,70H23a1,1,0,0,1,0-2H65a1,1,0,0,1,0,2Z" style="fill:#4294ff"/><path d="M59,41.86v2.85l-14.71,7a3.0141,3.0141,0,0,1-2.58,0L27,44.71V41.86a1.0247,1.0247,0,0,1,.47-.85.9937.9937,0,0,1,.96-.05L43,47.89l14.57-6.93a.9937.9937,0,0,1,.96.05A1.0247,1.0247,0,0,1,59,41.86Z" style="fill:#2045ce"/><path d="M65,39v2.85l-2,.95V39a1,1,0,0,1,2,0Z" style="fill:#2045ce"/><path d="M64.43,38.0967l-21-10a1.0033,1.0033,0,0,0-.8594,0l-21,10a1.0005,1.0005,0,0,0,0,1.8066l21,10a1.0031,1.0031,0,0,0,.8594,0l21-10a1.0005,1.0005,0,0,0,0-1.8066Z" style="fill:#4294ff"/><path d="M86.91,74A5.99,5.99,0,0,1,81,79H7a6.0048,6.0048,0,0,1-6-6V15A6.0048,6.0048,0,0,1,7,9H8V21.31A52.69,52.69,0,0,0,60.69,74Z" style="fill:#b7c6e2"/><path d="M8.13,25H1V15A6.0048,6.0048,0,0,1,7,9H8V21.31C8,22.55,8.04,23.78,8.13,25Z" style="fill:#2965ed"/><path d="M8,15v6a3,3,0,0,1,0-6Z" style="fill:#2045ce"/><path d="M32.77,66H23a1,1,0,0,1,0-2h6.81C30.77,64.7,31.76,65.37,32.77,66Z" style="fill:#2965ed"/><path d="M40.53,70H23a1,1,0,0,1,0-2H36.25Q38.335,69.095,40.53,70Z" style="fill:#2965ed"/></g></svg>