<svg xmlns="http://www.w3.org/2000/svg" viewBox="0 0 88 88"><title>Artboard-17</title><g id="Worldwide"><circle cx="43" cy="54" r="30" style="fill:#4294ff"/><path d="M74,54A31.0715,31.0715,0,0,0,58.3213,27.0591a.9905.9905,0,0,0-.3343-.099c-.032-.0051-.0609-.0255-.0932-.0275a.9966.9966,0,0,0-.4426.0723L43,32.9194,28.5488,27.0049a1.0013,1.0013,0,0,0-.4421-.0723,1.0147,1.0147,0,0,0-.1427.0422.9819.9819,0,0,0-.2853.0843A30.997,30.997,0,1,0,74,54ZM62.7963,75.1642A30.95,30.95,0,0,0,57.75,71.737,47.1773,47.1773,0,0,0,60.9853,55H71.9747A28.9185,28.9185,0,0,1,62.7963,75.1642Zm-11.96,6.74a24.4038,24.4038,0,0,0,6.104-8.3178,28.9464,28.9464,0,0,1,4.3369,2.9087A28.6047,28.6047,0,0,1,50.8361,81.9037ZM24.723,76.4946A28.9464,28.9464,0,0,1,29.06,73.5859a24.4038,24.4038,0,0,0,6.104,8.3178A28.41,28.41,0,0,1,24.723,76.4946ZM28.2461,29.042l3.1011,1.2692a29.4358,29.4358,0,0,0-2.3313,4.0805,28.94,28.94,0,0,1-4.29-2.8847A27.7389,27.7389,0,0,1,28.2461,29.042Zm33.0281,2.465a28.94,28.94,0,0,1-4.29,2.8848,29.4472,29.4472,0,0,0-2.3313-4.0806l3.1011-1.2692A29.9184,29.9184,0,0,1,61.2742,31.507ZM44,70.043a28.924,28.924,0,0,1,11.2114,2.6657C52.476,78.565,48.4861,82.4333,44,82.9376Zm0-2.02V55H58.986a45.9241,45.9241,0,0,1-2.9837,15.8687A30.9356,30.9356,0,0,0,44,68.0227ZM44,53V39.9773a30.9331,30.9331,0,0,0,11.9811-2.8364A46.0625,46.0625,0,0,1,58.9838,53Zm0-15.043V34.6716L52.7588,31.09a26.9164,26.9164,0,0,1,2.4251,4.2154A28.9247,28.9247,0,0,1,44,37.957ZM33.2412,31.09,42,34.6716V37.957a28.9247,28.9247,0,0,1-11.1839-2.6518A26.9164,26.9164,0,0,1,33.2412,31.09ZM42,39.9773V53H27.0162a46.0625,46.0625,0,0,1,3.0027-15.8591A30.9331,30.9331,0,0,0,42,39.9773ZM42,55V68.0227a30.9356,30.9356,0,0,0-12.0023,2.846A45.9241,45.9241,0,0,1,27.014,55Zm0,15.043V82.9376c-4.4861-.5043-8.476-4.3726-11.2114-10.2289A28.924,28.924,0,0,1,42,70.043ZM71.9669,53H60.9835a47.3821,47.3821,0,0,0-3.1941-16.76,30.9492,30.9492,0,0,0,5.0058-3.4036A29.0367,29.0367,0,0,1,71.9669,53ZM23.2048,32.8367A30.9492,30.9492,0,0,0,28.2106,36.24,47.3821,47.3821,0,0,0,25.0165,53H14.0331A29.0367,29.0367,0,0,1,23.2048,32.8367ZM14.0253,55H25.0147a47.1773,47.1773,0,0,0,3.2358,16.737,30.95,30.95,0,0,0-5.0468,3.4272A28.9185,28.9185,0,0,1,14.0253,55Z" style="fill:#376cfb"/><path d="M58.5571,15.0293a1.0032,1.0032,0,0,0-.936-.0947L43,20.9194,28.3789,14.9346A1,1,0,0,0,27,15.86v12a1,1,0,0,0,.6211.9253l15,6.14a.9983.9983,0,0,0,.7578,0l15-6.14A1,1,0,0,0,59,27.86v-12A1,1,0,0,0,58.5571,15.0293Z" style="fill:#d0dbf7"/><path d="M58.5571,15.0293a1.0032,1.0032,0,0,0-.936-.0947L43,20.9194,28.3789,14.9346A1,1,0,0,0,27,15.86v2.8362l14.8672,6.0822a3.0036,3.0036,0,0,0,2.2685-.0014L59,18.696V15.86A1,1,0,0,0,58.5571,15.0293Z" style="fill:#8ea6ce"/><path d="M65.3784,12.0742l-22-9a1.0051,1.0051,0,0,0-.7568,0l-22,9a1,1,0,0,0,0,1.8516l22,9a1.002,1.002,0,0,0,.7568,0l22-9a1,1,0,0,0,0-1.8516Z" style="fill:#e6ecff"/><path d="M73,27a1,1,0,0,1-1-1V14H43a1,1,0,0,1,0-2H73a1,1,0,0,1,1,1V26A1,1,0,0,1,73,27Z" style="fill:#376cfb"/><circle cx="73" cy="28" r="3" style="fill:#4294ff"/></g></svg>