<svg xmlns="http://www.w3.org/2000/svg" viewBox="0 0 88 88"><title>Artboard-23</title><g id="Computer_Library" data-name="Computer Library"><path d="M74.4707,17.1172l-30-16a1.0036,1.0036,0,0,0-.9414,0l-30,16A1,1,0,0,0,14,19H74a1,1,0,0,0,.4707-1.8828Z" style="fill:#4294ff"/><path d="M23,12.07V19H14a.9987.9987,0,0,1-.47-1.88Z" style="fill:#2965ed"/><rect x="8" y="27" width="72" height="50" rx="6" ry="6" style="fill:#e6ecff"/><path d="M79.91,72A5.99,5.99,0,0,1,74,77H14a6.0048,6.0048,0,0,1-6-6V33a6.0048,6.0048,0,0,1,6-6h9v8.08A36.92,36.92,0,0,0,59.92,72Z" style="fill:#b7c6e2"/><rect x="30" y="39" width="28" height="14" style="fill:#376cfb"/><rect x="44" y="39" width="14" height="14" style="fill:#2946ed"/><path d="M48,35a4,4,0,0,0-4,4V53a4,4,0,0,1,4-4h7V35Z" style="fill:#376cfb"/><path d="M40,35H33V49h7a4,4,0,0,1,4,4V39A4,4,0,0,0,40,35Z" style="fill:#4294ff"/><path d="M41,40H36a1,1,0,0,1,0-2h5a1,1,0,0,1,0,2Z" style="fill:#376cfb"/><path d="M41,43H36a1,1,0,0,1,0-2h5a1,1,0,0,1,0,2Z" style="fill:#376cfb"/><path d="M41,46H36a1,1,0,0,1,0-2h5a1,1,0,0,1,0,2Z" style="fill:#376cfb"/><path d="M52,46H47a1,1,0,0,1,0-2h5a1,1,0,0,1,0,2Z" style="fill:#2946ed"/><path d="M52,40H47a1,1,0,0,1,0-2h5a1,1,0,0,1,0,2Z" style="fill:#2946ed"/><path d="M52,43H47a1,1,0,0,1,0-2h5a1,1,0,0,1,0,2Z" style="fill:#2946ed"/><rect x="19" y="27" width="7" height="32" rx="1" ry="1" style="fill:#376cfb"/><rect x="62" y="27" width="7" height="32" rx="1" ry="1" style="fill:#376cfb"/><rect x="60" y="57" width="11" height="7" rx="1" ry="1" style="fill:#4294ff"/><rect x="60" y="22" width="11" height="7" rx="1" ry="1" style="fill:#4294ff"/><path d="M56,85a5.0059,5.0059,0,0,1-5-5V76a1,1,0,0,0-1-1H38a1,1,0,0,0-1,1v4a5.0059,5.0059,0,0,1-5,5,1,1,0,0,0,0,2H56a1,1,0,0,0,0-2Z" style="fill:#2045ce"/><path d="M58,87H30a1,1,0,0,1,0-2H58a1,1,0,0,1,0,2Z" style="fill:#2965ed"/><path d="M26,49.68V58a1.0029,1.0029,0,0,1-1,1H20a1.0029,1.0029,0,0,1-1-1V28a1.0029,1.0029,0,0,1,1-1h3v8.08A36.7549,36.7549,0,0,0,26,49.68Z" style="fill:#2045ce"/><rect x="17" y="22" width="11" height="7" rx="1" ry="1" style="fill:#4294ff"/><path d="M23,22v7H18a1.0029,1.0029,0,0,1-1-1V23a1.0029,1.0029,0,0,1,1-1Z" style="fill:#2965ed"/><rect x="13" y="17" width="62" height="7" rx="1" ry="1" style="fill:#376cfb"/><path d="M23,17v7H14a1.0029,1.0029,0,0,1-1-1V18a1.0029,1.0029,0,0,1,1-1Z" style="fill:#2045ce"/><rect x="17" y="57" width="11" height="7" rx="1" ry="1" style="fill:#2965ed"/><rect x="13" y="62" width="62" height="7" rx="1" ry="1" style="fill:#376cfb"/><path d="M45.32,69H14a1.0029,1.0029,0,0,1-1-1V63a1.0029,1.0029,0,0,1,1-1H34.65A37.2122,37.2122,0,0,0,45.32,69Z" style="fill:#2045ce"/><path d="M14,77H74a6.0066,6.0066,0,0,0,6-6V67H8v4A6.0066,6.0066,0,0,0,14,77Z" style="fill:#4294ff"/><path d="M79.91,72A5.99,5.99,0,0,1,74,77H14a6.0048,6.0048,0,0,1-6-6V67H41.35a36.7693,36.7693,0,0,0,18.57,5Z" style="fill:#2965ed"/><path d="M46,73H42a1,1,0,0,1,0-2h4a1,1,0,0,1,0,2Z" style="fill:#2045ce"/></g></svg>