<svg xmlns="http://www.w3.org/2000/svg" viewBox="0 0 88 88"><title>Artboard-19</title><g id="Search"><path d="M52.3838,16.6162a1,1,0,0,1-.707-1.707l8.4951-8.4951a1,1,0,1,1,1.414,1.414l-8.4951,8.4951A.9964.9964,0,0,1,52.3838,16.6162Z" style="fill:#376cfb"/><path d="M15.6162,16.6162a.9964.9964,0,0,1-.707-.293L6.4141,7.8281a1,1,0,0,1,1.414-1.414l8.4951,8.4951a1,1,0,0,1-.707,1.707Z" style="fill:#376cfb"/><path d="M7.1211,61.8789a1,1,0,0,1-.707-1.707l8.4951-8.4951a1,1,0,0,1,1.414,1.414L7.8281,61.5859A.9963.9963,0,0,1,7.1211,61.8789Z" style="fill:#376cfb"/><path d="M84.707,73.293l-16-16a.9994.9994,0,0,0-1.414,0l-10,10a.9994.9994,0,0,0,0,1.414l16,16A8.0709,8.0709,0,1,0,84.707,73.293Z" style="fill:#376cfb"/><path d="M61.707,54.293l-5.87-5.87a1,1,0,0,0-1.5224.1274,24.3982,24.3982,0,0,1-5.7637,5.7646,1,1,0,0,0-.1279,1.522l5.87,5.87a.9995.9995,0,0,0,1.414,0l6-6A.9994.9994,0,0,0,61.707,54.293Z" style="fill:#376cfb"/><circle cx="34" cy="34" r="27" style="fill:#e6ecff"/><path d="M34,12A22,22,0,1,0,56,34,22.0248,22.0248,0,0,0,34,12Zm0,42c-2.7172,0-5.5634-3.9871-7.0167-10.5085A47.9145,47.9145,0,0,0,34,44a47.9145,47.9145,0,0,0,7.0167-.5085C39.5634,50.0129,36.7172,54,34,54Zm0-12a45.8639,45.8639,0,0,1-7.4138-.5862,47.1751,47.1751,0,0,1,0-14.8276,47.1751,47.1751,0,0,1,14.8276,0A45.8526,45.8526,0,0,1,42,34a45.8526,45.8526,0,0,1-.5862,7.4138A45.8639,45.8639,0,0,1,34,42Zm-9.4915-.9833C17.9869,39.5635,14,36.7173,14,34s3.9869-5.5635,10.5085-7.0167a48.6653,48.6653,0,0,0,0,14.0334ZM34,14c2.7172,0,5.5634,3.9871,7.0167,10.5085a48.6653,48.6653,0,0,0-14.0334,0C28.4366,17.9871,31.2828,14,34,14Zm9.4915,12.9833C50.0131,28.4365,54,31.2827,54,34s-3.9869,5.5635-10.5085,7.0167A47.9145,47.9145,0,0,0,44,34,47.9145,47.9145,0,0,0,43.4915,26.9833Zm9.9041,2.2253c-2.2593-1.92-5.8658-3.4393-10.2733-4.331-.8918-4.4075-2.4106-8.0139-4.3311-10.2732A20.0379,20.0379,0,0,1,53.3956,29.2086ZM29.2088,14.6044C27.2883,16.8637,25.77,20.47,24.8777,24.8776c-4.4075.8917-8.014,2.4106-10.2733,4.331A20.0379,20.0379,0,0,1,29.2088,14.6044ZM14.6044,38.7914c2.2593,1.92,5.8658,3.4393,10.2733,4.331.8918,4.4074,2.4106,8.0138,4.3311,10.2732A20.0379,20.0379,0,0,1,14.6044,38.7914ZM38.7912,53.3956c1.92-2.2594,3.4394-5.8658,4.3312-10.2732,4.4074-.8917,8.0139-2.4106,10.2732-4.331A20.0379,20.0379,0,0,1,38.7912,53.3956Z" style="fill:#4294ff"/><path d="M71.707,54.293l-5-5a.9994.9994,0,0,0-1.414,0l-16,16a.9994.9994,0,0,0,0,1.414l5,5a.9995.9995,0,0,0,1.414,0l16-16A.9994.9994,0,0,0,71.707,54.293Z" style="fill:#4294ff"/><circle cx="5" cy="5" r="4" style="fill:#4294ff"/><circle cx="63" cy="5" r="4" style="fill:#4294ff"/><circle cx="5" cy="63" r="4" style="fill:#4294ff"/><path d="M75,82a.9967.9967,0,0,1-.707-.293l-12-12a1,1,0,0,1,1.414-1.414l12,12A1,1,0,0,1,75,82Z" style="fill:#2946ed"/></g></svg>