<svg xmlns="http://www.w3.org/2000/svg" width="60" height="86.001" viewBox="0 0 60 86.001"><defs><style>.a{fill:#f8e3f7;}.b{fill:#fbf0ff;}.c{fill:#dac2ff;}.d{fill:#a97af9;}.e{fill:#c8bee1;}</style></defs><g transform="translate(4959 -5868)"><path class="a" d="M73,185v-3H13v7a4,4,0,0,0,4,4H73a4,4,0,0,1,0-8Z" transform="translate(-4972 5750)"/><path class="b" d="M72,118H17a4,4,0,0,0-4,4v67a4,4,0,0,1,4-4H73V119A1,1,0,0,0,72,118Z" transform="translate(-4972 5750)"/><path class="c" d="M17,118a4,4,0,0,0-4,4v67a4,4,0,0,1,4-4h3V118Z" transform="translate(-4972 5750)"/><circle class="c" cx="14" cy="14" r="14" transform="translate(-4940 5876)"/><path class="d" d="M52.51,139.14l-10-6A1,1,0,0,0,41,134v12a1,1,0,0,0,1.51.86l10-6a1,1,0,0,0,0-1.72Z" transform="translate(-4972 5750)"/><path class="c" d="M65,160H27a1,1,0,0,1,0-2H65a1,1,0,0,1,0,2Z" transform="translate(-4972 5750)"/><path class="c" d="M57,166H27a1,1,0,0,1,0-2H57a1,1,0,0,1,0,2Z" transform="translate(-4972 5750)"/><path class="c" d="M57,172H27a1,1,0,0,1,0-2H57a1,1,0,0,1,0,2Z" transform="translate(-4972 5750)"/><path class="c" d="M57,178H27a1,1,0,0,1,0-2H57a1,1,0,0,1,0,2Z" transform="translate(-4972 5750)"/><path class="c" d="M65,166H61a1,1,0,0,1,0-2h4a1,1,0,0,1,0,2Z" transform="translate(-4972 5750)"/><path class="c" d="M65,172H61a1,1,0,0,1,0-2h4a1,1,0,0,1,0,2Z" transform="translate(-4972 5750)"/><path class="c" d="M65,178H61a1,1,0,0,1,0-2h4a1,1,0,0,1,0,2Z" transform="translate(-4972 5750)"/><path class="e" d="M69.63,190a4.23,4.23,0,0,1,0-2H17a1,1,0,0,0,0,2Z" transform="translate(-4972 5750)"/><path class="c" d="M57,188H43v15a1,1,0,0,0,1.64.77L50,199.3l5.36,4.47A1,1,0,0,0,57,203Z" transform="translate(-4972 5750)"/></g></svg>