<svg xmlns="http://www.w3.org/2000/svg" width="86" height="86" viewBox="0 0 86 86"><defs><style>.a{fill:#fbf0ff;}.b{fill:#f4d3e3;}.c{fill:#f8e3f7;}.d{fill:#dac2ff;}.e{fill:#a97af9;}.f{fill:#c49fff;}.g{fill:#744dd9;}.h{fill:#8057e5;}.i{fill:#4b2bb2;}</style></defs><g transform="translate(4500 -5868)"><rect class="a" width="74" height="52" rx="5" transform="translate(-4494 5868)"/><path class="b" d="M552,164v1a5,5,0,0,1-5,5H483a5,5,0,0,1-5-5V123a5,5,0,0,1,5-5h2v14.56A31.44,31.44,0,0,0,516.44,164Z" transform="translate(-4972 5750)"/><rect class="c" width="66" height="34" rx="1" transform="translate(-4490 5882)"/><path class="d" d="M520.64,145.23a1,1,0,0,0-.82-.21l-33,6a1,1,0,0,0-.82,1v14h21V155.78l7.34-1.56A8.44,8.44,0,0,0,521,146,1,1,0,0,0,520.64,145.23Z" transform="translate(-4972 5750)"/><path class="e" d="M507,162.56V166H486V152a1,1,0,0,1,.82-1l3.69-.67A31.57,31.57,0,0,0,507,162.56Z" transform="translate(-4972 5750)"/><path class="f" d="M548,164v1a1,1,0,0,1-1,1H483a1,1,0,0,1-1-1V133a1,1,0,0,1,1-1h2v.56A31.44,31.44,0,0,0,516.44,164Z" transform="translate(-4972 5750)"/><path class="e" d="M544.6,186.07a1,1,0,0,0-.87-.16,2.75,2.75,0,0,1-.73.09h-4a2.749,2.749,0,0,1-.73-.09,1,1,0,0,0-1.27.96V192a1,1,0,0,0,1,1h6a1,1,0,0,0,1-1v-5.13a1,1,0,0,0-.4-.8Z" transform="translate(-4972 5750)"/><path class="e" d="M518.6,186.07a1,1,0,0,0-.87-.16,2.749,2.749,0,0,1-.73.09h-4a2.749,2.749,0,0,1-.73-.09,1,1,0,0,0-1.27.96V192a1,1,0,0,0,1,1h6a1,1,0,0,0,1-1v-5.13a1,1,0,0,0-.4-.8Z" transform="translate(-4972 5750)"/><path class="e" d="M492.6,186.07a1,1,0,0,0-.87-.16,2.75,2.75,0,0,1-.73.09h-4a2.749,2.749,0,0,1-.73-.09,1,1,0,0,0-1.27.96V192a1,1,0,0,0,1,1h6a1,1,0,0,0,1-1v-5.13A1,1,0,0,0,492.6,186.07Z" transform="translate(-4972 5750)"/><rect class="e" width="34" height="26" rx="1" transform="translate(-4462 5886)"/><path class="g" d="M539,150H524a1,1,0,0,1,0-2h15a1,1,0,0,1,0,2Z" transform="translate(-4972 5750)"/><path class="g" d="M539,146H524a1,1,0,0,1,0-2h15a1,1,0,0,1,0,2Z" transform="translate(-4972 5750)"/><path class="g" d="M539,142H515a1,1,0,0,1,0-2h24a1,1,0,0,1,0,2Z" transform="translate(-4972 5750)"/><path class="g" d="M539,158H515a1,1,0,0,1,0-2h24a1,1,0,0,1,0,2Z" transform="translate(-4972 5750)"/><path class="g" d="M539,154H521a1,1,0,0,1,0-2h18a1,1,0,0,1,0,2Z" transform="translate(-4972 5750)"/><path class="d" d="M547,118H483a5,5,0,0,0-5,5v7h23a5,5,0,0,0,4.9-4H552v-3A5,5,0,0,0,547,118Z" transform="translate(-4972 5750)"/><circle class="e" cx="3" cy="3" r="3" transform="translate(-4483 5871)"/><circle class="e" cx="3" cy="3" r="3" transform="translate(-4476 5871)"/><path class="e" d="M546,123H517a1,1,0,0,1,0-2h29a1,1,0,0,1,0,2Z" transform="translate(-4972 5750)"/><path class="d" d="M546,191H536a6,6,0,0,0-6,6v6a1,1,0,0,0,1,1h20a1,1,0,0,0,1-1v-6a6,6,0,0,0-6-6Z" transform="translate(-4972 5750)"/><path class="d" d="M520,191H510a6,6,0,0,0-6,6v6a1,1,0,0,0,1,1h20a1,1,0,0,0,1-1v-6a6,6,0,0,0-6-6Z" transform="translate(-4972 5750)"/><path class="d" d="M494,191H484a6,6,0,0,0-6,6v6a1,1,0,0,0,1,1h20a1,1,0,0,0,1-1v-6a6,6,0,0,0-6-6Z" transform="translate(-4972 5750)"/><path class="e" d="M557,204H473a1,1,0,0,1,0-2h84a1,1,0,0,1,0,2Z" transform="translate(-4972 5750)"/><circle class="d" cx="6" cy="6" r="6" transform="translate(-4482 5886)"/><rect class="d" width="14" height="16" rx="5" transform="translate(-4438 5922)"/><rect class="d" width="14" height="16" rx="5" transform="translate(-4464 5922)"/><rect class="d" width="14" height="16" rx="5" transform="translate(-4490 5922)"/><circle class="d" cx="6" cy="6" r="6" transform="translate(-4482 5886)"/><path class="h" d="M485,118v12h-7v-7a5,5,0,0,1,5-5Z" transform="translate(-4972 5750)"/><circle class="e" cx="3" cy="3" r="3" transform="translate(-4490 5871)"/><path class="i" d="M485,121v6a3,3,0,1,1,0-6Z" transform="translate(-4972 5750)"/><path class="d" d="M520.64,145.23a1,1,0,0,0-.82-.21l-33,6a1,1,0,0,0-.82,1v14h21V155.78l7.34-1.56A8.44,8.44,0,0,0,521,146,1,1,0,0,0,520.64,145.23Z" transform="translate(-4972 5750)"/><path class="h" d="M507,162.56V166H486V152a1,1,0,0,1,.82-1l3.69-.67A31.57,31.57,0,0,0,507,162.56Z" transform="translate(-4972 5750)"/></g></svg>