<svg xmlns="http://www.w3.org/2000/svg" width="86" height="56" viewBox="0 0 86 56"><defs><style>.a{fill:#fbf0ff;}.b{fill:#f4d3e3;}.c{fill:#f8e3f7;}.d{fill:#c49fff;}.e{fill:#dac2ff;}.f{fill:#8057e5;}.g{fill:#a97af9;}.h{fill:#744dd9;}</style></defs><g transform="translate(4500 -6473)"><path class="a" d="M547,723H483a4,4,0,0,0-4,4v48a1,1,0,0,0,1,1h70a1,1,0,0,0,1-1V727A4,4,0,0,0,547,723Z" transform="translate(-4972 5750)"/><path class="b" d="M551,775a1,1,0,0,1-1,1H480a1,1,0,0,1-1-1V727a4,4,0,0,1,4-4h5v9.19A42.81,42.81,0,0,0,530.81,775Z" transform="translate(-4972 5750)"/><path class="b" d="M551,775a1,1,0,0,1-1,1H480a1,1,0,0,1-1-1V727a4,4,0,0,1,4-4h5v9.19A42.81,42.81,0,0,0,530.81,775Z" transform="translate(-4972 5750)"/><rect class="c" width="64" height="38" rx="1" transform="translate(-4489 6477)"/><path class="d" d="M503.32,765H484a1,1,0,0,1-1-1V728a1,1,0,0,1,1-1h4v5.19A42.69,42.69,0,0,0,503.32,765Z" transform="translate(-4972 5750)"/><path class="e" d="M557,769H535a1,1,0,0,0-.83.45L532.46,772H497.54l-1.71-2.55A1,1,0,0,0,495,769H473a1,1,0,0,0-1,1v4a5,5,0,0,0,5,5h76a5,5,0,0,0,5-5v-4A1,1,0,0,0,557,769Z" transform="translate(-4972 5750)"/><path class="f" d="M557.9,775a5,5,0,0,1-4.9,4H477a5,5,0,0,1-5-5v-4a1,1,0,0,1,1-1h22a1,1,0,0,1,.83.45l1.71,2.55H515a42.588,42.588,0,0,0,15.77,3Z" transform="translate(-4972 5750)"/><circle class="e" cx="6" cy="6" r="6" transform="translate(-4480 6484)"/><rect class="g" width="31" height="26" rx="1" transform="translate(-4461 6484)"/><path class="h" d="M537,748H526a1,1,0,0,1,0-2h11a1,1,0,0,1,0,2Z" transform="translate(-4972 5750)"/><path class="h" d="M537,744H526a1,1,0,0,1,0-2h11a1,1,0,0,1,0,2Z" transform="translate(-4972 5750)"/><path class="h" d="M537,740H516a1,1,0,0,1,0-2h21a1,1,0,0,1,0,2Z" transform="translate(-4972 5750)"/><path class="h" d="M537,756H516a1,1,0,0,1,0-2h21a1,1,0,0,1,0,2Z" transform="translate(-4972 5750)"/><path class="h" d="M537,752H523a1,1,0,0,1,0-2h14a1,1,0,0,1,0,2Z" transform="translate(-4972 5750)"/><path class="e" d="M522.64,743.23a1,1,0,0,0-.82-.21l-33,6a1,1,0,0,0-.82,1v15h21V753.78l7.34-1.56A8.43,8.43,0,0,0,523,744,1,1,0,0,0,522.64,743.23Z" transform="translate(-4972 5750)"/><path class="f" d="M491.25,748.57l-2.43.45a1,1,0,0,0-.82,1v15h15.32a42.91,42.91,0,0,1-12.07-16.45Z" transform="translate(-4972 5750)"/></g></svg>