<svg xmlns="http://www.w3.org/2000/svg" width="72" height="85.998" viewBox="0 0 72 85.998"><defs><style>.a{fill:#dac2ff;}.b{fill:#8057e5;}.c{fill:#fbf0ff;}.d{fill:#f4d3e3;}.e{fill:#a97af9;}.f{fill:#744dd9;}.g{fill:#4b2bb2;}</style></defs><g transform="translate(4729 -6222.002)"><path class="a" d="M309.47,488.12l-30-16a1,1,0,0,0-.94,0l-30,16A1,1,0,0,0,249,490h60a1,1,0,0,0,.47-1.88Z" transform="translate(-4972 5750)"/><path class="b" d="M258,483.07V490h-9a1,1,0,0,1-.47-1.88Z" transform="translate(-4972 5750)"/><rect class="c" width="72" height="50" rx="6" transform="translate(-4729 6248)"/><path class="d" d="M314.91,543a6,6,0,0,1-5.91,5H249a6,6,0,0,1-6-6V504a6,6,0,0,1,6-6h9v8.08A36.92,36.92,0,0,0,294.92,543Z" transform="translate(-4972 5750)"/><rect class="e" width="28" height="14" transform="translate(-4707 6260)"/><rect class="f" width="14" height="14" transform="translate(-4693 6260)"/><path class="e" d="M283,506a4,4,0,0,0-4,4v14a4,4,0,0,1,4-4h7V506Z" transform="translate(-4972 5750)"/><path class="a" d="M275,506h-7v14h7a4,4,0,0,1,4,4V510A4,4,0,0,0,275,506Z" transform="translate(-4972 5750)"/><path class="e" d="M276,511h-5a1,1,0,0,1,0-2h5a1,1,0,0,1,0,2Z" transform="translate(-4972 5750)"/><path class="e" d="M276,514h-5a1,1,0,0,1,0-2h5a1,1,0,0,1,0,2Z" transform="translate(-4972 5750)"/><path class="e" d="M276,517h-5a1,1,0,0,1,0-2h5a1,1,0,0,1,0,2Z" transform="translate(-4972 5750)"/><path class="f" d="M287,517h-5a1,1,0,0,1,0-2h5a1,1,0,0,1,0,2Z" transform="translate(-4972 5750)"/><path class="f" d="M287,511h-5a1,1,0,0,1,0-2h5a1,1,0,0,1,0,2Z" transform="translate(-4972 5750)"/><path class="f" d="M287,514h-5a1,1,0,0,1,0-2h5a1,1,0,0,1,0,2Z" transform="translate(-4972 5750)"/><rect class="e" width="7" height="32" rx="1" transform="translate(-4718 6248)"/><rect class="e" width="7" height="32" rx="1" transform="translate(-4675 6248)"/><rect class="a" width="11" height="7" rx="1" transform="translate(-4677 6278)"/><rect class="a" width="11" height="7" rx="1" transform="translate(-4677 6243)"/><path class="g" d="M291,556a5,5,0,0,1-5-5v-4a1,1,0,0,0-1-1H273a1,1,0,0,0-1,1v4a5,5,0,0,1-5,5,1,1,0,0,0,0,2h24a1,1,0,0,0,0-2Z" transform="translate(-4972 5750)"/><path class="b" d="M293,558H265a1,1,0,0,1,0-2h28a1,1,0,0,1,0,2Z" transform="translate(-4972 5750)"/><path class="g" d="M261,520.68V529a1,1,0,0,1-1,1h-5a1,1,0,0,1-1-1V499a1,1,0,0,1,1-1h3v8.08a36.75,36.75,0,0,0,3,14.6Z" transform="translate(-4972 5750)"/><rect class="a" width="11" height="7" rx="1" transform="translate(-4720 6243)"/><path class="b" d="M258,493v7h-5a1,1,0,0,1-1-1v-5a1,1,0,0,1,1-1Z" transform="translate(-4972 5750)"/><rect class="e" width="62" height="7" rx="1" transform="translate(-4724 6238)"/><path class="g" d="M258,488v7h-9a1,1,0,0,1-1-1v-5a1,1,0,0,1,1-1Z" transform="translate(-4972 5750)"/><rect class="b" width="11" height="7" rx="1" transform="translate(-4720 6278)"/><rect class="e" width="62" height="7" rx="1" transform="translate(-4724 6283)"/><path class="g" d="M280.32,540H249a1,1,0,0,1-1-1v-5a1,1,0,0,1,1-1h20.65A37.21,37.21,0,0,0,280.32,540Z" transform="translate(-4972 5750)"/><path class="a" d="M249,548h60a6,6,0,0,0,6-6v-4H243v4A6,6,0,0,0,249,548Z" transform="translate(-4972 5750)"/><path class="b" d="M314.91,543a6,6,0,0,1-5.91,5H249a6,6,0,0,1-6-6v-4h33.35a36.77,36.77,0,0,0,18.57,5Z" transform="translate(-4972 5750)"/><path class="g" d="M281,544h-4a1,1,0,0,1,0-2h4a1,1,0,0,1,0,2Z" transform="translate(-4972 5750)"/></g></svg>