<svg xmlns="http://www.w3.org/2000/svg" viewBox="0 0 327.11 286.2"><g id="Layer_2" data-name="Layer 2"><g id="Layer_1-2" data-name="Layer 1"><path d="M105.24,169.7h85.88a9.93,9.93,0,0,1,5,18.48c-37.42,22.11-56.85,47.9-59.42,78.84a21.33,21.33,0,0,1-21.31,19.18,42,42,0,0,1-41.31-41.95v-3.34c0-27.09,8-44.36,22.83-66.75a9.91,9.91,0,0,1,8.28-4.46Z" fill="#ffe3ca"/><path d="M0,158.45a31.14,31.14,0,0,0,31.11,31.11h160a10,10,0,0,0,5-1.38c11.23-6.65,22.57-12.11,31.69-16.51,3.17-1.53,6.18-3,8.91-4.34a9.93,9.93,0,0,0,5.48-8.88V31.36a9.93,9.93,0,0,0-5.48-8.88C196.65,2.42,163.3,0,124.41,0c-6,0-12.18.06-18.51.12-7,.06-14.25.13-21.84.13H52.67A31.09,31.09,0,0,0,25.89,47.17,31.08,31.08,0,0,0,15.3,89.54a31.06,31.06,0,0,0-6.77,47.51A30.86,30.86,0,0,0,0,158.45Z" fill="#fcd2b1"/><path d="M232.46,189.56h84.72a9.94,9.94,0,0,0,9.93-9.93V10.18a10.12,10.12,0,0,0-9.93-10H253.64a31.46,31.46,0,0,0-27.83,17.35,30.84,30.84,0,0,0-3.28,13.88V179.63a9.94,9.94,0,0,0,9.93,9.93Z" fill="#57b6e0"/><path d="M244.57,48.53A28.44,28.44,0,1,1,273,77a28.43,28.43,0,0,1-28.43-28.43Z" fill="#ffd880"/></g></g></svg>