<svg xmlns="http://www.w3.org/2000/svg" width="82" height="86" viewBox="0 0 82 86"><defs><style>.a{fill:#a97af9;}.b{fill:#744dd9;}.c{fill:#f8e3f7;}.d{fill:#fbf0ff;}.e{fill:#dac2ff;}</style></defs><g transform="translate(4498 -5750)"><rect class="a" width="78" height="39" rx="1" transform="translate(-4498 5755)"/><path class="b" d="M551,5H513V44h38a1,1,0,0,0,1-1V6A1,1,0,0,0,551,5Z" transform="translate(-4972 5750)"/><path class="c" d="M520.5,74a7.5,7.5,0,0,1-7.5-7.5V37a1,1,0,0,1,2,0V66.5a5.5,5.5,0,0,0,11,0V54a4,4,0,0,1,4-4h13a4,4,0,0,1,4,4v3a1,1,0,0,1-2,0V54a2,2,0,0,0-2-2H530a2,2,0,0,0-2,2V66.5A7.5,7.5,0,0,1,520.5,74Z" transform="translate(-4972 5750)"/><path class="b" d="M500,34H490a1,1,0,0,0-1,1V53a1,1,0,0,0,1.62.78l4.38-3.5,4.38,3.5A1,1,0,0,0,500,54a.91.91,0,0,0,.43-.1A1,1,0,0,0,501,53V35A1,1,0,0,0,500,34Z" transform="translate(-4972 5750)"/><rect class="d" width="8" height="6" rx="1" transform="translate(-4430 5806)"/><path class="a" d="M545,0H519a6,6,0,0,0-6,6V44a6,6,0,0,1,6-6h26a1,1,0,0,0,1-1V1A1,1,0,0,0,545,0Z" transform="translate(-4972 5750)"/><path class="e" d="M507,0H481a1,1,0,0,0-1,1V37a1,1,0,0,0,1,1h26a6,6,0,0,1,6,6V6A6,6,0,0,0,507,0Z" transform="translate(-4972 5750)"/><circle class="a" cx="9" cy="9" r="9" transform="translate(-4484 5754)"/><path class="b" d="M500.51,12.14l-5-3A1,1,0,0,0,494,10v6a1,1,0,0,0,1.51.86l5-3a1,1,0,0,0,0-1.72Z" transform="translate(-4972 5750)"/><path class="a" d="M508,26H486a1,1,0,0,1,0-2h22a1,1,0,0,1,0,2Z" transform="translate(-4972 5750)"/><path class="a" d="M499,30H486a1,1,0,0,1,0-2h13a1,1,0,0,1,0,2Z" transform="translate(-4972 5750)"/><path class="a" d="M499,34H486a1,1,0,0,1,0-2h13a1,1,0,0,1,0,2Z" transform="translate(-4972 5750)"/><path class="b" d="M532,26H518a1,1,0,0,1,0-2h14a1,1,0,0,1,0,2Z" transform="translate(-4972 5750)"/><path class="b" d="M532,22H518a1,1,0,0,1,0-2h14a1,1,0,0,1,0,2Z" transform="translate(-4972 5750)"/><path class="b" d="M527,18h-9a1,1,0,0,1,0-2h9a1,1,0,0,1,0,2Z" transform="translate(-4972 5750)"/><path class="b" d="M536,14H518a1,1,0,0,1,0-2h18a1,1,0,0,1,0,2Z" transform="translate(-4972 5750)"/><path class="b" d="M531,10H518a1,1,0,0,1,0-2h13a1,1,0,0,1,0,2Z" transform="translate(-4972 5750)"/><path class="b" d="M540,6H518a1,1,0,0,1,0-2h22a1,1,0,0,1,0,2Z" transform="translate(-4972 5750)"/><path class="b" d="M535,30H518a1,1,0,0,1,0-2h17a1,1,0,0,1,0,2Z" transform="translate(-4972 5750)"/><path class="b" d="M528,34H518a1,1,0,0,1,0-2h10a1,1,0,0,1,0,2Z" transform="translate(-4972 5750)"/><path class="b" d="M540,10h-5a1,1,0,0,1,0-2h5a1,1,0,0,1,0,2Z" transform="translate(-4972 5750)"/><path class="b" d="M540,26h-4a1,1,0,0,1,0-2h4a1,1,0,0,1,0,2Z" transform="translate(-4972 5750)"/><path class="b" d="M540,34h-8a1,1,0,0,1,0-2h8a1,1,0,0,1,0,2Z" transform="translate(-4972 5750)"/><path class="b" d="M540,18h-9a1,1,0,0,1,0-2h9a1,1,0,0,1,0,2Z" transform="translate(-4972 5750)"/><path class="e" d="M549,60h-6a7,7,0,0,0-7,7v9a10,10,0,0,0,20,0V67a7,7,0,0,0-7-7Z" transform="translate(-4972 5750)"/><path class="a" d="M546,70a1,1,0,0,1-1-1V66a1,1,0,0,1,2,0v3A1,1,0,0,1,546,70Z" transform="translate(-4972 5750)"/></g></svg>