<svg xmlns="http://www.w3.org/2000/svg" width="86" height="70" viewBox="0 0 86 70"><defs><style>.a{fill:#fbf0ff;}.b{fill:#dac2ff;}.c{fill:#a97af9;}.d{fill:#f4d3e3;}.e{fill:#8057e5;}.f{fill:#4b2bb2;}.g{fill:#744dd9;}</style></defs><g transform="translate(4972 -6348)"><rect class="a" width="86" height="70" rx="6" transform="translate(-4972 6348)"/><path class="b" d="M80,598H6a6,6,0,0,0-6,6v10H24a7,7,0,0,0,6.93-6H86v-4A6,6,0,0,0,80,598Z" transform="translate(-4972 5750)"/><circle class="c" cx="3" cy="3" r="3" transform="translate(-4968 6354)"/><circle class="c" cx="3" cy="3" r="3" transform="translate(-4960 6354)"/><circle class="c" cx="3" cy="3" r="3" transform="translate(-4952 6354)"/><path class="c" d="M79,604H38a1,1,0,0,1,0-2H79a1,1,0,0,1,0,2Z" transform="translate(-4972 5750)"/><path class="d" d="M85.91,663A6,6,0,0,1,80,668H6a6,6,0,0,1-6-6V604a6,6,0,0,1,6-6H7v12.31A52.69,52.69,0,0,0,59.69,663Z" transform="translate(-4972 5750)"/><path class="e" d="M7.13,614H0V604a6,6,0,0,1,6-6H7v12.31A34.814,34.814,0,0,0,7.13,614Z" transform="translate(-4972 5750)"/><path class="f" d="M7,604v6a3,3,0,0,1,0-6Z" transform="translate(-4972 5750)"/><rect class="c" width="58" height="28" transform="translate(-4958 6379)"/><path class="f" d="M14,657H35.28A52.91,52.91,0,0,1,14,636.54Z" transform="translate(-4972 5750)"/><rect class="g" width="29" height="28" transform="translate(-4929 6379)"/><path class="c" d="M48,623a5,5,0,0,0-5,5v28a5,5,0,0,1,5-5H67V623Z" transform="translate(-4972 5750)"/><path class="g" d="M63,628H48a1,1,0,0,1,0-2H63a1,1,0,0,1,0,2Z" transform="translate(-4972 5750)"/><path class="g" d="M63,632H48a1,1,0,0,1,0-2H63a1,1,0,0,1,0,2Z" transform="translate(-4972 5750)"/><path class="g" d="M63,636H48a1,1,0,0,1,0-2H63a1,1,0,0,1,0,2Z" transform="translate(-4972 5750)"/><path class="g" d="M63,640H48a1,1,0,0,1,0-2H63a1,1,0,0,1,0,2Z" transform="translate(-4972 5750)"/><path class="g" d="M63,644H48a1,1,0,0,1,0-2H63a1,1,0,0,1,0,2Z" transform="translate(-4972 5750)"/><path class="g" d="M63,648H48a1,1,0,0,1,0-2H63a1,1,0,0,1,0,2Z" transform="translate(-4972 5750)"/><path class="b" d="M38,623H19v28H38a5,5,0,0,1,5,5V628a5,5,0,0,0-5-5Z" transform="translate(-4972 5750)"/><path class="e" d="M19,651h7.21A53.388,53.388,0,0,1,19,643.79Z" transform="translate(-4972 5750)"/><path class="c" d="M36.49,636.13l-9-5A.99.99,0,0,0,26,632v10a1,1,0,0,0,1.49.87l9-5a1,1,0,0,0,0-1.74Z" transform="translate(-4972 5750)"/></g></svg>