<svg xmlns="http://www.w3.org/2000/svg" width="86" height="84" viewBox="0 0 86 84"><g transform="translate(-1 -2)"><path d="M76,30H12a4,4,0,0,0-4,4V82a1,1,0,0,0,1,1H79a1,1,0,0,0,1-1V34A4,4,0,0,0,76,30Z" fill="#e6ecff"/><rect width="64" height="38" rx="1" transform="translate(12 34)" fill="#d0dbf7"/><path d="M86,76H64a1,1,0,0,0-.832.445L61.465,79H26.535l-1.7-2.555A1,1,0,0,0,24,76H2a1,1,0,0,0-1,1v4a5.006,5.006,0,0,0,5,5H82a5.006,5.006,0,0,0,5-5V77A1,1,0,0,0,86,76Z" fill="#bface9"/><path d="M49,55H39a1,1,0,0,0-1,1v1a6,6,0,0,0,12,0V56A1,1,0,0,0,49,55Z" fill="#6848b1"/><path d="M44,12a16,16,0,0,0-7,30.383V46a1,1,0,0,0,1,1H50a1,1,0,0,0,1-1V42.383A16,16,0,0,0,44,12Z" fill="#bface9"/><path d="M46,47a1,1,0,0,1-1-1V33H43V46a1,1,0,0,1-2,0V33H39.5A3.5,3.5,0,1,1,43,29.5V31h2V29.5A3.5,3.5,0,1,1,48.5,33H47V46A1,1,0,0,1,46,47Zm1-16h1.5A1.5,1.5,0,1,0,47,29.5Zm-7.5-3a1.5,1.5,0,0,0,0,3H41V29.5A1.5,1.5,0,0,0,39.5,28Z" fill="#8257e5"/><path d="M44,9a1,1,0,0,1-1-1V3a1,1,0,0,1,2,0V8A1,1,0,0,1,44,9Z" fill="#8257e5"/><path d="M33.5,11.814a1,1,0,0,1-.867-.5l-2.5-4.33a1,1,0,0,1,1.732-1l2.5,4.33a1,1,0,0,1-.865,1.5Z" fill="#8257e5"/><path d="M25.813,19.5a1,1,0,0,1-.5-.134l-4.33-2.5a1,1,0,1,1,1-1.732l4.33,2.5a1,1,0,0,1-.5,1.866Z" fill="#8257e5"/><path d="M54.5,11.814a1,1,0,0,1-.865-1.5l2.5-4.33a1,1,0,1,1,1.732,1l-2.5,4.33A1,1,0,0,1,54.5,11.814Z" fill="#8257e5"/><path d="M62.188,19.5a1,1,0,0,1-.5-1.866l4.33-2.5a1,1,0,1,1,1,1.732l-4.33,2.5a1,1,0,0,1-.5.134Z" fill="#8257e5"/><rect width="20" height="12" rx="3" transform="translate(34 45)" fill="#8257e5"/><rect width="20" height="2" transform="translate(34 50)" fill="#6848b1"/><path d="M80,82a1,1,0,0,1-1,1H9a1,1,0,0,1-1-1V34a4,4,0,0,1,4-4h5v9.19A42.813,42.813,0,0,0,59.806,82Z" fill="#b7c6e2"/><path d="M32.32,72H13a1,1,0,0,1-1-1V35a1,1,0,0,1,1-1h4v5.19A42.694,42.694,0,0,0,32.32,72Z" fill="#8ea6ce"/><path d="M86.9,82A5,5,0,0,1,82,86H6a5,5,0,0,1-5-5V77a1,1,0,0,1,1-1H24a1,1,0,0,1,.83.45L26.54,79h17.5a42.587,42.587,0,0,0,15.77,3Z" fill="#8257e5"/></g></svg>