<svg xmlns="http://www.w3.org/2000/svg" width="86" height="85.974" viewBox="0 0 86 85.974"><g transform="translate(-1 -1.026)"><path d="M68.73,47.316l-15-16A1,1,0,0,0,52,32V54a1,1,0,0,0,1,1H68a1,1,0,0,0,1-1V48a1,1,0,0,0-.27-.684Z" fill="#bface9"/><path d="M35.368,31.07a1,1,0,0,0-1.1.246l-15,16A1,1,0,0,0,19,48v6a1,1,0,0,0,1,1H35a1,1,0,0,0,1-1V32a1,1,0,0,0-.632-.93Z" fill="#bface9"/><path d="M32.8,77.041a9.974,9.974,0,0,0-9.323-8.015,8.984,8.984,0,0,0-15.975,2A7,7,0,0,0,1,78v8a1,1,0,0,0,1,1H40a1,1,0,0,0,1-1,9.009,9.009,0,0,0-8.2-8.959Z" fill="#bface9"/><path d="M11.78,70.88a.99.99,0,0,1-1.29.58,6.753,6.753,0,0,0-2.99-.44,8.7,8.7,0,0,1,1-2,8.748,8.748,0,0,1,2.71.57,1,1,0,0,1,.57,1.29Z" fill="#8257e5"/><path d="M32.8,77.02v.02a8.947,8.947,0,0,0-5.83,1.5,1,1,0,0,1-1.12-1.66A10.95,10.95,0,0,1,32.15,75h.01A9.709,9.709,0,0,1,32.8,77.02Z" fill="#8257e5"/><path d="M23.47,69.02a9.625,9.625,0,0,0-3.63.48,1,1,0,1,1-.63-1.89,11.591,11.591,0,0,1,2.47-.54h.01a9.433,9.433,0,0,1,1.78,1.95Z" fill="#8257e5"/><path d="M41,79a1,1,0,0,1-1-1V68a1,1,0,0,1,2,0V78A1,1,0,0,1,41,79Z" fill="#8257e5"/><path d="M47,79a1,1,0,0,1-1-1V68a1,1,0,0,1,2,0V78A1,1,0,0,1,47,79Z" fill="#8257e5"/><rect width="14" height="6" rx="1" transform="translate(37 59)" fill="#8257e5"/><path d="M36,32V54a1,1,0,0,1-1,1H32V33.74l2.27-2.42A1,1,0,0,1,36,32Z" fill="#8257e5"/><path d="M56,33.74V55H53a1,1,0,0,1-1-1V32a1,1,0,0,1,1.73-.68Z" fill="#8257e5"/><path d="M44.822,1.431a1.038,1.038,0,0,0-1.645,0L34,15V60a1,1,0,0,0,1,1H53a1,1,0,0,0,1-1V15Z" fill="#e6ecff"/><rect width="6" height="43" transform="translate(41 14)" fill="#8257e5"/><path d="M32.16,75h-.01a.471.471,0,0,0-.06-.15C32.11,74.9,32.14,74.95,32.16,75Z"/><path d="M55.2,77.041a9.974,9.974,0,0,1,9.323-8.015,8.985,8.985,0,0,1,15.975,2A7,7,0,0,1,87,78v8a1,1,0,0,1-1,1H48a1,1,0,0,1-1-1,9.009,9.009,0,0,1,8.2-8.959Z" fill="#bface9"/><path d="M76.22,70.88a.99.99,0,0,0,1.29.58,6.753,6.753,0,0,1,2.99-.44,8.7,8.7,0,0,0-1-2,8.747,8.747,0,0,0-2.71.57A1,1,0,0,0,76.22,70.88Z" fill="#8257e5"/><path d="M55.2,77.02v.02a8.947,8.947,0,0,1,5.83,1.5,1,1,0,0,0,1.12-1.66A10.95,10.95,0,0,0,55.85,75h-.01a9.708,9.708,0,0,0-.64,2.02Z" fill="#8257e5"/><path d="M64.53,69.02a9.625,9.625,0,0,1,3.63.48,1,1,0,1,0,.63-1.89,11.591,11.591,0,0,0-2.47-.54h-.01a9.433,9.433,0,0,0-1.78,1.95Z" fill="#8257e5"/><path d="M43.178,1.431,34,15H54L44.822,1.431a1.038,1.038,0,0,0-1.645,0Z" fill="#bface9"/><path d="M38.058,9H49.942l-5.12-7.569a1.038,1.038,0,0,0-1.645,0Z" fill="#8257e5"/><path d="M34,55v5a1,1,0,0,0,1,1H53a1,1,0,0,0,1-1V55Z" fill="#bface9"/></g></svg>