<svg xmlns="http://www.w3.org/2000/svg" width="72" height="86" viewBox="0 0 72 86"><g transform="translate(-8 -1)"><path d="M74.471,17.117l-30-16a1,1,0,0,0-.941,0l-30,16A1,1,0,0,0,14,19H74a1,1,0,0,0,.471-1.883Z" fill="#bface9"/><path d="M23,12.07V19H14a1,1,0,0,1-.47-1.88Z" fill="#8257e5"/><rect width="72" height="50" rx="6" transform="translate(8 27)" fill="#e6ecff"/><path d="M79.91,72A5.99,5.99,0,0,1,74,77H14a6,6,0,0,1-6-6V33a6,6,0,0,1,6-6h9v8.08A36.92,36.92,0,0,0,59.92,72Z" fill="#b7c6e2"/><rect width="28" height="14" transform="translate(30 39)" fill="#8257e5"/><rect width="14" height="14" transform="translate(44 39)" fill="#6848b1"/><path d="M48,35a4,4,0,0,0-4,4V53a4,4,0,0,1,4-4h7V35Z" fill="#8257e5"/><path d="M40,35H33V49h7a4,4,0,0,1,4,4V39A4,4,0,0,0,40,35Z" fill="#bface9"/><path d="M41,40H36a1,1,0,0,1,0-2h5a1,1,0,0,1,0,2Z" fill="#8257e5"/><path d="M41,43H36a1,1,0,0,1,0-2h5a1,1,0,0,1,0,2Z" fill="#8257e5"/><path d="M41,46H36a1,1,0,0,1,0-2h5a1,1,0,0,1,0,2Z" fill="#8257e5"/><path d="M52,46H47a1,1,0,0,1,0-2h5a1,1,0,0,1,0,2Z" fill="#6848b1"/><path d="M52,40H47a1,1,0,0,1,0-2h5a1,1,0,0,1,0,2Z" fill="#6848b1"/><path d="M52,43H47a1,1,0,0,1,0-2h5a1,1,0,0,1,0,2Z" fill="#6848b1"/><rect width="7" height="32" rx="1" transform="translate(19 27)" fill="#8257e5"/><rect width="7" height="32" rx="1" transform="translate(62 27)" fill="#8257e5"/><rect width="11" height="7" rx="1" transform="translate(60 57)" fill="#bface9"/><rect width="11" height="7" rx="1" transform="translate(60 22)" fill="#bface9"/><path d="M56,85a5.006,5.006,0,0,1-5-5V76a1,1,0,0,0-1-1H38a1,1,0,0,0-1,1v4a5.006,5.006,0,0,1-5,5,1,1,0,0,0,0,2H56a1,1,0,0,0,0-2Z" fill="#6848b1"/><path d="M58,87H30a1,1,0,0,1,0-2H58a1,1,0,0,1,0,2Z" fill="#8257e5"/><path d="M26,49.68V58a1,1,0,0,1-1,1H20a1,1,0,0,1-1-1V28a1,1,0,0,1,1-1h3v8.08a36.755,36.755,0,0,0,3,14.6Z" fill="#6848b1"/><rect width="11" height="7" rx="1" transform="translate(17 22)" fill="#bface9"/><path d="M23,22v7H18a1,1,0,0,1-1-1V23a1,1,0,0,1,1-1Z" fill="#8257e5"/><rect width="62" height="7" rx="1" transform="translate(13 17)" fill="#8257e5"/><path d="M23,17v7H14a1,1,0,0,1-1-1V18a1,1,0,0,1,1-1Z" fill="#6848b1"/><rect width="11" height="7" rx="1" transform="translate(17 57)" fill="#8257e5"/><rect width="62" height="7" rx="1" transform="translate(13 62)" fill="#8257e5"/><path d="M45.32,69H14a1,1,0,0,1-1-1V63a1,1,0,0,1,1-1H34.65A37.212,37.212,0,0,0,45.32,69Z" fill="#6848b1"/><path d="M14,77H74a6.007,6.007,0,0,0,6-6V67H8v4a6.007,6.007,0,0,0,6,6Z" fill="#bface9"/><path d="M79.91,72A5.99,5.99,0,0,1,74,77H14a6,6,0,0,1-6-6V67H41.35a36.769,36.769,0,0,0,18.57,5Z" fill="#8257e5"/><path d="M46,73H42a1,1,0,0,1,0-2h4a1,1,0,0,1,0,2Z" fill="#6848b1"/></g></svg>