<svg xmlns="http://www.w3.org/2000/svg" viewBox="0 0 327.11 286.2"><g id="Layer_2" data-name="Layer 2"><g id="Layer_1-2" data-name="Layer 1"><path d="M221.87,116.5H136A9.93,9.93,0,0,1,130.94,98c37.42-22.11,56.85-47.9,59.42-78.84A21.33,21.33,0,0,1,211.67,0,42,42,0,0,1,253,42v3.34c0,27.09-8,44.36-22.83,66.75a9.91,9.91,0,0,1-8.28,4.46Z" fill="#ffe3ca"/><path d="M327.11,127.75A31.14,31.14,0,0,0,296,96.64H136A10,10,0,0,0,130.94,98c-11.23,6.65-22.57,12.11-31.69,16.51-3.17,1.53-6.17,3-8.91,4.34a9.93,9.93,0,0,0-5.48,8.88V254.84a9.93,9.93,0,0,0,5.48,8.88c40.12,20.06,73.47,22.48,112.36,22.48,6,0,12.18-.06,18.51-.12,7-.07,14.25-.13,21.84-.13h31.39A31.09,31.09,0,0,0,301.22,239a31.08,31.08,0,0,0,10.59-42.37,31.06,31.06,0,0,0,6.77-47.51,30.88,30.88,0,0,0,8.53-21.4Z" fill="#fcd2b1"/><path d="M94.65,96.64H9.93A9.94,9.94,0,0,0,0,106.57V276a10.12,10.12,0,0,0,9.93,10.05H73.47a31.46,31.46,0,0,0,27.83-17.35,30.75,30.75,0,0,0,3.28-13.89V106.57a9.94,9.94,0,0,0-9.93-9.93Z" fill="#8257e5"/><path d="M82.54,237.67a28.44,28.44,0,1,1-28.43-28.43,28.43,28.43,0,0,1,28.43,28.43Z" fill="#ffd880"/></g></g></svg>